{"glyphs":{"0":{"ha":801,"x_min":90,"x_max":763,"o":"m 90 257 q 108 457 90 358 q 163 642 126 556 q 251 796 199 729 q 371 901 303 863 q 522 939 439 939 q 702 869 642 939 q 763 667 763 800 q 744 467 763 565 q 690 281 726 368 q 602 128 654 194 q 482 23 550 61 q 331 -15 414 -15 q 151 54 211 -15 q 90 257 90 124 m 681 669 q 640 815 681 767 q 518 864 600 864 q 399 828 453 864 q 303 732 344 793 q 232 592 261 671 q 188 427 203 514 q 172 254 172 340 q 213 108 172 157 q 335 60 254 60 q 454 95 400 60 q 550 191 508 131 q 621 330 592 251 q 665 496 650 408 q 681 669 681 583 z "},"1":{"ha":801,"x_min":303,"x_max":660,"o":"m 318 850 l 596 924 l 660 924 l 463 0 l 383 0 l 561 842 l 303 772 l 318 850 z "},"2":{"ha":801,"x_min":39,"x_max":750,"o":"m 258 835 l 264 908 q 367 929 304 919 q 486 939 431 939 q 624 919 565 939 q 717 857 683 899 q 750 750 750 815 q 740 668 750 708 q 698 579 729 628 q 603 463 667 531 q 433 301 539 396 q 169 74 328 206 l 621 74 l 606 0 l 39 0 l 53 69 q 301 281 199 190 q 470 436 403 371 q 577 548 538 501 q 635 628 617 594 q 660 689 654 661 q 665 743 665 717 q 615 837 665 810 q 478 864 564 864 q 362 855 422 864 q 258 835 301 846 z "},"3":{"ha":801,"x_min":33,"x_max":789,"o":"m 247 924 l 789 924 l 775 857 l 422 531 q 608 483 538 529 q 678 326 678 438 q 628 138 678 214 q 490 23 578 61 q 283 -15 401 -15 q 149 -7 210 -15 q 33 14 88 1 l 57 88 q 170 67 117 74 q 288 60 224 60 q 445 88 376 60 q 553 174 514 115 q 593 322 593 232 q 565 406 593 375 q 489 449 538 436 q 376 461 440 461 l 300 461 l 313 525 l 664 851 l 232 851 l 247 924 z "},"4":{"ha":801,"x_min":29,"x_max":740,"o":"m 635 924 l 740 924 l 606 294 l 736 294 l 718 221 l 589 221 l 544 0 l 464 0 l 510 221 l 29 221 l 43 283 l 635 924 m 140 282 l 99 294 l 526 294 l 647 865 l 667 853 l 140 282 z "},"5":{"ha":801,"x_min":49,"x_max":764,"o":"m 764 924 l 749 851 l 351 851 l 261 533 q 323 544 281 538 q 404 550 365 550 q 550 531 490 550 q 642 465 610 511 q 674 336 674 418 q 628 150 674 229 q 499 28 583 71 q 292 -15 414 -15 q 163 -8 222 -15 q 49 14 104 0 l 71 88 q 182 67 129 74 q 296 60 235 60 q 511 130 432 60 q 590 328 590 200 q 566 419 590 388 q 497 464 542 451 q 389 476 451 476 q 328 474 364 476 q 256 465 293 471 q 188 453 219 460 l 171 474 l 300 924 l 764 924 z "},"6":{"ha":801,"x_min":104,"x_max":792,"o":"m 186 421 l 201 497 q 324 539 261 521 q 460 557 388 557 q 637 505 575 557 q 699 353 699 453 q 656 164 699 247 q 539 33 614 81 q 364 -15 464 -15 q 169 54 233 -15 q 104 258 104 124 q 122 458 104 360 q 176 642 139 556 q 270 796 213 729 q 408 901 328 863 q 593 939 488 939 q 658 936 624 939 q 728 928 693 933 q 792 917 763 924 l 768 843 q 679 858 725 853 q 592 864 633 864 q 402 811 481 864 q 275 670 324 758 q 204 475 226 582 q 182 258 182 368 q 226 111 182 161 q 371 61 269 61 q 498 97 442 61 q 587 197 554 133 q 619 343 619 260 q 576 447 619 410 q 447 483 533 483 q 319 467 386 483 q 186 421 253 450 z "},"7":{"ha":801,"x_min":147,"x_max":817,"o":"m 229 924 l 817 924 l 804 861 l 240 0 l 147 0 l 707 850 l 213 850 l 229 924 z "},"8":{"ha":801,"x_min":60,"x_max":768,"o":"m 424 449 q 216 379 289 449 q 143 196 143 310 q 340 57 143 57 q 548 124 475 57 q 621 306 621 192 q 424 449 621 449 m 567 481 q 667 419 632 465 q 703 304 703 374 q 659 138 703 210 q 533 25 615 65 q 333 -15 450 -15 q 130 38 200 -15 q 60 189 60 92 q 90 328 60 267 q 174 430 119 389 q 297 486 228 471 q 216 542 244 501 q 188 643 188 583 q 275 859 188 779 q 519 939 363 939 q 703 891 639 939 q 768 753 768 843 q 713 578 768 653 q 567 481 657 504 m 514 868 q 333 809 399 868 q 268 646 268 750 q 438 517 268 517 q 619 581 553 517 q 685 744 685 646 q 514 868 685 868 z "},"9":{"ha":801,"x_min":58,"x_max":746,"o":"m 664 503 l 649 426 q 526 385 589 403 q 390 367 463 367 q 214 419 276 367 q 151 571 151 471 q 194 760 151 678 q 312 891 236 843 q 486 939 388 939 q 682 869 618 939 q 746 665 746 800 q 728 466 746 564 q 674 281 711 368 q 580 128 638 194 q 442 23 522 61 q 257 -15 363 -15 q 192 -12 228 -15 q 123 -4 157 -10 q 58 7 89 1 l 82 81 q 171 65 125 71 q 258 60 217 60 q 448 113 369 60 q 575 253 526 165 q 646 448 624 340 q 668 665 668 556 q 625 813 668 763 q 479 863 582 863 q 353 826 410 863 q 263 727 296 790 q 231 581 231 664 q 274 477 231 514 q 403 440 317 440 q 531 457 464 440 q 664 503 597 474 z "},"\u0000":{"ha":0,"x_min":0,"x_max":0,"o":""},"\r":{"ha":340,"x_min":0,"x_max":0,"o":""}," ":{"ha":326,"x_min":0,"x_max":0,"o":""}," ":{"ha":326,"x_min":0,"x_max":0,"o":""},"A":{"ha":885,"x_min":47,"x_max":839,"o":"m 207 365 l 129 0 l 47 0 l 175 600 q 247 787 199 711 q 372 901 294 863 q 558 939 450 939 q 701 917 643 939 q 792 851 760 894 q 831 744 824 807 q 821 599 839 681 l 693 0 l 610 0 l 688 365 l 207 365 m 222 438 l 703 438 l 738 603 q 724 795 765 726 q 554 864 682 864 q 258 603 314 864 l 222 438 z "},"B":{"ha":822,"x_min":64,"x_max":788,"o":"m 235 431 l 160 78 q 253 63 204 68 q 354 57 301 57 q 515 88 453 57 q 605 171 576 118 q 633 290 633 224 q 586 395 633 360 q 440 431 539 431 l 235 431 m 325 854 l 249 500 l 454 500 q 633 560 567 500 q 700 732 700 621 q 656 824 700 793 q 524 854 613 854 l 325 854 m 257 924 l 535 924 q 722 878 658 924 q 786 739 786 833 q 732 560 788 629 q 586 465 676 492 q 685 408 647 451 q 722 292 722 364 q 699 169 722 225 q 628 72 675 113 q 512 8 581 31 q 351 -15 443 -15 q 215 -6 288 -15 q 64 21 142 3 l 257 924 z "},"C":{"ha":739,"x_min":94,"x_max":801,"o":"m 801 917 l 778 842 q 687 858 731 851 q 592 864 643 864 q 413 816 490 864 q 283 686 335 768 q 206 503 232 604 q 179 293 179 401 q 235 117 179 175 q 406 60 292 60 q 515 67 463 60 q 621 85 567 75 l 614 13 q 509 -8 563 0 q 393 -15 456 -15 q 172 63 250 -15 q 94 292 94 140 q 126 531 94 415 q 219 739 157 647 q 376 885 282 831 q 596 939 471 939 q 702 933 653 939 q 801 917 751 926 z "},"D":{"ha":892,"x_min":64,"x_max":846,"o":"m 257 924 l 519 924 q 760 847 675 924 q 846 617 846 771 q 828 438 846 528 q 774 267 811 349 q 678 122 736 186 q 538 22 619 58 q 350 -15 457 -15 q 210 -6 282 -15 q 64 21 138 3 l 257 924 m 325 851 l 160 82 q 251 65 201 71 q 356 60 301 60 q 539 109 463 60 q 664 240 615 158 q 736 419 713 321 q 760 617 760 518 q 697 798 760 744 q 511 851 635 851 l 325 851 z "},"E":{"ha":699,"x_min":82,"x_max":750,"o":"m 250 924 l 750 924 l 735 851 l 319 851 l 247 515 l 621 515 l 604 442 l 232 442 l 178 189 q 191 101 165 129 q 279 74 217 74 l 589 74 l 574 0 l 265 0 q 156 22 199 0 q 98 85 114 43 q 94 189 82 126 l 250 924 z "},"F":{"ha":678,"x_min":60,"x_max":754,"o":"m 256 924 l 754 924 l 740 851 l 325 851 l 250 510 l 619 510 l 604 438 l 236 438 l 143 0 l 60 0 l 256 924 z "},"G":{"ha":849,"x_min":94,"x_max":854,"o":"m 854 915 l 833 842 q 733 858 786 853 q 619 864 679 864 q 421 817 504 864 q 285 690 338 769 q 206 510 232 610 q 181 304 181 410 q 241 117 181 175 q 428 60 301 60 q 524 65 476 60 q 617 82 571 71 l 689 418 l 464 418 l 479 489 l 785 489 l 685 25 q 558 -4 625 7 q 424 -15 492 -15 q 244 19 318 -15 q 133 124 171 53 q 94 304 94 194 q 126 540 94 426 q 224 744 158 654 q 388 886 289 833 q 621 939 486 939 q 740 933 682 939 q 854 915 799 926 z "},"H":{"ha":953,"x_min":60,"x_max":943,"o":"m 256 924 l 339 924 l 253 514 l 774 514 l 860 924 l 943 924 l 747 0 l 664 0 l 757 439 l 238 439 l 143 0 l 60 0 l 256 924 z "},"I":{"ha":347,"x_min":60,"x_max":339,"o":"m 256 924 l 339 924 l 143 0 l 60 0 l 256 924 z "},"J":{"ha":350,"x_min":-165,"x_max":340,"o":"m 257 924 l 340 924 l 164 92 q 134 -6 153 38 q 83 -88 115 -49 q 1 -172 51 -128 q -126 -271 -50 -215 l -165 -211 q -23 -95 -72 -144 q 49 1 26 -46 q 83 106 72 47 l 257 924 z "},"K":{"ha":813,"x_min":58,"x_max":881,"o":"m 254 924 l 338 924 l 228 408 l 779 924 l 881 924 l 447 519 q 540 477 504 504 q 599 401 576 450 q 636 272 621 353 l 688 0 l 603 0 l 556 247 q 522 364 542 321 q 470 429 503 407 q 382 461 438 451 l 206 301 l 142 0 l 58 0 l 254 924 z "},"L":{"ha":661,"x_min":61,"x_max":564,"o":"m 257 924 l 340 924 l 160 74 l 564 74 l 549 0 l 61 0 l 257 924 z "},"M":{"ha":1126,"x_min":58,"x_max":1119,"o":"m 585 293 l 519 293 l 311 796 l 142 0 l 58 0 l 254 924 l 339 924 l 564 379 l 1025 924 l 1119 924 l 924 0 l 839 0 l 1008 796 l 585 293 z "},"N":{"ha":950,"x_min":61,"x_max":940,"o":"m 257 924 l 326 924 l 729 315 l 858 924 l 940 924 l 744 0 l 663 0 l 707 213 l 314 806 l 143 0 l 61 0 l 257 924 z "},"O":{"ha":921,"x_min":97,"x_max":875,"o":"m 579 939 q 798 863 721 939 q 875 622 875 786 q 844 391 875 504 q 751 186 813 278 q 601 40 690 94 q 393 -15 511 -15 q 174 61 251 -15 q 97 301 97 138 q 128 533 97 419 q 221 738 160 646 q 372 884 282 829 q 579 939 461 939 m 399 60 q 563 108 490 60 q 686 238 636 157 q 763 419 736 319 q 789 621 789 519 q 735 807 789 750 q 575 864 681 864 q 410 815 482 864 q 287 685 338 767 q 210 505 236 604 q 183 304 183 406 q 238 117 183 174 q 399 60 293 60 z "},"P":{"ha":796,"x_min":60,"x_max":801,"o":"m 325 851 l 236 438 q 328 424 282 428 q 419 419 374 419 q 560 441 503 419 q 650 499 617 463 q 699 583 683 536 q 715 682 714 631 q 693 785 718 749 q 621 837 668 822 q 507 851 574 851 l 325 851 m 256 924 l 515 924 q 667 902 603 924 q 767 828 732 881 q 800 683 801 775 q 759 513 799 590 q 635 391 719 436 q 417 346 551 346 q 322 350 371 346 q 219 364 272 354 l 143 0 l 60 0 l 256 924 z "},"Q":{"ha":921,"x_min":97,"x_max":875,"o":"m 285 -161 l 299 -93 q 404 -112 346 -93 q 520 -149 463 -131 q 625 -168 578 -168 q 691 -155 661 -168 q 750 -118 721 -142 l 776 -176 q 701 -223 742 -207 q 615 -239 661 -239 q 533 -227 578 -239 q 444 -200 489 -215 q 358 -173 399 -185 q 285 -161 317 -161 m 579 939 q 798 863 721 939 q 875 622 875 786 q 844 391 875 504 q 751 186 813 278 q 601 40 690 94 q 393 -15 511 -15 q 174 61 251 -15 q 97 301 97 138 q 128 533 97 419 q 221 738 160 646 q 372 884 282 829 q 579 939 461 939 m 399 60 q 563 108 490 60 q 686 238 636 157 q 763 419 736 319 q 789 621 789 519 q 735 807 789 750 q 575 864 681 864 q 410 815 482 864 q 287 685 338 767 q 210 505 236 604 q 183 304 183 406 q 238 117 183 174 q 399 60 293 60 z "},"R":{"ha":824,"x_min":60,"x_max":804,"o":"m 256 924 l 526 924 q 734 871 664 924 q 804 708 804 818 q 772 572 804 635 q 684 468 740 510 q 551 413 628 426 q 612 356 589 399 q 649 226 635 313 l 688 0 l 604 0 l 569 207 q 539 320 557 282 q 491 372 521 358 q 413 385 461 385 l 225 385 l 143 0 l 60 0 l 256 924 m 719 703 q 669 815 719 778 q 518 851 619 851 l 324 851 l 240 458 l 432 458 q 589 490 525 458 q 686 577 653 522 q 719 703 719 632 z "},"S":{"ha":686,"x_min":17,"x_max":703,"o":"m 703 913 l 679 844 q 586 861 635 856 q 485 867 538 867 q 306 821 365 867 q 246 706 246 775 q 271 623 246 660 q 335 555 296 586 q 420 492 375 524 q 505 424 465 460 q 569 342 544 388 q 594 236 594 296 q 558 98 594 154 q 451 13 521 42 q 283 -15 382 -15 q 144 -3 210 -15 q 17 32 78 10 l 39 103 q 158 69 99 82 q 285 57 217 57 q 456 103 401 57 q 510 229 510 149 q 485 316 510 278 q 420 388 460 354 q 335 453 381 421 q 251 521 290 485 q 186 601 211 557 q 161 703 161 646 q 199 825 161 772 q 308 908 236 878 q 485 939 381 939 q 597 932 543 939 q 703 913 651 925 z "},"T":{"ha":775,"x_min":147,"x_max":860,"o":"m 164 924 l 860 924 l 844 851 l 539 851 l 358 0 l 275 0 l 456 851 l 147 851 l 164 924 z "},"U":{"ha":904,"x_min":100,"x_max":897,"o":"m 240 924 l 324 924 l 197 329 q 191 190 182 251 q 249 94 200 129 q 397 60 297 60 q 531 69 471 60 q 638 94 590 78 l 814 924 l 897 924 l 710 38 q 553 -2 629 11 q 390 -15 478 -15 q 229 12 290 -15 q 138 87 168 39 q 104 198 108 135 q 115 335 100 261 l 240 924 z "},"V":{"ha":853,"x_min":165,"x_max":922,"o":"m 400 0 l 314 0 l 165 924 l 249 924 l 378 92 q 630 485 508 278 q 839 924 751 692 l 922 924 q 776 598 858 753 q 600 296 694 443 q 400 0 506 149 z "},"W":{"ha":1214,"x_min":178,"x_max":1269,"o":"m 281 0 l 196 0 l 178 924 l 258 924 l 267 101 l 647 731 l 725 731 l 838 96 q 1031 494 944 290 q 1190 924 1118 697 l 1269 924 q 1183 676 1226 792 q 1092 451 1140 560 q 988 231 1044 342 q 863 0 932 121 l 781 0 l 671 644 l 281 0 z "},"X":{"ha":807,"x_min":-29,"x_max":875,"o":"m 282 924 l 454 522 l 469 501 l 685 0 l 599 0 l 413 435 l 397 456 l 196 924 l 282 924 m 392 485 l 429 424 l 64 0 l -29 0 l 392 485 m 476 469 l 438 528 l 781 924 l 875 924 l 476 469 z "},"Y":{"ha":767,"x_min":161,"x_max":842,"o":"m 265 0 l 335 331 l 161 924 l 244 924 l 393 406 q 496 510 443 451 q 599 638 549 569 q 690 778 649 706 q 757 924 732 851 l 842 924 q 731 705 797 813 q 585 503 665 597 q 419 333 506 408 l 349 0 l 265 0 z "},"Z":{"ha":768,"x_min":-19,"x_max":826,"o":"m 194 924 l 826 924 l 813 860 l 103 74 l 657 74 l 642 0 l -19 0 l -7 65 l 703 851 l 179 851 l 194 924 z "},"Æ":{"ha":1247,"x_min":47,"x_max":1300,"o":"m 806 924 l 1300 924 l 1285 851 l 869 851 l 797 514 l 1169 514 l 1154 440 l 782 440 l 728 189 q 742 101 715 129 q 829 74 768 74 l 1138 74 l 1122 0 l 822 0 q 710 21 754 0 q 649 83 665 42 q 644 188 632 125 l 699 440 l 222 440 l 128 0 l 47 0 l 175 604 q 301 855 211 771 q 550 939 392 939 q 704 906 644 939 q 781 806 764 872 l 806 924 m 238 514 l 714 514 l 733 603 q 717 799 761 735 q 551 864 672 864 q 357 799 431 864 q 256 603 283 735 l 238 514 z "},"Œ":{"ha":1299,"x_min":94,"x_max":1350,"o":"m 568 939 q 767 863 697 939 q 838 622 838 786 q 808 391 838 504 q 720 186 778 278 q 578 40 663 94 q 382 -14 493 -14 q 169 63 244 -14 q 94 301 94 139 q 125 533 94 419 q 215 739 156 647 q 364 885 275 831 q 568 939 453 939 m 386 60 q 548 108 476 60 q 669 238 619 157 q 744 419 718 319 q 769 621 769 519 q 717 807 769 750 q 563 864 665 864 q 401 815 472 864 q 281 685 331 767 q 206 505 232 604 q 181 304 181 406 q 233 117 181 174 q 386 60 285 60 m 858 924 l 1350 924 l 1335 851 l 919 851 l 849 515 l 1221 515 l 1207 442 l 835 442 l 779 189 q 794 101 767 129 q 881 74 821 74 l 1189 74 l 1174 0 l 864 0 q 790 11 822 0 q 735 44 757 22 q 705 99 713 67 q 706 175 697 132 l 858 924 z "},"Ł":{"ha":694,"x_min":40,"x_max":597,"o":"m 292 924 l 374 924 l 282 492 l 571 601 l 554 524 l 265 413 l 192 74 l 597 74 l 582 0 l 94 0 l 176 383 l 40 331 l 57 410 l 193 463 l 292 924 z "},"Ø":{"ha":907,"x_min":15,"x_max":942,"o":"m 942 956 l 68 -75 l 15 -36 l 890 996 l 942 956 m 574 939 q 792 863 715 939 q 869 622 869 786 q 838 391 869 504 q 746 186 807 278 q 595 40 685 94 q 388 -14 506 -14 q 169 63 246 -14 q 92 301 92 139 q 123 533 92 419 q 215 739 154 647 q 366 885 276 831 q 574 939 456 939 m 392 58 q 558 107 485 58 q 681 237 631 156 q 758 418 732 318 q 785 621 785 518 q 730 808 785 750 q 568 865 675 865 q 403 817 475 865 q 280 686 331 768 q 203 505 229 604 q 176 304 176 406 q 231 116 176 174 q 392 58 286 58 z "},"Ð":{"ha":914,"x_min":64,"x_max":871,"o":"m 64 443 l 79 514 l 526 514 l 513 443 l 64 443 m 282 924 l 544 924 q 785 847 700 924 q 871 617 871 771 q 853 438 871 528 q 799 267 836 349 q 703 123 761 186 q 563 23 644 60 q 376 -14 482 -14 q 235 -6 308 -14 q 88 21 163 3 l 282 924 m 350 851 l 185 82 q 276 65 226 71 q 381 60 325 60 q 563 109 486 60 q 690 240 640 158 q 763 419 739 321 q 786 617 786 518 q 723 798 786 744 q 536 851 660 851 l 350 851 z "},"Þ":{"ha":788,"x_min":60,"x_max":768,"o":"m 290 689 l 201 275 q 294 261 249 265 q 386 257 340 257 q 526 278 469 257 q 617 338 583 300 q 665 422 650 375 q 682 519 681 469 q 660 623 685 586 q 588 674 635 660 q 474 689 540 689 l 290 689 m 257 924 l 339 924 l 304 761 l 482 761 q 634 740 569 761 q 733 665 699 718 q 767 521 768 613 q 726 351 765 428 q 602 228 686 274 q 383 183 518 183 q 288 188 338 183 q 186 201 239 192 l 143 0 l 60 0 l 257 924 z "},"a":{"ha":818,"x_min":68,"x_max":743,"o":"m 300 -15 q 178 12 231 -15 q 97 95 126 39 q 68 236 68 151 q 115 474 68 368 q 248 643 161 581 q 457 706 335 706 q 574 694 515 706 q 697 661 633 683 l 592 164 q 586 118 586 140 q 604 67 586 83 q 653 51 622 51 q 697 57 674 51 q 743 72 721 63 l 733 7 q 683 -9 707 -3 q 633 -15 658 -15 q 559 5 590 -15 q 517 69 528 25 q 423 11 478 38 q 300 -15 368 -15 m 608 613 q 532 633 571 626 q 451 639 493 639 q 288 584 357 639 q 183 438 219 529 q 146 238 146 347 q 190 97 146 143 q 310 51 233 51 q 412 73 363 51 q 507 133 461 94 l 608 613 z "},"b":{"ha":750,"x_min":50,"x_max":679,"o":"m 258 1014 l 336 1014 l 258 642 q 343 686 294 667 q 449 706 392 706 q 569 678 518 706 q 650 597 621 651 q 679 457 679 542 q 633 217 679 324 q 500 47 586 110 q 293 -15 414 -15 q 174 -3 233 -15 q 50 29 114 8 l 258 1014 m 139 79 q 215 58 175 65 q 296 51 254 51 q 459 107 390 51 q 565 254 528 163 q 601 454 601 346 q 558 594 601 549 q 436 639 514 639 q 335 618 383 639 q 239 558 286 597 l 139 79 z "},"c":{"ha":603,"x_min":68,"x_max":628,"o":"m 628 685 l 606 622 q 533 638 569 633 q 460 642 497 642 q 322 608 381 642 q 223 518 263 575 q 164 388 183 461 q 144 233 144 314 q 191 94 144 140 q 338 49 238 49 q 410 55 369 49 q 494 71 450 61 l 488 7 q 403 -9 442 -3 q 328 -15 364 -15 q 133 47 197 -15 q 68 232 68 108 q 93 415 68 329 q 168 565 118 500 q 291 668 218 631 q 460 706 364 706 q 547 701 504 706 q 628 685 589 696 z "},"d":{"ha":785,"x_min":69,"x_max":775,"o":"m 301 -15 q 181 12 233 -15 q 99 95 128 39 q 69 236 69 151 q 116 474 69 368 q 249 643 163 581 q 458 706 336 706 q 541 699 499 706 q 624 679 583 693 l 696 1014 l 775 1014 l 594 164 q 589 118 589 140 q 606 67 589 83 q 654 51 624 51 q 699 57 675 51 q 744 72 722 63 l 735 7 q 685 -9 710 -3 q 635 -15 660 -15 q 560 5 592 -15 q 519 69 529 25 q 426 11 481 38 q 301 -15 371 -15 m 611 613 q 534 633 574 626 q 454 639 494 639 q 291 584 360 639 q 185 438 222 529 q 149 238 149 347 q 192 97 149 143 q 313 51 236 51 q 414 73 365 51 q 510 133 463 94 l 611 613 z "},"e":{"ha":689,"x_min":64,"x_max":642,"o":"m 143 326 l 153 388 q 211 381 178 385 q 278 376 244 378 q 340 374 313 374 q 503 411 446 374 q 560 525 560 449 q 520 613 560 585 q 419 642 481 642 q 274 591 336 642 q 176 449 211 540 q 142 238 142 358 q 186 102 142 151 q 338 53 231 53 q 444 63 392 53 q 539 83 497 72 l 531 15 q 438 -5 488 6 q 328 -15 389 -15 q 184 13 243 -15 q 94 98 125 42 q 64 238 64 154 q 88 419 64 335 q 158 569 111 504 q 271 669 204 633 q 424 706 338 706 q 582 659 522 706 q 642 529 642 613 q 606 407 642 456 q 502 335 569 358 q 342 311 435 311 q 240 316 297 311 q 143 326 183 321 z "},"f":{"ha":468,"x_min":-139,"x_max":618,"o":"m 96 692 l 203 692 l 224 790 q 322 968 251 918 q 501 1018 393 1018 q 559 1015 529 1018 q 618 1008 589 1013 l 597 946 q 501 954 546 954 q 374 920 426 954 q 303 790 322 886 l 281 692 l 511 692 l 499 628 l 268 628 l 149 68 q 121 -31 136 13 q 79 -113 106 -75 q 9 -190 53 -151 q -104 -272 -35 -228 l -139 -219 q -46 -149 -82 -182 q 13 -82 -10 -115 q 48 -11 35 -49 q 71 74 61 26 l 189 628 l 82 628 l 96 692 z "},"g":{"ha":749,"x_min":15,"x_max":699,"o":"m 301 -11 q 181 16 233 -11 q 99 98 128 43 q 69 235 69 153 q 116 475 69 368 q 249 644 163 582 q 457 706 336 706 q 576 694 517 706 q 699 663 635 683 l 551 -32 q 497 -169 535 -115 q 395 -249 458 -224 q 238 -275 332 -275 q 121 -266 176 -275 q 15 -239 65 -257 l 36 -176 q 133 -202 82 -193 q 242 -211 185 -211 q 401 -165 349 -211 q 472 -39 454 -119 l 493 56 l 496 54 q 410 8 460 28 q 301 -11 360 -11 m 611 613 q 534 633 574 626 q 453 639 494 639 q 290 584 358 639 q 185 438 222 529 q 149 238 149 347 q 193 99 149 144 q 314 54 238 54 q 415 76 367 54 q 510 136 464 97 l 611 613 z "},"h":{"ha":763,"x_min":43,"x_max":699,"o":"m 122 0 l 43 0 l 258 1014 l 336 1014 l 265 678 q 365 699 314 692 q 461 706 415 706 q 592 682 536 706 q 674 604 649 658 q 679 458 699 550 l 582 0 l 503 0 l 600 460 q 599 568 615 529 q 542 624 582 607 q 446 640 501 640 q 347 632 399 640 q 251 611 294 624 l 122 0 z "},"i":{"ha":372,"x_min":57,"x_max":333,"o":"m 190 692 l 268 692 l 154 154 q 156 76 142 100 q 211 51 171 51 q 254 56 233 51 q 296 69 275 60 l 285 3 q 240 -11 263 -7 q 193 -15 217 -15 q 92 24 128 -15 q 75 153 57 64 l 190 692 m 288 961 q 321 951 308 961 q 333 922 333 942 q 314 878 333 893 q 267 863 294 863 q 233 873 246 863 q 221 901 221 883 q 240 946 221 931 q 288 961 260 961 z "},"j":{"ha":313,"x_min":-150,"x_max":333,"o":"m 190 692 l 269 692 l 136 69 q 108 -31 124 13 q 66 -113 93 -75 q -5 -190 39 -151 q -118 -272 -49 -228 l -150 -219 q -57 -149 -93 -182 q 1 -82 -21 -115 q 35 -11 22 -49 q 58 74 49 26 l 190 692 m 288 961 q 321 951 308 961 q 333 922 333 942 q 314 878 333 893 q 267 863 294 863 q 233 873 246 863 q 221 901 221 883 q 240 946 221 931 q 288 961 260 961 z "},"k":{"ha":688,"x_min":43,"x_max":707,"o":"m 258 1014 l 338 1014 l 190 328 l 617 692 l 707 692 l 382 408 q 488 332 451 383 q 542 201 525 281 l 586 0 l 510 0 l 468 182 q 419 300 451 258 q 321 364 386 342 l 174 243 l 122 0 l 43 0 l 258 1014 z "},"l":{"ha":415,"x_min":65,"x_max":340,"o":"m 258 1014 l 336 1014 l 157 169 q 167 78 143 106 q 233 51 190 51 q 290 57 261 51 q 340 69 318 63 l 329 4 q 274 -10 303 -6 q 215 -15 244 -15 q 132 3 168 -15 q 81 63 96 22 q 79 169 65 104 l 258 1014 z "},"m":{"ha":1153,"x_min":43,"x_max":1089,"o":"m 121 0 l 43 0 l 183 660 q 313 694 249 682 q 440 706 376 706 q 573 683 521 706 q 644 607 625 660 q 644 464 663 554 l 546 0 l 467 0 l 565 464 q 552 602 586 564 q 432 640 518 640 q 338 632 385 640 q 251 611 290 624 l 121 0 m 643 586 l 588 633 q 728 688 660 669 q 868 706 797 706 q 999 683 947 706 q 1069 607 1050 660 q 1071 464 1089 554 l 971 0 l 893 0 l 990 464 q 977 602 1011 564 q 857 640 943 640 q 746 625 801 640 q 643 586 690 610 z "},"n":{"ha":763,"x_min":43,"x_max":700,"o":"m 122 0 l 43 0 l 183 660 q 322 694 254 682 q 454 706 390 706 q 590 683 532 706 q 674 606 647 660 q 681 461 700 553 l 582 0 l 503 0 l 600 460 q 599 568 615 529 q 542 624 582 607 q 446 640 501 640 q 347 632 399 640 q 251 611 294 624 l 122 0 z "},"o":{"ha":750,"x_min":65,"x_max":685,"o":"m 439 706 q 621 645 557 706 q 685 465 685 585 q 661 290 685 375 q 591 135 638 204 q 474 26 544 67 q 311 -15 404 -15 q 129 46 193 -15 q 65 226 65 107 q 89 402 65 317 q 159 556 113 488 q 276 665 206 625 q 439 706 346 706 m 313 51 q 438 85 383 51 q 531 176 493 118 q 588 308 568 233 q 607 467 607 383 q 565 597 607 553 q 438 640 522 640 q 312 607 367 640 q 219 516 257 574 q 161 383 181 458 q 142 225 142 308 q 185 95 142 139 q 313 51 228 51 z "},"p":{"ha":750,"x_min":-12,"x_max":682,"o":"m 438 706 q 566 678 511 706 q 651 597 621 651 q 682 457 682 542 q 635 217 682 324 q 503 47 589 110 q 299 -15 418 -15 q 183 -1 240 -15 q 64 38 125 13 l 132 81 q 214 59 172 67 q 299 51 256 51 q 462 107 393 51 q 567 254 531 163 q 604 454 604 346 q 559 594 604 549 q 432 639 514 639 q 344 633 389 639 q 251 613 300 626 l 65 -261 l -12 -261 l 183 663 q 316 694 254 683 q 438 706 378 706 z "},"q":{"ha":749,"x_min":69,"x_max":700,"o":"m 504 -261 l 425 -261 l 490 50 q 406 5 456 25 q 300 -15 357 -15 q 180 13 232 -15 q 99 95 128 40 q 69 235 69 150 q 116 475 69 368 q 249 644 163 582 q 457 706 336 706 q 576 694 517 706 q 700 663 636 683 l 504 -261 m 611 613 q 534 633 574 626 q 453 639 494 639 q 290 584 358 639 q 185 438 222 529 q 149 238 149 347 q 192 97 149 143 q 313 51 236 51 q 414 73 365 51 q 510 133 463 94 l 611 613 z "},"r":{"ha":460,"x_min":43,"x_max":508,"o":"m 508 706 l 494 640 q 360 632 421 640 q 250 610 299 624 l 121 0 l 43 0 l 182 660 q 344 694 264 683 q 508 706 424 706 z "},"s":{"ha":574,"x_min":-4,"x_max":558,"o":"m 558 683 l 538 621 q 457 638 499 632 q 367 643 415 643 q 229 613 274 643 q 185 531 185 582 q 215 458 185 488 q 289 402 244 428 q 378 348 333 376 q 452 279 422 319 q 482 178 482 239 q 453 77 482 121 q 365 9 424 33 q 218 -15 307 -15 q 101 -3 163 -15 q -4 26 39 10 l 19 88 q 115 60 61 72 q 219 49 168 49 q 357 84 314 49 q 400 176 400 119 q 378 243 400 215 q 324 293 357 271 q 253 337 290 315 q 182 384 215 358 q 127 445 149 410 q 106 529 106 481 q 135 624 106 585 q 223 685 164 664 q 368 706 282 706 q 465 700 418 706 q 558 683 513 694 z "},"t":{"ha":479,"x_min":88,"x_max":489,"o":"m 267 851 l 325 851 l 290 692 l 489 692 l 475 628 l 276 628 l 181 171 q 192 79 167 107 q 265 51 218 51 q 323 58 292 51 q 379 71 354 64 l 369 6 q 308 -10 340 -4 q 247 -15 276 -15 q 159 4 197 -15 q 104 65 121 24 q 101 171 88 106 l 199 628 l 92 628 l 106 692 l 213 692 l 267 851 z "},"u":{"ha":797,"x_min":68,"x_max":736,"o":"m 726 7 q 626 -15 678 -15 q 552 5 583 -15 q 511 68 521 25 q 418 10 472 36 q 292 -15 364 -15 q 170 13 224 -15 q 92 99 117 42 q 86 244 68 157 l 182 692 l 261 692 l 164 238 q 167 131 150 172 q 222 72 185 90 q 306 53 260 53 q 408 75 360 53 q 501 136 456 97 l 619 692 l 699 692 l 585 156 q 591 77 574 103 q 646 51 608 51 q 690 57 667 51 q 736 72 714 63 l 726 7 z "},"v":{"ha":678,"x_min":110,"x_max":706,"o":"m 189 692 l 288 78 q 408 264 347 165 q 526 470 469 363 q 626 692 583 578 l 706 692 q 532 340 636 515 q 311 0 428 164 l 225 0 l 110 692 l 189 692 z "},"w":{"ha":1019,"x_min":122,"x_max":1035,"o":"m 621 692 l 701 88 q 840 375 774 221 q 957 692 907 529 l 1035 692 q 951 458 994 569 q 853 235 907 346 q 731 0 800 124 l 649 0 l 568 607 l 229 0 l 138 0 l 122 692 l 201 692 l 208 90 l 543 692 l 621 692 z "},"x":{"ha":653,"x_min":-37,"x_max":682,"o":"m 208 692 l 347 401 l 369 361 l 538 0 l 456 0 l 308 317 l 289 350 l 126 692 l 208 692 m 374 347 l 339 403 l 600 692 l 682 692 l 374 347 m 286 368 l 322 314 l 46 0 l -37 0 l 286 368 z "},"y":{"ha":740,"x_min":8,"x_max":699,"o":"m 296 -10 q 171 18 225 -10 q 92 102 117 46 q 86 243 68 158 l 182 692 l 261 692 l 165 242 q 169 135 151 176 q 224 76 186 94 q 308 57 263 57 q 409 78 361 57 q 503 139 457 100 l 619 692 l 699 692 l 543 -36 q 488 -169 526 -117 q 385 -249 450 -222 q 221 -275 319 -275 q 111 -266 165 -275 q 8 -239 57 -257 l 31 -178 q 128 -205 78 -196 q 225 -214 178 -214 q 351 -192 303 -214 q 425 -130 399 -169 q 464 -39 451 -90 l 489 63 l 500 65 q 415 13 465 36 q 296 -10 364 -10 z "},"z":{"ha":624,"x_min":-26,"x_max":642,"o":"m 131 692 l 642 692 l 631 636 l 89 64 l 519 64 l 506 0 l -26 0 l -15 56 l 528 628 l 117 628 l 131 692 z "},"æ":{"ha":1076,"x_min":22,"x_max":1044,"o":"m 547 328 l 557 388 q 615 381 582 385 q 682 376 647 378 q 744 374 717 374 q 906 411 849 374 q 964 525 964 449 q 924 613 964 585 q 822 642 883 642 q 678 591 740 642 q 581 449 615 540 q 547 238 547 358 q 591 101 547 150 q 742 53 635 53 q 848 63 794 53 q 942 83 901 72 l 933 15 q 842 -4 892 6 q 731 -14 792 -14 q 589 15 647 -14 q 500 99 531 43 q 469 238 469 154 q 493 419 469 335 q 563 569 517 504 q 675 669 608 633 q 826 706 742 706 q 985 659 925 706 q 1044 529 1044 613 q 1008 407 1044 456 q 905 335 972 358 q 744 311 838 311 q 644 317 700 311 q 547 328 588 322 m 481 328 q 399 342 442 338 q 319 346 357 346 q 154 299 211 346 q 97 175 97 253 q 138 78 97 107 q 254 49 178 49 q 383 71 324 49 q 496 124 443 93 l 535 74 q 445 28 490 47 q 353 -3 400 8 q 253 -14 306 -14 q 82 30 142 -14 q 22 171 22 74 q 42 272 22 228 q 101 346 63 315 q 196 392 140 376 q 321 407 251 407 q 403 402 363 407 q 485 389 443 397 l 506 490 q 487 605 522 568 q 361 642 451 642 q 272 637 318 642 q 186 624 226 632 l 192 688 q 278 701 232 696 q 374 706 325 706 q 516 671 468 706 q 569 565 564 636 l 481 328 z "},"œ":{"ha":1201,"x_min":65,"x_max":1158,"o":"m 436 706 q 610 645 549 706 q 672 465 672 585 q 649 290 672 375 q 581 135 626 204 q 467 26 535 67 q 307 -14 399 -14 q 128 46 192 -14 q 65 226 65 106 q 88 402 65 317 q 158 556 111 488 q 274 665 204 625 q 436 706 343 706 m 310 51 q 433 85 379 51 q 525 176 488 118 q 582 308 563 233 q 601 467 601 383 q 559 597 601 553 q 435 640 517 640 q 310 607 365 640 q 218 515 256 574 q 161 383 181 457 q 142 225 142 308 q 184 95 142 139 q 310 51 226 51 m 661 328 l 671 388 q 728 381 696 385 q 796 376 761 378 q 858 374 831 374 q 1020 411 963 374 q 1078 525 1078 449 q 1038 613 1078 585 q 936 642 997 642 q 792 591 854 642 q 694 449 729 540 q 660 238 660 358 q 704 101 660 150 q 854 53 749 53 q 962 63 908 53 q 1056 83 1015 72 l 1047 15 q 956 -4 1006 6 q 844 -14 906 -14 q 704 15 763 -14 q 616 99 646 43 q 586 238 586 154 q 610 419 586 335 q 679 569 633 504 q 790 669 725 633 q 940 706 856 706 q 1099 659 1039 706 q 1158 529 1158 613 q 1122 407 1158 456 q 1019 335 1086 358 q 858 311 951 311 q 758 317 814 311 q 661 328 701 322 z "},"ł":{"ha":440,"x_min":51,"x_max":426,"o":"m 68 483 l 426 615 l 410 544 l 51 411 l 68 483 m 283 1014 l 361 1014 l 181 169 q 191 78 168 106 q 258 51 214 51 q 315 57 286 51 q 365 69 343 63 l 354 4 q 299 -9 328 -4 q 240 -14 269 -14 q 157 5 193 -14 q 106 64 121 24 q 104 169 90 104 l 283 1014 z "},"ø":{"ha":749,"x_min":-6,"x_max":756,"o":"m 47 -106 l -6 -75 l 704 799 l 756 767 l 47 -106 m 440 706 q 622 645 558 706 q 685 465 685 585 q 662 290 685 375 q 592 135 639 204 q 475 26 544 67 q 311 -14 406 -14 q 131 46 194 -14 q 67 226 67 106 q 90 402 67 317 q 160 556 113 488 q 277 665 207 625 q 440 706 347 706 m 314 50 q 440 83 385 50 q 533 175 494 117 q 590 308 571 233 q 610 467 610 383 q 567 597 610 553 q 438 642 524 642 q 312 608 367 642 q 219 517 257 575 q 161 383 181 458 q 142 225 142 308 q 185 94 142 139 q 314 50 229 50 z "},"ð":{"ha":747,"x_min":68,"x_max":782,"o":"m 782 926 l 771 868 l 356 781 l 368 839 l 782 926 m 579 1014 q 658 841 628 942 q 688 608 688 740 q 673 413 688 506 q 628 242 658 319 q 553 106 599 164 q 444 17 507 49 q 301 -14 382 -14 q 130 44 192 -14 q 68 221 68 101 q 91 400 68 314 q 159 554 114 486 q 272 662 204 622 q 428 701 339 701 q 552 674 504 701 q 622 596 600 647 q 614 708 622 651 q 590 820 606 765 q 550 924 574 875 q 497 1014 526 974 l 579 1014 m 593 469 q 572 573 593 536 q 514 624 550 610 q 431 639 478 639 q 326 614 372 639 q 246 547 281 589 q 189 449 211 504 q 156 335 167 394 q 144 217 144 275 q 165 116 144 153 q 223 65 186 79 q 306 50 260 50 q 409 75 363 50 q 490 143 456 100 q 547 240 524 186 q 581 353 569 294 q 593 469 593 413 z "},"þ":{"ha":738,"x_min":-12,"x_max":682,"o":"m 436 706 q 566 678 511 706 q 651 597 621 651 q 682 457 682 542 q 635 217 682 324 q 503 49 589 111 q 299 -14 418 -14 q 183 -1 240 -14 q 64 38 126 13 l 132 81 q 214 59 172 67 q 299 51 256 51 q 462 107 393 51 q 567 254 531 163 q 604 454 604 346 q 559 594 604 549 q 432 639 514 639 q 344 633 389 639 q 251 613 299 626 l 65 -261 l -12 -261 l 258 1014 l 335 1014 l 265 683 q 356 700 314 694 q 436 706 397 706 z "},"ß":{"ha":722,"x_min":-153,"x_max":689,"o":"m 379 482 q 403 560 379 526 q 460 624 426 594 q 528 685 494 654 q 586 753 563 715 q 610 840 610 790 q 579 929 610 893 q 478 965 549 965 q 351 918 397 965 q 288 789 304 871 l 133 69 q 106 -32 121 13 q 63 -114 90 -76 q -8 -190 36 -151 q -121 -272 -51 -228 l -153 -219 q -60 -149 -96 -182 q -1 -82 -24 -115 q 34 -11 21 -49 q 57 74 47 26 l 210 793 q 301 969 233 908 q 482 1029 368 1029 q 637 978 585 1029 q 689 844 689 926 q 665 746 689 788 q 607 672 642 704 q 538 613 572 640 q 479 556 503 585 q 456 490 456 526 q 474 432 456 460 q 519 376 492 404 q 573 319 546 349 q 618 253 600 289 q 636 174 636 218 q 574 37 636 88 q 386 -14 513 -14 q 308 -9 351 -14 q 233 4 265 -4 l 249 65 q 317 53 279 58 q 385 47 354 47 q 513 78 467 47 q 560 169 560 110 q 542 238 560 207 q 497 295 524 268 q 442 349 469 322 q 397 409 415 376 q 379 482 379 442 z "},"ı":{"ha":372,"x_min":57,"x_max":296,"o":"m 190 692 l 268 692 l 153 154 q 156 76 142 100 q 211 51 171 51 q 254 55 233 51 q 296 68 275 58 l 285 3 q 240 -10 263 -7 q 193 -14 217 -14 q 92 24 128 -14 q 75 153 57 63 l 190 692 z "},"ȷ":{"ha":313,"x_min":-150,"x_max":268,"o":"m 190 692 l 268 692 l 136 69 q 108 -32 124 13 q 66 -114 93 -76 q -5 -190 39 -151 q -118 -272 -49 -228 l -150 -219 q -57 -149 -93 -182 q 1 -83 -21 -117 q 37 -12 24 -50 q 60 74 50 26 l 190 692 z "},"Á":{"ha":883,"x_min":47,"x_max":839,"o":"m 207 365 l 129 0 l 47 0 l 175 600 q 247 787 199 711 q 372 901 294 863 q 558 939 450 939 q 701 917 643 939 q 792 851 760 894 q 831 744 824 807 q 821 599 839 681 l 693 0 l 610 0 l 688 365 l 207 365 m 222 438 l 703 438 l 738 603 q 724 795 765 726 q 554 864 682 864 q 258 603 314 864 l 222 438 m 672 1242 l 763 1242 l 575 1018 l 504 1018 l 672 1242 z "},"Â":{"ha":883,"x_min":47,"x_max":839,"o":"m 207 365 l 129 0 l 47 0 l 175 600 q 247 787 199 711 q 372 901 294 863 q 558 939 450 939 q 701 917 643 939 q 792 851 760 894 q 831 744 824 807 q 821 599 839 681 l 693 0 l 610 0 l 688 365 l 207 365 m 222 438 l 703 438 l 738 603 q 724 795 765 726 q 554 864 682 864 q 258 603 314 864 l 222 438 m 603 1242 l 675 1242 l 760 1018 l 690 1018 l 631 1192 l 500 1018 l 422 1018 l 603 1242 z "},"Ä":{"ha":883,"x_min":47,"x_max":839,"o":"m 207 365 l 129 0 l 47 0 l 175 600 q 247 787 199 711 q 372 901 294 863 q 558 939 450 939 q 701 917 643 939 q 792 851 760 894 q 831 744 824 807 q 821 599 839 681 l 693 0 l 610 0 l 688 365 l 207 365 m 222 438 l 703 438 l 738 603 q 724 795 765 726 q 554 864 682 864 q 258 603 314 864 l 222 438 m 524 1188 q 553 1178 543 1188 q 564 1149 564 1168 q 547 1106 564 1122 q 503 1090 531 1090 q 473 1100 483 1090 q 463 1128 463 1110 q 480 1172 463 1156 q 524 1188 497 1188 m 731 1188 q 761 1178 750 1188 q 772 1149 772 1168 q 755 1106 772 1122 q 710 1090 738 1090 q 681 1100 692 1090 q 669 1128 669 1110 q 687 1172 669 1156 q 731 1188 704 1188 z "},"À":{"ha":883,"x_min":47,"x_max":839,"o":"m 207 365 l 129 0 l 47 0 l 175 600 q 247 787 199 711 q 372 901 294 863 q 558 939 450 939 q 701 917 643 939 q 792 851 760 894 q 831 744 824 807 q 821 599 839 681 l 693 0 l 610 0 l 688 365 l 207 365 m 222 438 l 703 438 l 738 603 q 724 795 765 726 q 554 864 682 864 q 258 603 314 864 l 222 438 m 469 1242 l 554 1242 l 625 1018 l 561 1018 l 469 1242 z "},"Å":{"ha":883,"x_min":47,"x_max":839,"o":"m 207 365 l 129 0 l 47 0 l 175 600 q 247 787 199 711 q 372 901 294 863 q 558 939 450 939 q 701 917 643 939 q 792 851 760 894 q 831 744 824 807 q 821 599 839 681 l 693 0 l 610 0 l 688 365 l 207 365 m 222 438 l 703 438 l 738 603 q 724 795 765 726 q 554 864 682 864 q 258 603 314 864 l 222 438 m 599 1063 q 661 1085 636 1063 q 686 1146 686 1107 q 671 1185 686 1174 q 628 1197 656 1197 q 565 1176 590 1197 q 540 1115 540 1154 q 556 1075 540 1088 q 599 1063 572 1063 m 631 1244 q 711 1219 681 1244 q 742 1147 742 1193 q 701 1051 742 1088 q 596 1015 661 1015 q 515 1041 546 1015 q 485 1114 485 1067 q 526 1208 485 1172 q 631 1244 567 1244 z "},"Ã":{"ha":883,"x_min":47,"x_max":839,"o":"m 207 365 l 129 0 l 47 0 l 175 600 q 247 787 199 711 q 372 901 294 863 q 558 939 450 939 q 701 917 643 939 q 792 851 760 894 q 831 744 824 807 q 821 599 839 681 l 693 0 l 610 0 l 688 365 l 207 365 m 222 438 l 703 438 l 738 603 q 724 795 765 726 q 554 864 682 864 q 258 603 314 864 l 222 438 m 464 1069 l 410 1090 q 454 1156 428 1128 q 528 1183 481 1183 q 586 1170 556 1183 q 646 1143 617 1157 q 696 1129 675 1129 q 738 1146 724 1129 q 764 1185 753 1163 l 817 1164 q 772 1097 799 1125 q 699 1069 744 1069 q 641 1083 672 1069 q 581 1111 610 1097 q 532 1125 553 1125 q 490 1108 506 1125 q 464 1069 474 1092 z "},"Ă":{"ha":883,"x_min":47,"x_max":839,"o":"m 207 365 l 129 0 l 47 0 l 175 600 q 247 787 199 711 q 372 901 294 863 q 558 939 450 939 q 701 917 643 939 q 792 851 760 894 q 831 744 824 807 q 821 599 839 681 l 693 0 l 610 0 l 688 365 l 207 365 m 222 438 l 703 438 l 738 603 q 724 795 765 726 q 554 864 682 864 q 258 603 314 864 l 222 438 m 449 1214 l 515 1214 q 528 1127 504 1153 q 608 1101 551 1101 q 701 1127 665 1101 q 750 1214 736 1153 l 817 1214 q 746 1086 799 1128 q 607 1044 693 1044 q 510 1063 550 1044 q 454 1119 471 1082 q 449 1214 438 1157 z "},"Ā":{"ha":883,"x_min":47,"x_max":839,"o":"m 207 365 l 129 0 l 47 0 l 175 600 q 247 787 199 711 q 372 901 294 863 q 558 939 450 939 q 701 917 643 939 q 792 851 760 894 q 831 744 824 807 q 821 599 839 681 l 693 0 l 610 0 l 688 365 l 207 365 m 222 438 l 703 438 l 738 603 q 724 795 765 726 q 554 864 682 864 q 258 603 314 864 l 222 438 m 463 1154 l 778 1154 l 765 1096 l 450 1096 l 463 1154 z "},"Ą":{"ha":883,"x_min":47,"x_max":839,"o":"m 207 365 l 129 0 l 47 0 l 175 600 q 247 787 199 711 q 372 901 294 863 q 558 939 450 939 q 701 917 643 939 q 792 851 760 894 q 831 744 824 807 q 821 599 839 681 l 693 0 l 610 0 l 688 365 l 207 365 m 222 438 l 703 438 l 738 603 q 724 795 765 726 q 554 864 682 864 q 258 603 314 864 l 222 438 m 654 -174 l 651 -224 q 617 -233 636 -229 q 576 -236 597 -236 q 503 -215 531 -236 q 476 -156 476 -194 q 502 -89 476 -121 q 564 -31 528 -57 q 631 11 600 -6 l 693 0 q 628 -39 664 -15 q 567 -90 593 -62 q 542 -144 542 -117 q 555 -175 542 -167 q 590 -183 568 -183 q 623 -181 607 -183 q 654 -174 639 -179 z "},"Ǻ":{"ha":883,"x_min":47,"x_max":839,"o":"m 207 365 l 128 0 l 47 0 l 175 600 q 247 787 199 711 q 373 901 296 863 q 558 939 450 939 q 701 917 643 939 q 792 851 760 894 q 831 745 824 808 q 821 600 839 682 l 693 0 l 610 0 l 688 365 l 207 365 m 222 439 l 703 439 l 739 603 q 724 795 767 726 q 554 864 682 864 q 258 603 317 864 l 222 439 m 599 1051 q 661 1074 636 1051 q 686 1135 686 1096 q 671 1174 686 1163 q 628 1186 656 1186 q 565 1165 590 1186 q 540 1103 540 1143 q 556 1064 540 1076 q 599 1051 572 1051 m 629 1233 q 711 1208 681 1233 q 742 1136 742 1182 q 701 1040 742 1076 q 596 1004 661 1004 q 515 1030 546 1004 q 483 1101 483 1056 q 524 1197 483 1161 q 629 1233 565 1233 m 707 1369 l 797 1369 l 644 1190 l 574 1190 l 707 1369 z "},"Ç":{"ha":739,"x_min":94,"x_max":801,"o":"m 801 917 l 778 842 q 687 858 731 851 q 592 864 643 864 q 413 816 490 864 q 283 686 335 768 q 206 503 232 604 q 179 293 179 401 q 235 117 179 175 q 406 60 292 60 q 515 67 463 60 q 621 85 567 75 l 614 13 q 509 -8 563 0 q 393 -15 456 -15 q 172 63 250 -15 q 94 292 94 140 q 126 531 94 415 q 219 739 157 647 q 376 885 282 831 q 596 939 471 939 q 702 933 653 939 q 801 917 751 926 m 329 -64 l 392 -64 q 406 -111 400 -83 q 413 -165 413 -139 q 379 -250 413 -224 q 289 -276 346 -276 q 244 -273 269 -276 q 201 -262 219 -269 l 221 -211 q 252 -219 233 -217 q 285 -222 271 -222 q 333 -206 317 -222 q 349 -154 349 -190 q 342 -108 349 -132 q 329 -64 336 -85 z "},"Ć":{"ha":739,"x_min":94,"x_max":801,"o":"m 801 917 l 778 842 q 687 858 731 851 q 592 864 643 864 q 413 816 490 864 q 283 686 335 768 q 206 503 232 604 q 179 293 179 401 q 235 117 179 175 q 406 60 292 60 q 515 67 463 60 q 621 85 567 75 l 614 13 q 509 -8 563 0 q 393 -15 456 -15 q 172 63 250 -15 q 94 292 94 140 q 126 531 94 415 q 219 739 157 647 q 376 885 282 831 q 596 939 471 939 q 702 933 653 939 q 801 917 751 926 m 694 1242 l 785 1242 l 597 1018 l 526 1018 l 694 1242 z "},"Č":{"ha":739,"x_min":94,"x_max":824,"o":"m 801 917 l 778 842 q 687 858 731 851 q 592 864 643 864 q 413 816 490 864 q 283 686 335 768 q 206 503 232 604 q 179 293 179 401 q 235 117 179 175 q 406 60 292 60 q 515 67 463 60 q 621 85 567 75 l 614 13 q 509 -8 563 0 q 393 -15 456 -15 q 172 63 250 -15 q 94 292 94 140 q 126 531 94 415 q 219 739 157 647 q 376 885 282 831 q 596 939 471 939 q 702 933 653 939 q 801 917 751 926 m 571 1029 l 488 1253 l 557 1253 l 615 1079 l 747 1253 l 824 1253 l 644 1029 l 571 1029 z "},"Ĉ":{"ha":739,"x_min":94,"x_max":801,"o":"m 801 917 l 778 842 q 687 858 731 851 q 592 864 643 864 q 413 816 490 864 q 283 686 335 768 q 206 503 232 604 q 179 293 179 401 q 235 117 179 175 q 406 60 292 60 q 515 67 463 60 q 621 85 567 75 l 614 13 q 509 -8 563 0 q 393 -15 456 -15 q 172 63 250 -15 q 94 292 94 140 q 126 531 94 415 q 219 739 157 647 q 376 885 282 831 q 596 939 471 939 q 702 933 653 939 q 801 917 751 926 m 622 1242 l 694 1242 l 779 1018 l 710 1018 l 650 1192 l 519 1018 l 442 1018 l 622 1242 z "},"Ċ":{"ha":739,"x_min":94,"x_max":801,"o":"m 801 917 l 778 842 q 687 858 731 851 q 592 864 643 864 q 413 816 490 864 q 283 686 335 768 q 206 503 232 604 q 179 293 179 401 q 235 117 179 175 q 406 60 292 60 q 515 67 463 60 q 621 85 567 75 l 614 13 q 509 -8 563 0 q 393 -15 456 -15 q 172 63 250 -15 q 94 292 94 140 q 126 531 94 415 q 219 739 157 647 q 376 885 282 831 q 596 939 471 939 q 702 933 653 939 q 801 917 751 926 m 646 1188 q 680 1177 668 1188 q 692 1147 692 1167 q 674 1104 692 1119 q 626 1089 656 1089 q 594 1100 606 1089 q 582 1129 582 1111 q 599 1172 582 1157 q 646 1188 617 1188 z "},"Ď":{"ha":890,"x_min":64,"x_max":846,"o":"m 257 924 l 519 924 q 760 847 675 924 q 846 617 846 771 q 828 438 846 528 q 774 267 811 349 q 678 122 736 186 q 538 22 619 58 q 350 -15 457 -15 q 210 -6 282 -15 q 64 21 138 3 l 257 924 m 325 851 l 160 82 q 251 65 201 71 q 356 60 301 60 q 539 109 463 60 q 664 240 615 158 q 736 419 713 321 q 760 617 760 518 q 697 798 760 744 q 511 851 635 851 l 325 851 m 526 1018 l 443 1242 l 513 1242 l 571 1068 l 703 1242 l 779 1242 l 600 1018 l 526 1018 z "},"Đ":{"ha":914,"x_min":64,"x_max":871,"o":"m 64 443 l 79 514 l 526 514 l 513 443 l 64 443 m 282 924 l 544 924 q 785 847 700 924 q 871 617 871 771 q 853 438 871 528 q 799 267 836 349 q 703 123 761 186 q 563 23 644 60 q 376 -14 482 -14 q 235 -6 308 -14 q 88 21 163 3 l 282 924 m 350 851 l 185 82 q 276 65 226 71 q 381 60 325 60 q 563 109 486 60 q 690 240 640 158 q 763 419 739 321 q 786 617 786 518 q 723 798 786 744 q 536 851 660 851 l 350 851 z "},"É":{"ha":699,"x_min":82,"x_max":750,"o":"m 250 924 l 750 924 l 735 851 l 319 851 l 247 515 l 621 515 l 604 442 l 232 442 l 178 189 q 191 101 165 129 q 279 74 217 74 l 589 74 l 574 0 l 265 0 q 156 22 199 0 q 98 85 114 43 q 94 189 82 126 l 250 924 m 626 1242 l 717 1242 l 529 1018 l 458 1018 l 626 1242 z "},"Ê":{"ha":699,"x_min":82,"x_max":750,"o":"m 250 924 l 750 924 l 735 851 l 319 851 l 247 515 l 621 515 l 604 442 l 232 442 l 178 189 q 191 101 165 129 q 279 74 217 74 l 589 74 l 574 0 l 265 0 q 156 22 199 0 q 98 85 114 43 q 94 189 82 126 l 250 924 m 554 1242 l 626 1242 l 711 1018 l 642 1018 l 582 1192 l 451 1018 l 374 1018 l 554 1242 z "},"Ë":{"ha":699,"x_min":82,"x_max":750,"o":"m 250 924 l 750 924 l 735 851 l 319 851 l 247 515 l 621 515 l 604 442 l 232 442 l 178 189 q 191 101 165 129 q 279 74 217 74 l 589 74 l 574 0 l 265 0 q 156 22 199 0 q 98 85 114 43 q 94 189 82 126 l 250 924 m 475 1188 q 505 1178 494 1188 q 515 1149 515 1168 q 499 1106 515 1122 q 454 1090 482 1090 q 424 1100 435 1090 q 414 1128 414 1110 q 431 1172 414 1156 q 475 1188 449 1188 m 682 1188 q 713 1178 701 1188 q 724 1149 724 1168 q 706 1106 724 1122 q 661 1090 689 1090 q 632 1100 643 1090 q 621 1128 621 1110 q 638 1172 621 1156 q 682 1188 656 1188 z "},"È":{"ha":699,"x_min":82,"x_max":750,"o":"m 250 924 l 750 924 l 735 851 l 319 851 l 247 515 l 621 515 l 604 442 l 232 442 l 178 189 q 191 101 165 129 q 279 74 217 74 l 589 74 l 574 0 l 265 0 q 156 22 199 0 q 98 85 114 43 q 94 189 82 126 l 250 924 m 421 1242 l 506 1242 l 576 1018 l 513 1018 l 421 1242 z "},"Ĕ":{"ha":699,"x_min":82,"x_max":768,"o":"m 250 924 l 750 924 l 735 851 l 319 851 l 247 515 l 621 515 l 604 442 l 232 442 l 178 189 q 191 101 165 129 q 279 74 217 74 l 589 74 l 574 0 l 265 0 q 156 22 199 0 q 98 85 114 43 q 94 189 82 126 l 250 924 m 400 1214 l 467 1214 q 479 1127 456 1153 q 560 1101 503 1101 q 652 1127 617 1101 q 701 1214 688 1153 l 768 1214 q 697 1086 750 1128 q 558 1044 644 1044 q 462 1063 501 1044 q 406 1119 422 1082 q 400 1214 389 1157 z "},"Ě":{"ha":699,"x_min":82,"x_max":758,"o":"m 250 924 l 750 924 l 735 851 l 319 851 l 247 515 l 621 515 l 604 442 l 232 442 l 178 189 q 191 101 165 129 q 279 74 217 74 l 589 74 l 574 0 l 265 0 q 156 22 199 0 q 98 85 114 43 q 94 189 82 126 l 250 924 m 506 1018 l 422 1242 l 492 1242 l 550 1068 l 682 1242 l 758 1242 l 579 1018 l 506 1018 z "},"Ė":{"ha":699,"x_min":82,"x_max":750,"o":"m 250 924 l 750 924 l 735 851 l 319 851 l 247 515 l 621 515 l 604 442 l 232 442 l 178 189 q 191 101 165 129 q 279 74 217 74 l 589 74 l 574 0 l 265 0 q 156 22 199 0 q 98 85 114 43 q 94 189 82 126 l 250 924 m 578 1188 q 612 1177 600 1188 q 624 1147 624 1167 q 606 1104 624 1119 q 558 1089 588 1089 q 526 1100 538 1089 q 514 1129 514 1111 q 531 1172 514 1157 q 578 1188 549 1188 z "},"Ē":{"ha":699,"x_min":82,"x_max":750,"o":"m 250 924 l 750 924 l 735 851 l 319 851 l 247 515 l 621 515 l 604 442 l 232 442 l 178 189 q 191 101 165 129 q 279 74 217 74 l 589 74 l 574 0 l 265 0 q 156 22 199 0 q 98 85 114 43 q 94 189 82 126 l 250 924 m 414 1154 l 729 1154 l 717 1096 l 401 1096 l 414 1154 z "},"Ę":{"ha":699,"x_min":82,"x_max":750,"o":"m 250 924 l 750 924 l 735 851 l 319 851 l 247 515 l 621 515 l 604 442 l 232 442 l 178 189 q 191 101 165 129 q 279 74 217 74 l 589 74 l 574 0 l 265 0 q 156 22 199 0 q 98 85 114 43 q 94 189 82 126 l 250 924 m 535 -174 l 532 -224 q 497 -233 517 -229 q 457 -236 478 -236 q 384 -215 411 -236 q 357 -156 357 -194 q 383 -89 357 -121 q 444 -31 408 -57 q 511 11 481 -6 l 574 0 q 509 -39 544 -15 q 448 -90 474 -62 q 422 -144 422 -117 q 435 -175 422 -167 q 471 -183 449 -183 q 503 -181 488 -183 q 535 -174 519 -179 z "},"Ǽ":{"ha":1249,"x_min":47,"x_max":1300,"o":"m 1019 1242 l 1110 1242 l 922 1018 l 851 1018 l 1019 1242 m 806 924 l 1300 924 l 1285 851 l 869 851 l 797 514 l 1169 514 l 1154 440 l 782 440 l 728 189 q 742 101 715 129 q 829 74 768 74 l 1138 74 l 1122 0 l 822 0 q 710 21 754 0 q 649 83 665 42 q 644 188 632 125 l 699 440 l 222 440 l 128 0 l 47 0 l 175 604 q 301 855 211 771 q 550 939 392 939 q 704 906 644 939 q 781 806 764 872 l 806 924 m 238 514 l 714 514 l 733 603 q 717 799 761 735 q 551 864 672 864 q 357 799 431 864 q 256 603 283 735 l 238 514 z "},"Ğ":{"ha":847,"x_min":94,"x_max":860,"o":"m 854 915 l 833 842 q 733 858 786 853 q 619 864 679 864 q 421 817 504 864 q 285 690 338 769 q 206 510 232 610 q 181 304 181 410 q 241 117 181 175 q 428 60 301 60 q 524 65 476 60 q 617 82 571 71 l 689 418 l 464 418 l 479 489 l 785 489 l 685 25 q 558 -4 625 7 q 424 -15 492 -15 q 244 19 318 -15 q 133 124 171 53 q 94 304 94 194 q 126 540 94 426 q 224 744 158 654 q 388 886 289 833 q 621 939 486 939 q 740 933 682 939 q 854 915 799 926 m 492 1214 l 558 1214 q 571 1127 547 1153 q 651 1101 594 1101 q 744 1127 708 1101 q 793 1214 779 1153 l 860 1214 q 789 1086 842 1128 q 650 1044 736 1044 q 553 1063 593 1044 q 497 1119 514 1082 q 492 1214 481 1157 z "},"Ĝ":{"ha":847,"x_min":94,"x_max":854,"o":"m 854 915 l 833 842 q 733 858 786 853 q 619 864 679 864 q 421 817 504 864 q 285 690 338 769 q 206 510 232 610 q 181 304 181 410 q 241 117 181 175 q 428 60 301 60 q 524 65 476 60 q 617 82 571 71 l 689 418 l 464 418 l 479 489 l 785 489 l 685 25 q 558 -4 625 7 q 424 -15 492 -15 q 244 19 318 -15 q 133 124 171 53 q 94 304 94 194 q 126 540 94 426 q 224 744 158 654 q 388 886 289 833 q 621 939 486 939 q 740 933 682 939 q 854 915 799 926 m 646 1242 l 718 1242 l 803 1018 l 733 1018 l 674 1192 l 543 1018 l 465 1018 l 646 1242 z "},"Ģ":{"ha":847,"x_min":94,"x_max":854,"o":"m 854 915 l 833 842 q 733 858 786 853 q 619 864 679 864 q 421 817 504 864 q 285 690 338 769 q 206 510 232 610 q 181 304 181 410 q 241 117 181 175 q 428 60 301 60 q 524 65 476 60 q 617 82 571 71 l 689 418 l 464 418 l 479 489 l 785 489 l 685 25 q 558 -4 625 7 q 424 -15 492 -15 q 244 19 318 -15 q 133 124 171 53 q 94 304 94 194 q 126 540 94 426 q 224 744 158 654 q 388 886 289 833 q 621 939 486 939 q 740 933 682 939 q 854 915 799 926 m 347 -64 l 432 -64 l 269 -261 l 203 -261 l 347 -64 z "},"Ġ":{"ha":847,"x_min":94,"x_max":854,"o":"m 854 915 l 833 842 q 733 858 786 853 q 619 864 679 864 q 421 817 504 864 q 285 690 338 769 q 206 510 232 610 q 181 304 181 410 q 241 117 181 175 q 428 60 301 60 q 524 65 476 60 q 617 82 571 71 l 689 418 l 464 418 l 479 489 l 785 489 l 685 25 q 558 -4 625 7 q 424 -15 492 -15 q 244 19 318 -15 q 133 124 171 53 q 94 304 94 194 q 126 540 94 426 q 224 744 158 654 q 388 886 289 833 q 621 939 486 939 q 740 933 682 939 q 854 915 799 926 m 669 1188 q 703 1177 692 1188 q 715 1147 715 1167 q 697 1104 715 1119 q 650 1089 679 1089 q 617 1100 629 1089 q 606 1129 606 1111 q 623 1172 606 1157 q 669 1188 640 1188 z "},"Ħ":{"ha":951,"x_min":60,"x_max":1026,"o":"m 256 924 l 338 924 l 249 506 l 768 506 l 857 924 l 940 924 l 744 0 l 661 0 l 753 433 l 233 433 l 142 0 l 60 0 l 256 924 m 93 706 l 107 769 l 1026 769 l 1013 706 l 93 706 z "},"Ĥ":{"ha":951,"x_min":60,"x_max":943,"o":"m 256 924 l 339 924 l 253 514 l 774 514 l 860 924 l 943 924 l 747 0 l 664 0 l 757 439 l 238 439 l 143 0 l 60 0 l 256 924 m 640 1242 l 713 1242 l 797 1018 l 728 1018 l 668 1192 l 538 1018 l 460 1018 l 640 1242 z "},"Í":{"ha":347,"x_min":60,"x_max":514,"o":"m 256 924 l 339 924 l 143 0 l 60 0 l 256 924 m 424 1242 l 514 1242 l 326 1018 l 256 1018 l 424 1242 z "},"Î":{"ha":347,"x_min":60,"x_max":500,"o":"m 256 924 l 339 924 l 143 0 l 60 0 l 256 924 m 343 1242 l 415 1242 l 500 1018 l 431 1018 l 371 1192 l 240 1018 l 163 1018 l 343 1242 z "},"Ï":{"ha":347,"x_min":60,"x_max":513,"o":"m 256 924 l 339 924 l 143 0 l 60 0 l 256 924 m 264 1188 q 294 1178 283 1188 q 304 1149 304 1168 q 288 1106 304 1122 q 243 1090 271 1090 q 213 1100 224 1090 q 203 1128 203 1110 q 220 1172 203 1156 q 264 1188 238 1188 m 471 1188 q 501 1178 490 1188 q 513 1149 513 1168 q 495 1106 513 1122 q 450 1090 478 1090 q 421 1100 432 1090 q 410 1128 410 1110 q 427 1172 410 1156 q 471 1188 444 1188 z "},"Ì":{"ha":347,"x_min":60,"x_max":365,"o":"m 256 924 l 339 924 l 143 0 l 60 0 l 256 924 m 210 1242 l 294 1242 l 365 1018 l 301 1018 l 210 1242 z "},"Ĭ":{"ha":347,"x_min":60,"x_max":557,"o":"m 256 924 l 339 924 l 143 0 l 60 0 l 256 924 m 189 1214 l 256 1214 q 268 1127 244 1153 q 349 1101 292 1101 q 441 1127 406 1101 q 490 1214 476 1153 l 557 1214 q 486 1086 539 1128 q 347 1044 433 1044 q 251 1063 290 1044 q 194 1119 211 1082 q 189 1214 178 1157 z "},"İ":{"ha":347,"x_min":60,"x_max":413,"o":"m 256 924 l 339 924 l 143 0 l 60 0 l 256 924 m 367 1188 q 401 1177 389 1188 q 413 1147 413 1167 q 394 1104 413 1119 q 347 1089 376 1089 q 315 1100 326 1089 q 303 1129 303 1111 q 320 1172 303 1157 q 367 1188 338 1188 z "},"Ī":{"ha":347,"x_min":60,"x_max":518,"o":"m 256 924 l 339 924 l 143 0 l 60 0 l 256 924 m 203 1154 l 518 1154 l 506 1096 l 190 1096 l 203 1154 z "},"Į":{"ha":347,"x_min":-74,"x_max":339,"o":"m 256 924 l 339 924 l 143 0 l 60 0 l 256 924 m 104 -174 l 101 -224 q 67 -233 86 -229 q 26 -236 47 -236 q -47 -215 -19 -236 q -74 -156 -74 -194 q -48 -89 -74 -121 q 14 -31 -22 -57 q 81 11 50 -6 l 143 0 q 78 -39 114 -15 q 17 -90 43 -62 q -8 -144 -8 -117 q 5 -175 -8 -167 q 40 -183 18 -183 q 73 -181 57 -183 q 104 -174 89 -179 z "},"Ĩ":{"ha":347,"x_min":60,"x_max":557,"o":"m 256 924 l 339 924 l 143 0 l 60 0 l 256 924 m 204 1069 l 150 1090 q 194 1156 168 1128 q 268 1183 221 1183 q 326 1170 296 1183 q 386 1143 357 1157 q 436 1129 415 1129 q 478 1146 464 1129 q 504 1185 493 1163 l 557 1164 q 512 1097 539 1125 q 439 1069 485 1069 q 381 1083 413 1069 q 322 1111 350 1097 q 272 1125 293 1125 q 230 1108 246 1125 q 204 1069 214 1092 z "},"Ĵ":{"ha":349,"x_min":-165,"x_max":501,"o":"m 257 924 l 340 924 l 164 92 q 134 -6 153 38 q 83 -88 115 -49 q 1 -172 51 -128 q -126 -271 -50 -215 l -165 -211 q -23 -95 -72 -144 q 49 1 26 -46 q 83 106 72 47 l 257 924 m 344 1253 l 417 1253 l 501 1029 l 432 1029 l 372 1203 l 242 1029 l 164 1029 l 344 1253 z "},"Ķ":{"ha":811,"x_min":58,"x_max":881,"o":"m 254 924 l 338 924 l 228 408 l 779 924 l 881 924 l 447 519 q 540 477 504 504 q 599 401 576 450 q 636 272 621 353 l 688 0 l 603 0 l 556 247 q 522 364 542 321 q 470 429 503 407 q 382 461 438 451 l 206 301 l 142 0 l 58 0 l 254 924 m 321 -64 l 406 -64 l 243 -261 l 176 -261 l 321 -64 z "},"Ĺ":{"ha":661,"x_min":61,"x_max":564,"o":"m 257 924 l 340 924 l 160 74 l 564 74 l 549 0 l 61 0 l 257 924 m 465 1253 l 556 1253 l 368 1029 l 297 1029 l 465 1253 z "},"Ľ":{"ha":661,"x_min":61,"x_max":697,"o":"m 257 924 l 340 924 l 160 74 l 564 74 l 549 0 l 61 0 l 257 924 m 611 924 l 697 924 l 528 628 l 461 628 l 611 924 z "},"Ļ":{"ha":661,"x_min":61,"x_max":564,"o":"m 257 924 l 340 924 l 160 74 l 564 74 l 549 0 l 61 0 l 257 924 m 263 -64 l 347 -64 l 185 -261 l 118 -261 l 263 -64 z "},"Ŀ":{"ha":661,"x_min":61,"x_max":593,"o":"m 257 924 l 340 924 l 160 74 l 564 74 l 549 0 l 61 0 l 257 924 m 549 522 q 581 512 569 522 q 593 482 593 501 q 576 439 593 454 q 529 424 558 424 q 495 435 507 424 q 483 464 483 446 q 501 507 483 492 q 549 522 519 522 z "},"Ñ":{"ha":950,"x_min":61,"x_max":940,"o":"m 257 924 l 326 924 l 729 315 l 858 924 l 940 924 l 744 0 l 663 0 l 707 213 l 314 806 l 143 0 l 61 0 l 257 924 m 500 1069 l 446 1090 q 490 1156 464 1128 q 564 1183 517 1183 q 622 1170 592 1183 q 682 1143 653 1157 q 732 1129 711 1129 q 774 1146 760 1129 q 800 1185 789 1163 l 853 1164 q 808 1097 835 1125 q 735 1069 781 1069 q 677 1083 708 1069 q 617 1111 646 1097 q 568 1125 589 1125 q 526 1108 542 1125 q 500 1069 510 1092 z "},"Ń":{"ha":950,"x_min":61,"x_max":940,"o":"m 257 924 l 326 924 l 729 315 l 858 924 l 940 924 l 744 0 l 663 0 l 707 213 l 314 806 l 143 0 l 61 0 l 257 924 m 711 1242 l 801 1242 l 614 1018 l 543 1018 l 711 1242 z "},"Ň":{"ha":950,"x_min":61,"x_max":940,"o":"m 257 924 l 326 924 l 729 315 l 858 924 l 940 924 l 744 0 l 663 0 l 707 213 l 314 806 l 143 0 l 61 0 l 257 924 m 590 1018 l 507 1242 l 576 1242 l 635 1068 l 767 1242 l 843 1242 l 664 1018 l 590 1018 z "},"Ņ":{"ha":950,"x_min":61,"x_max":940,"o":"m 257 924 l 326 924 l 729 315 l 858 924 l 940 924 l 744 0 l 663 0 l 707 213 l 314 806 l 143 0 l 61 0 l 257 924 m 357 -64 l 442 -64 l 279 -261 l 213 -261 l 357 -64 z "},"Ŋ":{"ha":950,"x_min":60,"x_max":938,"o":"m 256 924 l 328 924 l 728 321 l 856 924 l 938 924 l 797 257 l 714 257 l 704 210 l 311 806 l 140 0 l 60 0 l 256 924 m 856 924 l 938 924 l 761 92 q 732 -6 750 38 q 682 -88 714 -49 q 599 -172 650 -128 q 471 -271 549 -215 l 433 -211 q 547 -122 503 -161 q 618 -47 592 -82 q 659 25 644 -11 q 682 104 674 61 l 856 924 z "},"Ó":{"ha":921,"x_min":97,"x_max":875,"o":"m 579 939 q 798 863 721 939 q 875 622 875 786 q 844 391 875 504 q 751 186 813 278 q 601 40 690 94 q 393 -15 511 -15 q 174 61 251 -15 q 97 301 97 138 q 128 533 97 419 q 221 738 160 646 q 372 884 282 829 q 579 939 461 939 m 399 60 q 563 108 490 60 q 686 238 636 157 q 763 419 736 319 q 789 621 789 519 q 735 807 789 750 q 575 864 681 864 q 410 815 482 864 q 287 685 338 767 q 210 505 236 604 q 183 304 183 406 q 238 117 183 174 q 399 60 293 60 m 694 1242 l 785 1242 l 597 1018 l 526 1018 l 694 1242 z "},"Ô":{"ha":921,"x_min":97,"x_max":875,"o":"m 579 939 q 798 863 721 939 q 875 622 875 786 q 844 391 875 504 q 751 186 813 278 q 601 40 690 94 q 393 -15 511 -15 q 174 61 251 -15 q 97 301 97 138 q 128 533 97 419 q 221 738 160 646 q 372 884 282 829 q 579 939 461 939 m 399 60 q 563 108 490 60 q 686 238 636 157 q 763 419 736 319 q 789 621 789 519 q 735 807 789 750 q 575 864 681 864 q 410 815 482 864 q 287 685 338 767 q 210 505 236 604 q 183 304 183 406 q 238 117 183 174 q 399 60 293 60 m 622 1242 l 694 1242 l 779 1018 l 710 1018 l 650 1192 l 519 1018 l 442 1018 l 622 1242 z "},"Ö":{"ha":921,"x_min":97,"x_max":875,"o":"m 579 939 q 798 863 721 939 q 875 622 875 786 q 844 391 875 504 q 751 186 813 278 q 601 40 690 94 q 393 -15 511 -15 q 174 61 251 -15 q 97 301 97 138 q 128 533 97 419 q 221 738 160 646 q 372 884 282 829 q 579 939 461 939 m 399 60 q 563 108 490 60 q 686 238 636 157 q 763 419 736 319 q 789 621 789 519 q 735 807 789 750 q 575 864 681 864 q 410 815 482 864 q 287 685 338 767 q 210 505 236 604 q 183 304 183 406 q 238 117 183 174 q 399 60 293 60 m 543 1188 q 573 1178 563 1188 q 583 1149 583 1168 q 567 1106 583 1122 q 522 1090 550 1090 q 492 1100 503 1090 q 482 1128 482 1110 q 499 1172 482 1156 q 543 1188 517 1188 m 750 1188 q 781 1178 769 1188 q 792 1149 792 1168 q 774 1106 792 1122 q 729 1090 757 1090 q 700 1100 711 1090 q 689 1128 689 1110 q 706 1172 689 1156 q 750 1188 724 1188 z "},"Ò":{"ha":921,"x_min":97,"x_max":875,"o":"m 579 939 q 798 863 721 939 q 875 622 875 786 q 844 391 875 504 q 751 186 813 278 q 601 40 690 94 q 393 -15 511 -15 q 174 61 251 -15 q 97 301 97 138 q 128 533 97 419 q 221 738 160 646 q 372 884 282 829 q 579 939 461 939 m 399 60 q 563 108 490 60 q 686 238 636 157 q 763 419 736 319 q 789 621 789 519 q 735 807 789 750 q 575 864 681 864 q 410 815 482 864 q 287 685 338 767 q 210 505 236 604 q 183 304 183 406 q 238 117 183 174 q 399 60 293 60 m 489 1242 l 574 1242 l 644 1018 l 581 1018 l 489 1242 z "},"Õ":{"ha":921,"x_min":97,"x_max":875,"o":"m 579 939 q 798 863 721 939 q 875 622 875 786 q 844 391 875 504 q 751 186 813 278 q 601 40 690 94 q 393 -15 511 -15 q 174 61 251 -15 q 97 301 97 138 q 128 533 97 419 q 221 738 160 646 q 372 884 282 829 q 579 939 461 939 m 399 60 q 563 108 490 60 q 686 238 636 157 q 763 419 736 319 q 789 621 789 519 q 735 807 789 750 q 575 864 681 864 q 410 815 482 864 q 287 685 338 767 q 210 505 236 604 q 183 304 183 406 q 238 117 183 174 q 399 60 293 60 m 483 1069 l 429 1090 q 474 1156 447 1128 q 547 1183 500 1183 q 606 1170 575 1183 q 665 1143 636 1157 q 715 1129 694 1129 q 758 1146 743 1129 q 783 1185 772 1163 l 836 1164 q 791 1097 818 1125 q 718 1069 764 1069 q 660 1083 692 1069 q 601 1111 629 1097 q 551 1125 572 1125 q 509 1108 525 1125 q 483 1069 493 1092 z "},"Ŏ":{"ha":921,"x_min":97,"x_max":875,"o":"m 579 939 q 798 863 721 939 q 875 622 875 786 q 844 391 875 504 q 751 186 813 278 q 601 40 690 94 q 393 -15 511 -15 q 174 61 251 -15 q 97 301 97 138 q 128 533 97 419 q 221 738 160 646 q 372 884 282 829 q 579 939 461 939 m 399 60 q 563 108 490 60 q 686 238 636 157 q 763 419 736 319 q 789 621 789 519 q 735 807 789 750 q 575 864 681 864 q 410 815 482 864 q 287 685 338 767 q 210 505 236 604 q 183 304 183 406 q 238 117 183 174 q 399 60 293 60 m 468 1214 l 535 1214 q 547 1127 524 1153 q 628 1101 571 1101 q 720 1127 685 1101 q 769 1214 756 1153 l 836 1214 q 765 1086 818 1128 q 626 1044 713 1044 q 530 1063 569 1044 q 474 1119 490 1082 q 468 1214 457 1157 z "},"Ő":{"ha":921,"x_min":97,"x_max":875,"o":"m 579 939 q 798 863 721 939 q 875 622 875 786 q 844 391 875 504 q 751 186 813 278 q 601 40 690 94 q 393 -15 511 -15 q 174 61 251 -15 q 97 301 97 138 q 128 533 97 419 q 221 738 160 646 q 372 884 282 829 q 579 939 461 939 m 399 60 q 563 108 490 60 q 686 238 636 157 q 763 419 736 319 q 789 621 789 519 q 735 807 789 750 q 575 864 681 864 q 410 815 482 864 q 287 685 338 767 q 210 505 236 604 q 183 304 183 406 q 238 117 183 174 q 399 60 293 60 m 572 1242 l 647 1242 l 514 1018 l 454 1018 l 572 1242 m 746 1242 l 824 1242 l 671 1018 l 610 1018 l 746 1242 z "},"Ō":{"ha":921,"x_min":97,"x_max":875,"o":"m 579 939 q 798 863 721 939 q 875 622 875 786 q 844 391 875 504 q 751 186 813 278 q 601 40 690 94 q 393 -15 511 -15 q 174 61 251 -15 q 97 301 97 138 q 128 533 97 419 q 221 738 160 646 q 372 884 282 829 q 579 939 461 939 m 399 60 q 563 108 490 60 q 686 238 636 157 q 763 419 736 319 q 789 621 789 519 q 735 807 789 750 q 575 864 681 864 q 410 815 482 864 q 287 685 338 767 q 210 505 236 604 q 183 304 183 406 q 238 117 183 174 q 399 60 293 60 m 482 1154 l 797 1154 l 785 1096 l 469 1096 l 482 1154 z "},"Ǿ":{"ha":921,"x_min":15,"x_max":942,"o":"m 942 956 l 68 -75 l 15 -36 l 890 996 l 942 956 m 574 939 q 792 863 715 939 q 869 622 869 786 q 838 391 869 504 q 746 186 807 278 q 595 40 685 94 q 388 -14 506 -14 q 169 63 246 -14 q 92 301 92 139 q 123 533 92 419 q 215 739 154 647 q 366 885 276 831 q 574 939 456 939 m 392 58 q 558 107 485 58 q 681 237 631 156 q 758 418 732 318 q 785 621 785 518 q 730 808 785 750 q 568 865 675 865 q 403 817 475 865 q 280 686 331 768 q 203 505 229 604 q 176 304 176 406 q 231 116 176 174 q 392 58 286 58 m 694 1242 l 785 1242 l 597 1018 l 526 1018 l 694 1242 z "},"Ŕ":{"ha":824,"x_min":60,"x_max":804,"o":"m 256 924 l 526 924 q 734 871 664 924 q 804 708 804 818 q 772 572 804 635 q 684 468 740 510 q 551 413 628 426 q 612 356 589 399 q 649 226 635 313 l 688 0 l 604 0 l 569 207 q 539 320 557 282 q 491 372 521 358 q 413 385 461 385 l 225 385 l 143 0 l 60 0 l 256 924 m 719 703 q 669 815 719 778 q 518 851 619 851 l 324 851 l 240 458 l 432 458 q 589 490 525 458 q 686 577 653 522 q 719 703 719 632 m 661 1242 l 751 1242 l 564 1018 l 493 1018 l 661 1242 z "},"Ř":{"ha":824,"x_min":60,"x_max":804,"o":"m 256 924 l 526 924 q 734 871 664 924 q 804 708 804 818 q 772 572 804 635 q 684 468 740 510 q 551 413 628 426 q 612 356 589 399 q 649 226 635 313 l 688 0 l 604 0 l 569 207 q 539 320 557 282 q 491 372 521 358 q 413 385 461 385 l 225 385 l 143 0 l 60 0 l 256 924 m 719 703 q 669 815 719 778 q 518 851 619 851 l 324 851 l 240 458 l 432 458 q 589 490 525 458 q 686 577 653 522 q 719 703 719 632 m 524 1018 l 440 1242 l 510 1242 l 568 1068 l 700 1242 l 776 1242 l 597 1018 l 524 1018 z "},"Ŗ":{"ha":824,"x_min":60,"x_max":804,"o":"m 256 924 l 526 924 q 734 871 664 924 q 804 708 804 818 q 772 572 804 635 q 684 468 740 510 q 551 413 628 426 q 612 356 589 399 q 649 226 635 313 l 688 0 l 604 0 l 569 207 q 539 320 557 282 q 491 372 521 358 q 413 385 461 385 l 225 385 l 143 0 l 60 0 l 256 924 m 719 703 q 669 815 719 778 q 518 851 619 851 l 324 851 l 240 458 l 432 458 q 589 490 525 458 q 686 577 653 522 q 719 703 719 632 m 317 -64 l 401 -64 l 239 -261 l 172 -261 l 317 -64 z "},"Š":{"ha":686,"x_min":17,"x_max":736,"o":"m 703 913 l 679 844 q 586 861 635 856 q 485 867 538 867 q 306 821 365 867 q 246 706 246 775 q 271 623 246 660 q 335 555 296 586 q 420 492 375 524 q 505 424 465 460 q 569 342 544 388 q 594 236 594 296 q 558 98 594 154 q 451 13 521 42 q 283 -15 382 -15 q 144 -3 210 -15 q 17 32 78 10 l 39 103 q 158 69 99 82 q 285 57 217 57 q 456 103 401 57 q 510 229 510 149 q 485 316 510 278 q 420 388 460 354 q 335 453 381 421 q 251 521 290 485 q 186 601 211 557 q 161 703 161 646 q 199 825 161 772 q 308 908 236 878 q 485 939 381 939 q 597 932 543 939 q 703 913 651 925 m 483 1018 l 400 1242 l 469 1242 l 528 1068 l 660 1242 l 736 1242 l 557 1018 l 483 1018 z "},"Ś":{"ha":686,"x_min":17,"x_max":703,"o":"m 703 913 l 679 844 q 586 861 635 856 q 485 867 538 867 q 306 821 365 867 q 246 706 246 775 q 271 623 246 660 q 335 555 296 586 q 420 492 375 524 q 505 424 465 460 q 569 342 544 388 q 594 236 594 296 q 558 98 594 154 q 451 13 521 42 q 283 -15 382 -15 q 144 -3 210 -15 q 17 32 78 10 l 39 103 q 158 69 99 82 q 285 57 217 57 q 456 103 401 57 q 510 229 510 149 q 485 316 510 278 q 420 388 460 354 q 335 453 381 421 q 251 521 290 485 q 186 601 211 557 q 161 703 161 646 q 199 825 161 772 q 308 908 236 878 q 485 939 381 939 q 597 932 543 939 q 703 913 651 925 m 604 1242 l 694 1242 l 507 1018 l 436 1018 l 604 1242 z "},"Ş":{"ha":686,"x_min":17,"x_max":703,"o":"m 703 913 l 679 844 q 586 861 635 856 q 485 867 538 867 q 306 821 365 867 q 246 706 246 775 q 271 623 246 660 q 335 555 296 586 q 420 492 375 524 q 505 424 465 460 q 569 342 544 388 q 594 236 594 296 q 558 98 594 154 q 451 13 521 42 q 283 -15 382 -15 q 144 -3 210 -15 q 17 32 78 10 l 39 103 q 158 69 99 82 q 285 57 217 57 q 456 103 401 57 q 510 229 510 149 q 485 316 510 278 q 420 388 460 354 q 335 453 381 421 q 251 521 290 485 q 186 601 211 557 q 161 703 161 646 q 199 825 161 772 q 308 908 236 878 q 485 939 381 939 q 597 932 543 939 q 703 913 651 925 m 240 -62 l 303 -62 q 317 -110 311 -82 q 324 -164 324 -137 q 290 -249 324 -222 q 200 -275 257 -275 q 156 -272 181 -275 q 113 -261 131 -268 l 132 -210 q 163 -218 144 -215 q 196 -221 182 -221 q 244 -205 228 -221 q 260 -153 260 -189 q 253 -107 260 -131 q 240 -62 247 -83 z "},"Ŝ":{"ha":686,"x_min":17,"x_max":703,"o":"m 703 913 l 679 844 q 586 861 635 856 q 485 867 538 867 q 306 821 365 867 q 246 706 246 775 q 271 623 246 660 q 335 555 296 586 q 420 492 375 524 q 505 424 465 460 q 569 342 544 388 q 594 236 594 296 q 558 98 594 154 q 451 13 521 42 q 283 -15 382 -15 q 144 -3 210 -15 q 17 32 78 10 l 39 103 q 158 69 99 82 q 285 57 217 57 q 456 103 401 57 q 510 229 510 149 q 485 316 510 278 q 420 388 460 354 q 335 453 381 421 q 251 521 290 485 q 186 601 211 557 q 161 703 161 646 q 199 825 161 772 q 308 908 236 878 q 485 939 381 939 q 597 932 543 939 q 703 913 651 925 m 532 1242 l 604 1242 l 689 1018 l 619 1018 l 560 1192 l 429 1018 l 351 1018 l 532 1242 z "},"Ș":{"ha":686,"x_min":17,"x_max":703,"o":"m 703 913 l 679 844 q 586 861 635 856 q 485 867 538 867 q 306 821 365 867 q 246 706 246 775 q 271 623 246 660 q 335 555 296 586 q 420 492 375 524 q 505 424 465 460 q 569 342 544 388 q 594 236 594 296 q 558 98 594 154 q 451 13 521 42 q 283 -15 382 -15 q 144 -3 210 -15 q 17 32 78 10 l 39 103 q 158 69 99 82 q 285 57 217 57 q 456 103 401 57 q 510 229 510 149 q 485 316 510 278 q 420 388 460 354 q 335 453 381 421 q 251 521 290 485 q 186 601 211 557 q 161 703 161 646 q 199 825 161 772 q 308 908 236 878 q 485 939 381 939 q 597 932 543 939 q 703 913 651 925 m 215 -64 l 300 -64 l 138 -261 l 71 -261 l 215 -64 z "},"Ţ":{"ha":775,"x_min":108,"x_max":860,"o":"m 164 924 l 860 924 l 844 851 l 539 851 l 358 0 l 275 0 l 456 851 l 147 851 l 164 924 m 253 -64 l 338 -64 l 175 -261 l 108 -261 l 253 -64 z "},"Ŧ":{"ha":775,"x_min":110,"x_max":860,"o":"m 164 924 l 860 924 l 844 851 l 540 851 l 360 0 l 271 0 l 451 851 l 147 851 l 164 924 m 706 436 l 110 436 l 125 504 l 719 504 l 706 436 z "},"Ť":{"ha":775,"x_min":147,"x_max":860,"o":"m 164 924 l 860 924 l 844 851 l 539 851 l 358 0 l 275 0 l 456 851 l 147 851 l 164 924 m 510 1031 l 426 1254 l 496 1254 l 554 1081 l 686 1254 l 763 1254 l 583 1031 l 510 1031 z "},"Ú":{"ha":904,"x_min":100,"x_max":897,"o":"m 240 924 l 324 924 l 197 329 q 191 190 182 251 q 249 94 200 129 q 397 60 297 60 q 531 69 471 60 q 638 94 590 78 l 814 924 l 897 924 l 710 38 q 553 -2 629 11 q 390 -15 478 -15 q 229 12 290 -15 q 138 87 168 39 q 104 198 108 135 q 115 335 100 261 l 240 924 m 686 1242 l 776 1242 l 589 1018 l 518 1018 l 686 1242 z "},"Û":{"ha":904,"x_min":100,"x_max":897,"o":"m 240 924 l 324 924 l 197 329 q 191 190 182 251 q 249 94 200 129 q 397 60 297 60 q 531 69 471 60 q 638 94 590 78 l 814 924 l 897 924 l 710 38 q 553 -2 629 11 q 390 -15 478 -15 q 229 12 290 -15 q 138 87 168 39 q 104 198 108 135 q 115 335 100 261 l 240 924 m 614 1242 l 686 1242 l 771 1018 l 701 1018 l 642 1192 l 511 1018 l 433 1018 l 614 1242 z "},"Ü":{"ha":904,"x_min":100,"x_max":897,"o":"m 240 924 l 324 924 l 197 329 q 191 190 182 251 q 249 94 200 129 q 397 60 297 60 q 531 69 471 60 q 638 94 590 78 l 814 924 l 897 924 l 710 38 q 553 -2 629 11 q 390 -15 478 -15 q 229 12 290 -15 q 138 87 168 39 q 104 198 108 135 q 115 335 100 261 l 240 924 m 535 1188 q 565 1178 554 1188 q 575 1149 575 1168 q 558 1106 575 1122 q 514 1090 542 1090 q 484 1100 494 1090 q 474 1128 474 1110 q 491 1172 474 1156 q 535 1188 508 1188 m 742 1188 q 772 1178 761 1188 q 783 1149 783 1168 q 766 1106 783 1122 q 721 1090 749 1090 q 692 1100 703 1090 q 681 1128 681 1110 q 698 1172 681 1156 q 742 1188 715 1188 z "},"Ù":{"ha":904,"x_min":100,"x_max":897,"o":"m 240 924 l 324 924 l 197 329 q 191 190 182 251 q 249 94 200 129 q 397 60 297 60 q 531 69 471 60 q 638 94 590 78 l 814 924 l 897 924 l 710 38 q 553 -2 629 11 q 390 -15 478 -15 q 229 12 290 -15 q 138 87 168 39 q 104 198 108 135 q 115 335 100 261 l 240 924 m 481 1242 l 565 1242 l 636 1018 l 572 1018 l 481 1242 z "},"Ŭ":{"ha":904,"x_min":100,"x_max":897,"o":"m 240 924 l 324 924 l 197 329 q 191 190 182 251 q 249 94 200 129 q 397 60 297 60 q 531 69 471 60 q 638 94 590 78 l 814 924 l 897 924 l 710 38 q 553 -2 629 11 q 390 -15 478 -15 q 229 12 290 -15 q 138 87 168 39 q 104 198 108 135 q 115 335 100 261 l 240 924 m 460 1214 l 526 1214 q 539 1127 515 1153 q 619 1101 563 1101 q 712 1127 676 1101 q 761 1214 747 1153 l 828 1214 q 757 1086 810 1128 q 618 1044 704 1044 q 522 1063 561 1044 q 465 1119 482 1082 q 460 1214 449 1157 z "},"Ű":{"ha":904,"x_min":100,"x_max":897,"o":"m 240 924 l 324 924 l 197 329 q 191 190 182 251 q 249 94 200 129 q 397 60 297 60 q 531 69 471 60 q 638 94 590 78 l 814 924 l 897 924 l 710 38 q 553 -2 629 11 q 390 -15 478 -15 q 229 12 290 -15 q 138 87 168 39 q 104 198 108 135 q 115 335 100 261 l 240 924 m 564 1242 l 639 1242 l 506 1018 l 446 1018 l 564 1242 m 738 1242 l 815 1242 l 663 1018 l 601 1018 l 738 1242 z "},"Ū":{"ha":904,"x_min":100,"x_max":897,"o":"m 240 924 l 324 924 l 197 329 q 191 190 182 251 q 249 94 200 129 q 397 60 297 60 q 531 69 471 60 q 638 94 590 78 l 814 924 l 897 924 l 710 38 q 553 -2 629 11 q 390 -15 478 -15 q 229 12 290 -15 q 138 87 168 39 q 104 198 108 135 q 115 335 100 261 l 240 924 m 474 1154 l 789 1154 l 776 1096 l 461 1096 l 474 1154 z "},"Ų":{"ha":904,"x_min":100,"x_max":897,"o":"m 240 924 l 324 924 l 199 329 q 191 190 182 251 q 249 94 200 129 q 397 60 297 60 q 531 69 471 60 q 638 94 590 78 l 814 924 l 897 924 l 710 38 q 553 -1 629 11 q 390 -14 478 -14 q 229 13 290 -14 q 138 87 168 39 q 104 198 108 135 q 115 335 100 261 l 240 924 m 664 -174 l 661 -224 q 626 -233 646 -229 q 586 -236 606 -236 q 513 -215 540 -236 q 485 -156 485 -194 q 511 -76 485 -114 q 575 -8 538 -39 q 644 42 613 22 l 710 38 q 640 -12 678 17 q 577 -75 603 -42 q 551 -144 551 -108 q 565 -175 551 -167 q 600 -183 578 -183 q 664 -174 635 -183 z "},"Ů":{"ha":904,"x_min":100,"x_max":897,"o":"m 240 924 l 324 924 l 197 329 q 191 190 182 251 q 249 94 200 129 q 397 60 297 60 q 531 69 471 60 q 638 94 590 78 l 814 924 l 897 924 l 710 38 q 553 -2 629 11 q 390 -15 478 -15 q 229 12 290 -15 q 138 87 168 39 q 104 198 108 135 q 115 335 100 261 l 240 924 m 610 1063 q 672 1085 647 1063 q 697 1146 697 1107 q 682 1185 697 1174 q 639 1197 667 1197 q 576 1176 601 1197 q 551 1115 551 1154 q 567 1075 551 1088 q 610 1063 583 1063 m 642 1244 q 722 1219 692 1244 q 753 1147 753 1193 q 713 1051 753 1088 q 607 1015 672 1015 q 526 1041 557 1015 q 496 1114 496 1067 q 537 1208 496 1172 q 642 1244 578 1244 z "},"Ũ":{"ha":904,"x_min":100,"x_max":897,"o":"m 240 924 l 324 924 l 197 329 q 191 190 182 251 q 249 94 200 129 q 397 60 297 60 q 531 69 471 60 q 638 94 590 78 l 814 924 l 897 924 l 710 38 q 553 -2 629 11 q 390 -15 478 -15 q 229 12 290 -15 q 138 87 168 39 q 104 198 108 135 q 115 335 100 261 l 240 924 m 475 1069 l 421 1090 q 465 1156 439 1128 q 539 1183 492 1183 q 597 1170 567 1183 q 657 1143 628 1157 q 707 1129 686 1129 q 749 1146 735 1129 q 775 1185 764 1163 l 828 1164 q 783 1097 810 1125 q 710 1069 756 1069 q 652 1083 683 1069 q 592 1111 621 1097 q 543 1125 564 1125 q 501 1108 517 1125 q 475 1069 485 1092 z "},"Ẃ":{"ha":1214,"x_min":178,"x_max":1269,"o":"m 281 0 l 196 0 l 178 924 l 258 924 l 267 101 l 647 731 l 725 731 l 838 96 q 1031 494 944 290 q 1190 924 1118 697 l 1269 924 q 1183 676 1226 792 q 1092 451 1140 560 q 988 231 1044 342 q 863 0 932 121 l 781 0 l 671 644 l 281 0 m 842 1242 l 932 1242 l 744 1018 l 674 1018 l 842 1242 z "},"Ŵ":{"ha":1214,"x_min":178,"x_max":1269,"o":"m 281 0 l 196 0 l 178 924 l 258 924 l 267 101 l 647 731 l 725 731 l 838 96 q 1031 494 944 290 q 1190 924 1118 697 l 1269 924 q 1183 676 1226 792 q 1092 451 1140 560 q 988 231 1044 342 q 863 0 932 121 l 781 0 l 671 644 l 281 0 m 769 1242 l 842 1242 l 926 1018 l 857 1018 l 797 1192 l 667 1018 l 589 1018 l 769 1242 z "},"Ẅ":{"ha":1214,"x_min":178,"x_max":1269,"o":"m 281 0 l 196 0 l 178 924 l 258 924 l 267 101 l 647 731 l 725 731 l 838 96 q 1031 494 944 290 q 1190 924 1118 697 l 1269 924 q 1183 676 1226 792 q 1092 451 1140 560 q 988 231 1044 342 q 863 0 932 121 l 781 0 l 671 644 l 281 0 m 690 1188 q 720 1178 710 1188 q 731 1149 731 1168 q 714 1106 731 1122 q 669 1090 697 1090 q 640 1100 650 1090 q 629 1128 629 1110 q 647 1172 629 1156 q 690 1188 664 1188 m 897 1188 q 928 1178 917 1188 q 939 1149 939 1168 q 922 1106 939 1122 q 876 1090 904 1090 q 847 1100 858 1090 q 836 1128 836 1110 q 853 1172 836 1156 q 897 1188 871 1188 z "},"Ẁ":{"ha":1214,"x_min":178,"x_max":1269,"o":"m 281 0 l 196 0 l 178 924 l 258 924 l 267 101 l 647 731 l 725 731 l 838 96 q 1031 494 944 290 q 1190 924 1118 697 l 1269 924 q 1183 676 1226 792 q 1092 451 1140 560 q 988 231 1044 342 q 863 0 932 121 l 781 0 l 671 644 l 281 0 m 636 1242 l 721 1242 l 792 1018 l 728 1018 l 636 1242 z "},"Ý":{"ha":767,"x_min":161,"x_max":842,"o":"m 265 0 l 335 331 l 161 924 l 244 924 l 393 406 q 496 510 443 451 q 599 638 549 569 q 690 778 649 706 q 757 924 732 851 l 842 924 q 731 705 797 813 q 585 503 665 597 q 419 333 506 408 l 349 0 l 265 0 m 618 1242 l 708 1242 l 521 1018 l 450 1018 l 618 1242 z "},"Ÿ":{"ha":767,"x_min":161,"x_max":842,"o":"m 265 0 l 335 331 l 161 924 l 244 924 l 393 406 q 496 510 443 451 q 599 638 549 569 q 690 778 649 706 q 757 924 732 851 l 842 924 q 731 705 797 813 q 585 503 665 597 q 419 333 506 408 l 349 0 l 265 0 m 467 1188 q 497 1178 486 1188 q 507 1149 507 1168 q 490 1106 507 1122 q 446 1090 474 1090 q 416 1100 426 1090 q 406 1128 406 1110 q 423 1172 406 1156 q 467 1188 440 1188 m 674 1188 q 704 1178 693 1188 q 715 1149 715 1168 q 698 1106 715 1122 q 653 1090 681 1090 q 624 1100 635 1090 q 613 1128 613 1110 q 630 1172 613 1156 q 674 1188 647 1188 z "},"Ŷ":{"ha":767,"x_min":161,"x_max":842,"o":"m 265 0 l 335 331 l 161 924 l 244 924 l 393 406 q 496 510 443 451 q 599 638 549 569 q 690 778 649 706 q 757 924 732 851 l 842 924 q 731 705 797 813 q 585 503 665 597 q 419 333 506 408 l 349 0 l 265 0 m 546 1242 l 618 1242 l 703 1018 l 633 1018 l 574 1192 l 443 1018 l 365 1018 l 546 1242 z "},"Ỳ":{"ha":767,"x_min":161,"x_max":842,"o":"m 265 0 l 335 331 l 161 924 l 244 924 l 393 406 q 496 510 443 451 q 599 638 549 569 q 690 778 649 706 q 757 924 732 851 l 842 924 q 731 705 797 813 q 585 503 665 597 q 419 333 506 408 l 349 0 l 265 0 m 413 1242 l 497 1242 l 568 1018 l 504 1018 l 413 1242 z "},"Ž":{"ha":767,"x_min":-19,"x_max":826,"o":"m 194 924 l 826 924 l 813 860 l 103 74 l 657 74 l 642 0 l -19 0 l -7 65 l 703 851 l 179 851 l 194 924 m 504 1018 l 421 1242 l 490 1242 l 549 1068 l 681 1242 l 757 1242 l 578 1018 l 504 1018 z "},"Ź":{"ha":767,"x_min":-19,"x_max":826,"o":"m 194 924 l 826 924 l 813 860 l 103 74 l 657 74 l 642 0 l -19 0 l -7 65 l 703 851 l 179 851 l 194 924 m 625 1242 l 715 1242 l 528 1018 l 457 1018 l 625 1242 z "},"Ż":{"ha":767,"x_min":-19,"x_max":826,"o":"m 194 924 l 826 924 l 813 860 l 103 74 l 657 74 l 642 0 l -19 0 l -7 65 l 703 851 l 179 851 l 194 924 m 576 1188 q 610 1177 599 1188 q 622 1147 622 1167 q 604 1104 622 1119 q 557 1089 586 1089 q 524 1100 536 1089 q 513 1129 513 1111 q 530 1172 513 1157 q 576 1188 547 1188 z "},"á":{"ha":818,"x_min":68,"x_max":743,"o":"m 300 -15 q 178 12 231 -15 q 97 95 126 39 q 68 236 68 151 q 115 474 68 368 q 248 643 161 581 q 457 706 335 706 q 574 694 515 706 q 697 661 633 683 l 592 164 q 586 118 586 140 q 604 67 586 83 q 653 51 622 51 q 697 57 674 51 q 743 72 721 63 l 733 7 q 683 -9 707 -3 q 633 -15 658 -15 q 559 5 590 -15 q 517 69 528 25 q 423 11 478 38 q 300 -15 368 -15 m 608 613 q 532 633 571 626 q 451 639 493 639 q 288 584 357 639 q 183 438 219 529 q 146 238 146 347 q 190 97 146 143 q 310 51 233 51 q 412 73 363 51 q 507 133 461 94 l 608 613 m 556 1014 l 646 1014 l 458 790 l 388 790 l 556 1014 z "},"â":{"ha":818,"x_min":68,"x_max":743,"o":"m 300 -15 q 178 12 231 -15 q 97 95 126 39 q 68 236 68 151 q 115 474 68 368 q 248 643 161 581 q 457 706 335 706 q 574 694 515 706 q 697 661 633 683 l 592 164 q 586 118 586 140 q 604 67 586 83 q 653 51 622 51 q 697 57 674 51 q 743 72 721 63 l 733 7 q 683 -9 707 -3 q 633 -15 658 -15 q 559 5 590 -15 q 517 69 528 25 q 423 11 478 38 q 300 -15 368 -15 m 608 613 q 532 633 571 626 q 451 639 493 639 q 288 584 357 639 q 183 438 219 529 q 146 238 146 347 q 190 97 146 143 q 310 51 233 51 q 412 73 363 51 q 507 133 461 94 l 608 613 m 483 1014 l 556 1014 l 640 790 l 571 790 l 511 964 l 381 790 l 303 790 l 483 1014 z "},"ä":{"ha":818,"x_min":68,"x_max":743,"o":"m 300 -15 q 178 12 231 -15 q 97 95 126 39 q 68 236 68 151 q 115 474 68 368 q 248 643 161 581 q 457 706 335 706 q 574 694 515 706 q 697 661 633 683 l 592 164 q 586 118 586 140 q 604 67 586 83 q 653 51 622 51 q 697 57 674 51 q 743 72 721 63 l 733 7 q 683 -9 707 -3 q 633 -15 658 -15 q 559 5 590 -15 q 517 69 528 25 q 423 11 478 38 q 300 -15 368 -15 m 608 613 q 532 633 571 626 q 451 639 493 639 q 288 584 357 639 q 183 438 219 529 q 146 238 146 347 q 190 97 146 143 q 310 51 233 51 q 412 73 363 51 q 507 133 461 94 l 608 613 m 404 960 q 434 950 424 960 q 444 921 444 940 q 428 878 444 894 q 383 863 411 863 q 353 872 364 863 q 343 900 343 882 q 360 944 343 928 q 404 960 378 960 m 611 960 q 642 950 631 960 q 653 921 653 940 q 635 878 653 894 q 590 863 618 863 q 561 872 572 863 q 550 900 550 882 q 567 944 550 928 q 611 960 585 960 z "},"à":{"ha":818,"x_min":68,"x_max":743,"o":"m 300 -15 q 178 12 231 -15 q 97 95 126 39 q 68 236 68 151 q 115 474 68 368 q 248 643 161 581 q 457 706 335 706 q 574 694 515 706 q 697 661 633 683 l 592 164 q 586 118 586 140 q 604 67 586 83 q 653 51 622 51 q 697 57 674 51 q 743 72 721 63 l 733 7 q 683 -9 707 -3 q 633 -15 658 -15 q 559 5 590 -15 q 517 69 528 25 q 423 11 478 38 q 300 -15 368 -15 m 608 613 q 532 633 571 626 q 451 639 493 639 q 288 584 357 639 q 183 438 219 529 q 146 238 146 347 q 190 97 146 143 q 310 51 233 51 q 412 73 363 51 q 507 133 461 94 l 608 613 m 350 1014 l 435 1014 l 506 790 l 442 790 l 350 1014 z "},"å":{"ha":818,"x_min":68,"x_max":743,"o":"m 300 -15 q 178 12 231 -15 q 97 95 126 39 q 68 236 68 151 q 115 474 68 368 q 248 643 161 581 q 457 706 335 706 q 574 694 515 706 q 697 661 633 683 l 592 164 q 586 118 586 140 q 604 67 586 83 q 653 51 622 51 q 697 57 674 51 q 743 72 721 63 l 733 7 q 683 -9 707 -3 q 633 -15 658 -15 q 559 5 590 -15 q 517 69 528 25 q 423 11 478 38 q 300 -15 368 -15 m 608 613 q 532 633 571 626 q 451 639 493 639 q 288 584 357 639 q 183 438 219 529 q 146 238 146 347 q 190 97 146 143 q 310 51 233 51 q 412 73 363 51 q 507 133 461 94 l 608 613 m 479 835 q 542 857 517 835 q 567 918 567 879 q 551 958 567 946 q 508 969 536 969 q 446 948 471 969 q 421 888 421 926 q 437 847 421 860 q 479 835 453 835 m 511 1017 q 592 991 561 1017 q 622 919 622 965 q 582 824 622 860 q 476 788 542 788 q 396 813 426 788 q 365 886 365 839 q 406 981 365 944 q 511 1017 447 1017 z "},"ã":{"ha":818,"x_min":68,"x_max":743,"o":"m 300 -15 q 178 12 231 -15 q 97 95 126 39 q 68 236 68 151 q 115 474 68 368 q 248 643 161 581 q 457 706 335 706 q 574 694 515 706 q 697 661 633 683 l 592 164 q 586 118 586 140 q 604 67 586 83 q 653 51 622 51 q 697 57 674 51 q 743 72 721 63 l 733 7 q 683 -9 707 -3 q 633 -15 658 -15 q 559 5 590 -15 q 517 69 528 25 q 423 11 478 38 q 300 -15 368 -15 m 608 613 q 532 633 571 626 q 451 639 493 639 q 288 584 357 639 q 183 438 219 529 q 146 238 146 347 q 190 97 146 143 q 310 51 233 51 q 412 73 363 51 q 507 133 461 94 l 608 613 m 344 842 l 290 863 q 335 928 308 900 q 408 956 361 956 q 467 942 436 956 q 526 915 497 929 q 576 901 556 901 q 619 918 604 901 q 644 957 633 935 l 697 936 q 652 869 679 897 q 579 842 625 842 q 522 856 553 842 q 462 883 490 869 q 413 897 433 897 q 370 881 386 897 q 344 842 354 864 z "},"ă":{"ha":818,"x_min":68,"x_max":743,"o":"m 300 -15 q 178 12 231 -15 q 97 95 126 39 q 68 236 68 151 q 115 474 68 368 q 248 643 161 581 q 457 706 335 706 q 574 694 515 706 q 697 661 633 683 l 592 164 q 586 118 586 140 q 604 67 586 83 q 653 51 622 51 q 697 57 674 51 q 743 72 721 63 l 733 7 q 683 -9 707 -3 q 633 -15 658 -15 q 559 5 590 -15 q 517 69 528 25 q 423 11 478 38 q 300 -15 368 -15 m 608 613 q 532 633 571 626 q 451 639 493 639 q 288 584 357 639 q 183 438 219 529 q 146 238 146 347 q 190 97 146 143 q 310 51 233 51 q 412 73 363 51 q 507 133 461 94 l 608 613 m 329 986 l 396 986 q 408 899 385 925 q 489 874 432 874 q 581 899 546 874 q 631 986 617 925 l 697 986 q 626 858 679 900 q 488 817 574 817 q 391 835 431 817 q 335 892 351 854 q 329 986 318 929 z "},"ā":{"ha":818,"x_min":68,"x_max":743,"o":"m 300 -15 q 178 12 231 -15 q 97 95 126 39 q 68 236 68 151 q 115 474 68 368 q 248 643 161 581 q 457 706 335 706 q 574 694 515 706 q 697 661 633 683 l 592 164 q 586 118 586 140 q 604 67 586 83 q 653 51 622 51 q 697 57 674 51 q 743 72 721 63 l 733 7 q 683 -9 707 -3 q 633 -15 658 -15 q 559 5 590 -15 q 517 69 528 25 q 423 11 478 38 q 300 -15 368 -15 m 608 613 q 532 633 571 626 q 451 639 493 639 q 288 584 357 639 q 183 438 219 529 q 146 238 146 347 q 190 97 146 143 q 310 51 233 51 q 412 73 363 51 q 507 133 461 94 l 608 613 m 343 926 l 658 926 l 646 868 l 331 868 l 343 926 z "},"ą":{"ha":818,"x_min":68,"x_max":743,"o":"m 693 -174 l 690 -224 q 656 -233 675 -229 q 615 -236 636 -236 q 542 -215 569 -236 q 515 -156 515 -194 q 541 -87 515 -119 q 603 -27 567 -54 q 669 17 639 0 l 733 7 q 667 -34 703 -10 q 606 -87 632 -58 q 581 -144 581 -115 q 594 -175 581 -167 q 629 -183 607 -183 q 662 -181 646 -183 q 693 -174 678 -179 m 300 -15 q 178 12 231 -15 q 97 95 126 39 q 68 236 68 151 q 115 474 68 368 q 248 643 161 581 q 457 706 335 706 q 574 694 515 706 q 697 661 633 683 l 592 164 q 586 118 586 140 q 604 67 586 83 q 653 51 622 51 q 697 57 674 51 q 743 72 721 63 l 733 7 q 683 -9 707 -3 q 633 -15 658 -15 q 559 5 590 -15 q 517 69 528 25 q 423 11 478 38 q 300 -15 368 -15 m 608 613 q 532 633 571 626 q 451 639 493 639 q 288 584 357 639 q 183 438 219 529 q 146 238 146 347 q 190 97 146 143 q 310 51 233 51 q 412 73 363 51 q 507 133 461 94 l 608 613 z "},"ǻ":{"ha":818,"x_min":68,"x_max":743,"o":"m 504 836 q 567 858 542 836 q 592 919 592 881 q 576 960 592 947 q 533 972 561 972 q 471 951 496 972 q 446 889 446 929 q 462 849 446 861 q 504 836 478 836 m 536 1019 q 617 993 586 1019 q 647 921 647 967 q 607 826 647 863 q 501 790 567 790 q 421 816 451 790 q 390 888 390 842 q 431 983 390 946 q 536 1019 472 1019 m 613 1156 l 703 1156 l 550 976 l 481 976 l 613 1156 m 300 -15 q 178 12 231 -15 q 97 95 126 39 q 68 236 68 151 q 115 474 68 368 q 248 643 161 581 q 457 706 335 706 q 574 694 515 706 q 697 661 633 683 l 592 164 q 586 118 586 140 q 604 67 586 83 q 653 51 622 51 q 697 57 674 51 q 743 72 721 63 l 733 7 q 683 -9 707 -3 q 633 -15 658 -15 q 559 5 590 -15 q 517 69 528 25 q 423 11 478 38 q 300 -15 368 -15 m 608 613 q 532 633 571 626 q 451 639 493 639 q 288 584 357 639 q 183 438 219 529 q 146 238 146 347 q 190 97 146 143 q 310 51 233 51 q 412 73 363 51 q 507 133 461 94 l 608 613 z "},"ç":{"ha":600,"x_min":68,"x_max":628,"o":"m 628 685 l 606 622 q 533 638 569 633 q 460 642 497 642 q 322 608 381 642 q 223 518 263 575 q 164 388 183 461 q 144 233 144 314 q 191 94 144 140 q 338 49 238 49 q 410 55 369 49 q 494 71 450 61 l 488 7 q 403 -9 442 -3 q 328 -15 364 -15 q 133 47 197 -15 q 68 232 68 108 q 93 415 68 329 q 168 565 118 500 q 291 668 218 631 q 460 706 364 706 q 547 701 504 706 q 628 685 589 696 m 225 -58 l 288 -58 q 302 -106 296 -78 q 308 -160 308 -133 q 275 -244 308 -218 q 185 -271 242 -271 q 140 -267 165 -271 q 97 -257 115 -264 l 117 -206 q 148 -214 129 -211 q 181 -217 167 -217 q 228 -201 213 -217 q 244 -149 244 -185 q 238 -103 244 -126 q 225 -58 232 -79 z "},"ć":{"ha":600,"x_min":68,"x_max":646,"o":"m 628 685 l 606 622 q 533 638 569 633 q 460 642 497 642 q 322 608 381 642 q 223 518 263 575 q 164 388 183 461 q 144 233 144 314 q 191 94 144 140 q 338 49 238 49 q 410 55 369 49 q 494 71 450 61 l 488 7 q 403 -9 442 -3 q 328 -15 364 -15 q 133 47 197 -15 q 68 232 68 108 q 93 415 68 329 q 168 565 118 500 q 291 668 218 631 q 460 706 364 706 q 547 701 504 706 q 628 685 589 696 m 556 1014 l 646 1014 l 458 790 l 388 790 l 556 1014 z "},"č":{"ha":600,"x_min":68,"x_max":688,"o":"m 628 685 l 606 622 q 533 638 569 633 q 460 642 497 642 q 322 608 381 642 q 223 518 263 575 q 164 388 183 461 q 144 233 144 314 q 191 94 144 140 q 338 49 238 49 q 410 55 369 49 q 494 71 450 61 l 488 7 q 403 -9 442 -3 q 328 -15 364 -15 q 133 47 197 -15 q 68 232 68 108 q 93 415 68 329 q 168 565 118 500 q 291 668 218 631 q 460 706 364 706 q 547 701 504 706 q 628 685 589 696 m 435 790 l 351 1014 l 421 1014 l 479 840 l 611 1014 l 688 1014 l 508 790 l 435 790 z "},"ĉ":{"ha":600,"x_min":68,"x_max":640,"o":"m 628 685 l 606 622 q 533 638 569 633 q 460 642 497 642 q 322 608 381 642 q 223 518 263 575 q 164 388 183 461 q 144 233 144 314 q 191 94 144 140 q 338 49 238 49 q 410 55 369 49 q 494 71 450 61 l 488 7 q 403 -9 442 -3 q 328 -15 364 -15 q 133 47 197 -15 q 68 232 68 108 q 93 415 68 329 q 168 565 118 500 q 291 668 218 631 q 460 706 364 706 q 547 701 504 706 q 628 685 589 696 m 483 1014 l 556 1014 l 640 790 l 571 790 l 511 964 l 381 790 l 303 790 l 483 1014 z "},"ċ":{"ha":600,"x_min":68,"x_max":628,"o":"m 628 685 l 606 622 q 533 638 569 633 q 460 642 497 642 q 322 608 381 642 q 223 518 263 575 q 164 388 183 461 q 144 233 144 314 q 191 94 144 140 q 338 49 238 49 q 410 55 369 49 q 494 71 450 61 l 488 7 q 403 -9 442 -3 q 328 -15 364 -15 q 133 47 197 -15 q 68 232 68 108 q 93 415 68 329 q 168 565 118 500 q 291 668 218 631 q 460 706 364 706 q 547 701 504 706 q 628 685 589 696 m 507 960 q 541 949 529 960 q 553 919 553 939 q 535 876 553 892 q 488 861 517 861 q 455 872 467 861 q 443 901 443 883 q 460 944 443 929 q 507 960 478 960 z "},"ď":{"ha":876,"x_min":69,"x_max":1024,"o":"m 301 -15 q 181 12 233 -15 q 99 95 128 39 q 69 236 69 151 q 116 474 69 368 q 249 643 163 581 q 458 706 336 706 q 541 699 499 706 q 624 679 583 693 l 696 1014 l 775 1014 l 594 164 q 589 118 589 140 q 606 67 589 83 q 654 51 624 51 q 699 57 675 51 q 744 72 722 63 l 735 7 q 685 -9 710 -3 q 635 -15 660 -15 q 560 5 592 -15 q 519 69 529 25 q 426 11 481 38 q 301 -15 371 -15 m 611 613 q 534 633 574 626 q 454 639 494 639 q 291 584 360 639 q 185 438 222 529 q 149 238 149 347 q 192 97 149 143 q 313 51 236 51 q 414 73 365 51 q 510 133 463 94 l 611 613 m 938 1014 l 1024 1014 l 854 718 l 788 718 l 938 1014 z "},"đ":{"ha":804,"x_min":65,"x_max":850,"o":"m 435 846 l 447 900 l 850 900 l 839 846 l 435 846 m 297 -14 q 176 13 228 -14 q 94 96 124 40 q 65 236 65 151 q 112 474 65 368 q 245 643 158 581 q 453 706 332 706 q 535 699 493 706 q 619 679 578 693 l 690 1014 l 769 1014 l 589 164 q 585 139 586 150 q 583 118 583 128 q 601 67 583 83 q 649 51 618 51 q 694 57 669 51 q 740 72 718 63 l 729 7 q 679 -8 704 -3 q 629 -14 654 -14 q 555 6 586 -14 q 514 69 524 25 q 420 12 475 38 q 297 -14 365 -14 m 606 613 q 528 633 568 626 q 449 639 489 639 q 285 584 353 639 q 180 438 217 529 q 143 238 143 347 q 187 97 143 143 q 307 51 231 51 q 409 73 360 51 q 504 133 458 94 l 606 613 z "},"é":{"ha":699,"x_min":64,"x_max":642,"o":"m 143 326 l 153 388 q 211 381 178 385 q 278 376 244 378 q 340 374 313 374 q 503 411 446 374 q 560 525 560 449 q 520 613 560 585 q 419 642 481 642 q 274 591 336 642 q 176 449 211 540 q 142 238 142 358 q 186 102 142 151 q 338 53 231 53 q 444 63 392 53 q 539 83 497 72 l 531 15 q 438 -5 488 6 q 328 -15 389 -15 q 184 13 243 -15 q 94 98 125 42 q 64 238 64 154 q 88 419 64 335 q 158 569 111 504 q 271 669 204 633 q 424 706 338 706 q 582 659 522 706 q 642 529 642 613 q 606 407 642 456 q 502 335 569 358 q 342 311 435 311 q 240 316 297 311 q 143 326 183 321 m 536 1014 l 626 1014 l 439 790 l 368 790 l 536 1014 z "},"ê":{"ha":699,"x_min":64,"x_max":642,"o":"m 143 326 l 153 388 q 211 381 178 385 q 278 376 244 378 q 340 374 313 374 q 503 411 446 374 q 560 525 560 449 q 520 613 560 585 q 419 642 481 642 q 274 591 336 642 q 176 449 211 540 q 142 238 142 358 q 186 102 142 151 q 338 53 231 53 q 444 63 392 53 q 539 83 497 72 l 531 15 q 438 -5 488 6 q 328 -15 389 -15 q 184 13 243 -15 q 94 98 125 42 q 64 238 64 154 q 88 419 64 335 q 158 569 111 504 q 271 669 204 633 q 424 706 338 706 q 582 659 522 706 q 642 529 642 613 q 606 407 642 456 q 502 335 569 358 q 342 311 435 311 q 240 316 297 311 q 143 326 183 321 m 464 1014 l 536 1014 l 621 790 l 551 790 l 492 964 l 361 790 l 283 790 l 464 1014 z "},"ë":{"ha":699,"x_min":64,"x_max":642,"o":"m 143 326 l 153 388 q 211 381 178 385 q 278 376 244 378 q 340 374 313 374 q 503 411 446 374 q 560 525 560 449 q 520 613 560 585 q 419 642 481 642 q 274 591 336 642 q 176 449 211 540 q 142 238 142 358 q 186 102 142 151 q 338 53 231 53 q 444 63 392 53 q 539 83 497 72 l 531 15 q 438 -5 488 6 q 328 -15 389 -15 q 184 13 243 -15 q 94 98 125 42 q 64 238 64 154 q 88 419 64 335 q 158 569 111 504 q 271 669 204 633 q 424 706 338 706 q 582 659 522 706 q 642 529 642 613 q 606 407 642 456 q 502 335 569 358 q 342 311 435 311 q 240 316 297 311 q 143 326 183 321 m 385 960 q 415 950 404 960 q 425 921 425 940 q 408 878 425 894 q 364 863 392 863 q 334 872 344 863 q 324 900 324 882 q 341 944 324 928 q 385 960 358 960 m 592 960 q 622 950 611 960 q 633 921 633 940 q 616 878 633 894 q 571 863 599 863 q 542 872 553 863 q 531 900 531 882 q 548 944 531 928 q 592 960 565 960 z "},"è":{"ha":699,"x_min":64,"x_max":642,"o":"m 143 326 l 153 388 q 211 381 178 385 q 278 376 244 378 q 340 374 313 374 q 503 411 446 374 q 560 525 560 449 q 520 613 560 585 q 419 642 481 642 q 274 591 336 642 q 176 449 211 540 q 142 238 142 358 q 186 102 142 151 q 338 53 231 53 q 444 63 392 53 q 539 83 497 72 l 531 15 q 438 -5 488 6 q 328 -15 389 -15 q 184 13 243 -15 q 94 98 125 42 q 64 238 64 154 q 88 419 64 335 q 158 569 111 504 q 271 669 204 633 q 424 706 338 706 q 582 659 522 706 q 642 529 642 613 q 606 407 642 456 q 502 335 569 358 q 342 311 435 311 q 240 316 297 311 q 143 326 183 321 m 331 1014 l 415 1014 l 486 790 l 422 790 l 331 1014 z "},"ĕ":{"ha":699,"x_min":64,"x_max":678,"o":"m 143 326 l 153 388 q 211 381 178 385 q 278 376 244 378 q 340 374 313 374 q 503 411 446 374 q 560 525 560 449 q 520 613 560 585 q 419 642 481 642 q 274 591 336 642 q 176 449 211 540 q 142 238 142 358 q 186 102 142 151 q 338 53 231 53 q 444 63 392 53 q 539 83 497 72 l 531 15 q 438 -5 488 6 q 328 -15 389 -15 q 184 13 243 -15 q 94 98 125 42 q 64 238 64 154 q 88 419 64 335 q 158 569 111 504 q 271 669 204 633 q 424 706 338 706 q 582 659 522 706 q 642 529 642 613 q 606 407 642 456 q 502 335 569 358 q 342 311 435 311 q 240 316 297 311 q 143 326 183 321 m 310 986 l 376 986 q 389 899 365 925 q 469 874 413 874 q 562 899 526 874 q 611 986 597 925 l 678 986 q 607 858 660 900 q 468 817 554 817 q 372 835 411 817 q 315 892 332 854 q 310 986 299 929 z "},"ě":{"ha":699,"x_min":64,"x_max":668,"o":"m 143 326 l 153 388 q 211 381 178 385 q 278 376 244 378 q 340 374 313 374 q 503 411 446 374 q 560 525 560 449 q 520 613 560 585 q 419 642 481 642 q 274 591 336 642 q 176 449 211 540 q 142 238 142 358 q 186 102 142 151 q 338 53 231 53 q 444 63 392 53 q 539 83 497 72 l 531 15 q 438 -5 488 6 q 328 -15 389 -15 q 184 13 243 -15 q 94 98 125 42 q 64 238 64 154 q 88 419 64 335 q 158 569 111 504 q 271 669 204 633 q 424 706 338 706 q 582 659 522 706 q 642 529 642 613 q 606 407 642 456 q 502 335 569 358 q 342 311 435 311 q 240 316 297 311 q 143 326 183 321 m 415 790 l 332 1014 l 401 1014 l 460 840 l 592 1014 l 668 1014 l 489 790 l 415 790 z "},"ė":{"ha":699,"x_min":64,"x_max":642,"o":"m 143 326 l 153 388 q 211 381 178 385 q 278 376 244 378 q 340 374 313 374 q 503 411 446 374 q 560 525 560 449 q 520 613 560 585 q 419 642 481 642 q 274 591 336 642 q 176 449 211 540 q 142 238 142 358 q 186 102 142 151 q 338 53 231 53 q 444 63 392 53 q 539 83 497 72 l 531 15 q 438 -5 488 6 q 328 -15 389 -15 q 184 13 243 -15 q 94 98 125 42 q 64 238 64 154 q 88 419 64 335 q 158 569 111 504 q 271 669 204 633 q 424 706 338 706 q 582 659 522 706 q 642 529 642 613 q 606 407 642 456 q 502 335 569 358 q 342 311 435 311 q 240 316 297 311 q 143 326 183 321 m 488 960 q 522 949 510 960 q 533 919 533 939 q 515 876 533 892 q 468 861 497 861 q 435 872 447 861 q 424 901 424 883 q 441 944 424 929 q 488 960 458 960 z "},"ē":{"ha":699,"x_min":64,"x_max":642,"o":"m 143 326 l 153 388 q 211 381 178 385 q 278 376 244 378 q 340 374 313 374 q 503 411 446 374 q 560 525 560 449 q 520 613 560 585 q 419 642 481 642 q 274 591 336 642 q 176 449 211 540 q 142 238 142 358 q 186 102 142 151 q 338 53 231 53 q 444 63 392 53 q 539 83 497 72 l 531 15 q 438 -5 488 6 q 328 -15 389 -15 q 184 13 243 -15 q 94 98 125 42 q 64 238 64 154 q 88 419 64 335 q 158 569 111 504 q 271 669 204 633 q 424 706 338 706 q 582 659 522 706 q 642 529 642 613 q 606 407 642 456 q 502 335 569 358 q 342 311 435 311 q 240 316 297 311 q 143 326 183 321 m 324 926 l 639 926 l 626 868 l 311 868 l 324 926 z "},"ę":{"ha":699,"x_min":64,"x_max":642,"o":"m 143 326 l 154 388 q 212 381 179 385 q 278 376 244 378 q 340 374 313 374 q 502 411 444 374 q 560 525 560 449 q 520 613 560 585 q 419 642 481 642 q 274 591 336 642 q 176 449 211 540 q 142 238 142 358 q 186 101 142 150 q 338 53 231 53 q 445 63 392 53 q 538 83 499 72 l 531 15 q 438 -4 488 6 q 328 -14 389 -14 q 184 15 243 -14 q 94 99 125 43 q 64 238 64 154 q 88 419 64 335 q 158 569 113 504 q 272 669 204 633 q 424 706 339 706 q 582 659 522 706 q 642 529 642 613 q 606 407 642 456 q 502 335 569 358 q 342 311 435 311 q 240 316 296 311 q 143 326 183 321 m 489 -174 l 486 -224 q 451 -233 471 -229 q 410 -236 431 -236 q 338 -215 365 -236 q 310 -156 310 -194 q 336 -84 310 -118 q 399 -22 363 -50 q 467 22 436 6 l 531 15 q 464 -28 500 -1 q 402 -84 428 -54 q 376 -144 376 -114 q 390 -175 376 -167 q 424 -183 403 -183 q 458 -181 442 -183 q 489 -174 474 -179 z "},"ǽ":{"ha":1079,"x_min":24,"x_max":1046,"o":"m 549 328 l 558 388 q 616 381 583 385 q 683 376 649 378 q 746 374 718 374 q 908 411 850 374 q 965 525 965 449 q 925 613 965 585 q 824 642 885 642 q 679 591 742 642 q 583 449 617 540 q 549 238 549 358 q 592 101 549 150 q 743 53 636 53 q 849 63 796 53 q 943 83 903 72 l 935 15 q 843 -4 893 6 q 732 -14 793 -14 q 590 15 649 -14 q 501 99 532 43 q 471 238 471 154 q 494 419 471 335 q 564 569 518 504 q 676 669 610 633 q 828 706 743 706 q 986 659 926 706 q 1046 529 1046 613 q 1010 407 1046 456 q 906 335 974 358 q 746 311 839 311 q 645 317 701 311 q 549 328 589 322 m 482 328 q 401 342 443 338 q 321 346 358 346 q 156 299 213 346 q 99 175 99 253 q 139 78 99 107 q 256 49 179 49 q 385 71 325 49 q 497 124 444 93 l 536 74 q 447 28 492 47 q 354 -3 401 8 q 254 -14 307 -14 q 83 30 143 -14 q 24 171 24 74 q 44 272 24 228 q 103 346 64 315 q 197 392 142 376 q 322 407 253 407 q 404 402 364 407 q 486 389 444 397 l 507 490 q 488 605 524 568 q 363 642 453 642 q 274 637 319 642 q 188 624 228 632 l 193 688 q 280 701 233 696 q 375 706 326 706 q 517 671 469 706 q 571 565 565 636 l 482 328 m 747 1014 l 838 1014 l 650 790 l 579 790 l 747 1014 z "},"ğ":{"ha":747,"x_min":15,"x_max":710,"o":"m 301 -11 q 181 16 233 -11 q 99 98 128 43 q 69 235 69 153 q 116 475 69 368 q 249 644 163 582 q 457 706 336 706 q 576 694 517 706 q 699 663 635 683 l 551 -32 q 497 -169 535 -115 q 395 -249 458 -224 q 238 -275 332 -275 q 121 -266 176 -275 q 15 -239 65 -257 l 36 -176 q 133 -202 82 -193 q 242 -211 185 -211 q 401 -165 349 -211 q 472 -39 454 -119 l 493 56 l 496 54 q 410 8 460 28 q 301 -11 360 -11 m 611 613 q 534 633 574 626 q 453 639 494 639 q 290 584 358 639 q 185 438 222 529 q 149 238 149 347 q 193 99 149 144 q 314 54 238 54 q 415 76 367 54 q 510 136 464 97 l 611 613 m 342 986 l 408 986 q 421 899 397 925 q 501 874 444 874 q 594 899 558 874 q 643 986 629 925 l 710 986 q 639 858 692 900 q 500 817 586 817 q 403 835 443 817 q 347 892 364 854 q 342 986 331 929 z "},"ĝ":{"ha":747,"x_min":15,"x_max":699,"o":"m 301 -11 q 181 16 233 -11 q 99 98 128 43 q 69 235 69 153 q 116 475 69 368 q 249 644 163 582 q 457 706 336 706 q 576 694 517 706 q 699 663 635 683 l 551 -32 q 497 -169 535 -115 q 395 -249 458 -224 q 238 -275 332 -275 q 121 -266 176 -275 q 15 -239 65 -257 l 36 -176 q 133 -202 82 -193 q 242 -211 185 -211 q 401 -165 349 -211 q 472 -39 454 -119 l 493 56 l 496 54 q 410 8 460 28 q 301 -11 360 -11 m 611 613 q 534 633 574 626 q 453 639 494 639 q 290 584 358 639 q 185 438 222 529 q 149 238 149 347 q 193 99 149 144 q 314 54 238 54 q 415 76 367 54 q 510 136 464 97 l 611 613 m 496 1014 l 568 1014 l 653 790 l 583 790 l 524 964 l 393 790 l 315 790 l 496 1014 z "},"ģ":{"ha":747,"x_min":15,"x_max":699,"o":"m 301 -11 q 181 16 233 -11 q 99 98 128 43 q 69 235 69 153 q 116 475 69 368 q 249 644 163 582 q 457 706 336 706 q 576 694 517 706 q 699 663 635 683 l 551 -32 q 497 -169 535 -115 q 395 -249 458 -224 q 238 -275 332 -275 q 121 -266 176 -275 q 15 -239 65 -257 l 36 -176 q 133 -202 82 -193 q 242 -211 185 -211 q 401 -165 349 -211 q 472 -39 454 -119 l 493 56 l 496 54 q 410 8 460 28 q 301 -11 360 -11 m 611 613 q 534 633 574 626 q 453 639 494 639 q 290 584 358 639 q 185 438 222 529 q 149 238 149 347 q 193 99 149 144 q 314 54 238 54 q 415 76 367 54 q 510 136 464 97 l 611 613 m 599 1006 l 683 1006 l 521 808 l 454 808 l 599 1006 z "},"ġ":{"ha":747,"x_min":15,"x_max":699,"o":"m 301 -11 q 181 16 233 -11 q 99 98 128 43 q 69 235 69 153 q 116 475 69 368 q 249 644 163 582 q 457 706 336 706 q 576 694 517 706 q 699 663 635 683 l 551 -32 q 497 -169 535 -115 q 395 -249 458 -224 q 238 -275 332 -275 q 121 -266 176 -275 q 15 -239 65 -257 l 36 -176 q 133 -202 82 -193 q 242 -211 185 -211 q 401 -165 349 -211 q 472 -39 454 -119 l 493 56 l 496 54 q 410 8 460 28 q 301 -11 360 -11 m 611 613 q 534 633 574 626 q 453 639 494 639 q 290 584 358 639 q 185 438 222 529 q 149 238 149 347 q 193 99 149 144 q 314 54 238 54 q 415 76 367 54 q 510 136 464 97 l 611 613 m 519 960 q 553 949 542 960 q 565 919 565 939 q 547 876 565 892 q 500 861 529 861 q 467 872 479 861 q 456 901 456 883 q 473 944 456 929 q 519 960 490 960 z "},"ħ":{"ha":772,"x_min":54,"x_max":708,"o":"m 517 846 l 118 846 l 129 900 l 529 900 l 517 846 m 132 0 l 54 0 l 269 1014 l 346 1014 l 275 678 q 374 699 324 692 q 471 706 425 706 q 603 682 547 706 q 683 604 658 658 q 689 458 708 550 l 592 0 l 514 0 l 611 460 q 609 568 626 529 q 551 624 592 607 q 456 640 511 640 q 357 633 408 640 q 263 613 306 625 l 132 0 z "},"ĥ":{"ha":763,"x_min":43,"x_max":721,"o":"m 122 0 l 43 0 l 258 1014 l 336 1014 l 265 678 q 365 699 314 692 q 461 706 415 706 q 592 682 536 706 q 674 604 649 658 q 679 458 699 550 l 582 0 l 503 0 l 600 460 q 599 568 615 529 q 542 624 582 607 q 446 640 501 640 q 347 632 399 640 q 251 611 294 624 l 122 0 m 564 1292 l 636 1292 l 721 1068 l 651 1068 l 592 1242 l 461 1068 l 383 1068 l 564 1292 z "},"í":{"ha":372,"x_min":57,"x_max":465,"o":"m 190 692 l 268 692 l 153 154 q 156 76 142 100 q 211 51 171 51 q 254 55 233 51 q 296 68 275 58 l 285 3 q 240 -10 263 -7 q 193 -14 217 -14 q 92 24 128 -14 q 75 153 57 63 l 190 692 m 375 1014 l 465 1014 l 278 790 l 207 790 l 375 1014 z "},"î":{"ha":372,"x_min":58,"x_max":419,"o":"m 192 692 l 269 692 l 154 154 q 158 76 143 100 q 213 51 172 51 q 256 55 235 51 q 297 68 276 58 l 286 3 q 241 -10 264 -7 q 194 -14 218 -14 q 94 24 129 -14 q 76 153 58 63 l 192 692 m 263 1014 l 335 1014 l 419 790 l 350 790 l 290 964 l 160 790 l 82 790 l 263 1014 z "},"ï":{"ha":372,"x_min":57,"x_max":432,"o":"m 190 692 l 268 692 l 153 154 q 156 76 142 100 q 211 51 171 51 q 254 55 233 51 q 296 68 275 58 l 285 3 q 240 -10 263 -7 q 193 -14 217 -14 q 92 24 128 -14 q 75 153 57 63 l 190 692 m 183 960 q 213 950 203 960 q 224 921 224 940 q 207 878 224 894 q 163 863 190 863 q 133 872 143 863 q 122 900 122 882 q 140 944 122 928 q 183 960 157 960 m 390 960 q 421 950 410 960 q 432 921 432 940 q 415 878 432 894 q 369 863 397 863 q 340 872 351 863 q 329 900 329 882 q 347 944 329 928 q 390 960 364 960 z "},"ì":{"ha":372,"x_min":57,"x_max":296,"o":"m 190 692 l 268 692 l 153 154 q 156 76 142 100 q 211 51 171 51 q 254 55 233 51 q 296 68 275 58 l 285 3 q 240 -10 263 -7 q 193 -14 217 -14 q 92 24 128 -14 q 75 153 57 63 l 190 692 m 129 1014 l 214 1014 l 285 790 l 221 790 l 129 1014 z "},"ĭ":{"ha":372,"x_min":57,"x_max":476,"o":"m 190 692 l 268 692 l 153 154 q 156 76 142 100 q 211 51 171 51 q 254 55 233 51 q 296 68 275 58 l 285 3 q 240 -10 263 -7 q 193 -14 217 -14 q 92 24 128 -14 q 75 153 57 63 l 190 692 m 108 986 l 175 986 q 188 899 164 925 q 268 874 211 874 q 360 899 325 874 q 410 986 396 925 l 476 986 q 406 858 458 900 q 267 817 353 817 q 170 835 210 817 q 114 892 131 854 q 108 986 97 929 z "},"ī":{"ha":372,"x_min":57,"x_max":438,"o":"m 190 692 l 268 692 l 153 154 q 156 76 142 100 q 211 51 171 51 q 254 55 233 51 q 296 68 275 58 l 285 3 q 240 -10 263 -7 q 193 -14 217 -14 q 92 24 128 -14 q 75 153 57 63 l 190 692 m 122 926 l 438 926 l 425 868 l 110 868 l 122 926 z "},"į":{"ha":372,"x_min":57,"x_max":333,"o":"m 247 -174 l 243 -224 q 208 -233 228 -229 q 168 -236 189 -236 q 95 -215 122 -236 q 68 -156 68 -194 q 94 -88 68 -121 q 156 -28 119 -56 q 222 15 192 -1 l 285 3 q 220 -36 256 -12 q 159 -87 185 -60 q 133 -144 133 -115 q 147 -175 133 -167 q 182 -183 160 -183 q 215 -181 199 -183 q 247 -174 231 -179 m 190 692 l 268 692 l 154 154 q 156 76 142 100 q 211 51 171 51 q 254 56 233 51 q 296 69 275 60 l 285 3 q 240 -11 263 -7 q 193 -15 217 -15 q 92 24 128 -15 q 75 153 57 64 l 190 692 m 288 961 q 321 951 308 961 q 333 922 333 942 q 314 878 333 893 q 267 863 294 863 q 233 873 246 863 q 221 901 221 883 q 240 946 221 931 q 288 961 260 961 z "},"ĩ":{"ha":372,"x_min":57,"x_max":476,"o":"m 190 692 l 268 692 l 153 154 q 156 76 142 100 q 211 51 171 51 q 254 55 233 51 q 296 68 275 58 l 285 3 q 240 -10 263 -7 q 193 -14 217 -14 q 92 24 128 -14 q 75 153 57 63 l 190 692 m 124 842 l 69 863 q 114 928 88 900 q 188 956 140 956 q 246 942 215 956 q 306 915 276 929 q 356 901 335 901 q 398 918 383 901 q 424 957 413 935 l 476 936 q 431 869 458 897 q 358 842 404 842 q 301 856 332 842 q 241 883 269 869 q 192 897 213 897 q 149 881 165 897 q 124 842 133 864 z "},"ĵ":{"ha":313,"x_min":-150,"x_max":414,"o":"m 190 692 l 268 692 l 136 69 q 108 -32 124 13 q 66 -114 93 -76 q -5 -190 39 -151 q -118 -272 -49 -228 l -150 -219 q -57 -149 -93 -182 q 1 -83 -21 -117 q 37 -12 24 -50 q 60 74 50 26 l 190 692 m 257 1014 l 329 1014 l 414 790 l 344 790 l 285 964 l 154 790 l 76 790 l 257 1014 z "},"ķ":{"ha":688,"x_min":43,"x_max":707,"o":"m 258 1014 l 338 1014 l 190 328 l 617 692 l 707 692 l 382 408 q 488 332 451 383 q 542 201 525 281 l 586 0 l 510 0 l 468 182 q 419 300 451 258 q 321 364 386 342 l 174 243 l 122 0 l 43 0 l 258 1014 m 253 -64 l 338 -64 l 175 -261 l 108 -261 l 253 -64 z "},"ĸ":{"ha":688,"x_min":43,"x_max":707,"o":"m 190 692 l 268 692 l 190 326 l 617 692 l 707 692 l 382 408 q 488 332 451 383 q 542 203 525 281 l 586 0 l 510 0 l 468 182 q 419 300 451 258 q 321 364 386 342 l 172 243 l 122 0 l 43 0 l 190 692 z "},"ĺ":{"ha":417,"x_min":65,"x_max":551,"o":"m 258 1014 l 336 1014 l 157 169 q 167 78 143 106 q 233 51 190 51 q 290 57 261 51 q 340 69 318 63 l 329 4 q 274 -10 303 -6 q 215 -15 244 -15 q 132 3 168 -15 q 81 63 96 22 q 79 169 65 104 l 258 1014 m 461 1289 l 551 1289 l 364 1065 l 293 1065 l 461 1289 z "},"ľ":{"ha":465,"x_min":65,"x_max":588,"o":"m 258 1014 l 336 1014 l 157 169 q 167 78 143 106 q 233 51 190 51 q 290 57 261 51 q 340 69 318 63 l 329 4 q 274 -10 303 -6 q 215 -15 244 -15 q 132 3 168 -15 q 81 63 96 22 q 79 169 65 104 l 258 1014 m 501 1014 l 588 1014 l 418 718 l 351 718 l 501 1014 z "},"ļ":{"ha":417,"x_min":-124,"x_max":340,"o":"m 258 1014 l 336 1014 l 157 169 q 167 78 143 106 q 233 51 190 51 q 290 57 261 51 q 340 69 318 63 l 329 4 q 274 -10 303 -6 q 215 -15 244 -15 q 132 3 168 -15 q 81 63 96 22 q 79 169 65 104 l 258 1014 m 21 -64 l 106 -64 l -57 -261 l -124 -261 l 21 -64 z "},"ŀ":{"ha":439,"x_min":65,"x_max":465,"o":"m 258 1014 l 336 1014 l 157 169 q 167 78 143 106 q 233 51 190 51 q 290 57 261 51 q 340 69 318 63 l 329 4 q 274 -10 303 -6 q 215 -15 244 -15 q 132 3 168 -15 q 81 63 96 22 q 79 169 65 104 l 258 1014 m 421 533 q 453 523 442 533 q 465 493 465 513 q 448 450 465 465 q 401 435 431 435 q 367 446 379 435 q 356 475 356 457 q 374 518 356 503 q 421 533 392 533 z "},"ñ":{"ha":763,"x_min":43,"x_max":700,"o":"m 122 0 l 43 0 l 183 660 q 322 694 254 682 q 454 706 390 706 q 590 683 532 706 q 674 606 647 660 q 681 461 700 553 l 582 0 l 503 0 l 600 460 q 599 568 615 529 q 542 624 582 607 q 446 640 501 640 q 347 632 399 640 q 251 611 294 624 l 122 0 m 342 842 l 288 863 q 332 928 306 900 q 406 956 358 956 q 464 942 433 956 q 524 915 494 929 q 574 901 553 901 q 616 918 601 901 q 642 957 631 935 l 694 936 q 649 869 676 897 q 576 842 622 842 q 519 856 550 842 q 459 883 488 869 q 410 897 431 897 q 367 881 383 897 q 342 842 351 864 z "},"ń":{"ha":763,"x_min":43,"x_max":700,"o":"m 122 0 l 43 0 l 183 660 q 322 694 254 682 q 454 706 390 706 q 590 683 532 706 q 674 606 647 660 q 681 461 700 553 l 582 0 l 503 0 l 600 460 q 599 568 615 529 q 542 624 582 607 q 446 640 501 640 q 347 632 399 640 q 251 611 294 624 l 122 0 m 553 1014 l 643 1014 l 456 790 l 385 790 l 553 1014 z "},"ň":{"ha":763,"x_min":43,"x_max":700,"o":"m 122 0 l 43 0 l 183 660 q 322 694 254 682 q 454 706 390 706 q 590 683 532 706 q 674 606 647 660 q 681 461 700 553 l 582 0 l 503 0 l 600 460 q 599 568 615 529 q 542 624 582 607 q 446 640 501 640 q 347 632 399 640 q 251 611 294 624 l 122 0 m 432 790 l 349 1014 l 418 1014 l 476 840 l 608 1014 l 685 1014 l 506 790 l 432 790 z "},"ņ":{"ha":763,"x_min":43,"x_max":700,"o":"m 122 0 l 43 0 l 183 660 q 322 694 254 682 q 454 706 390 706 q 590 683 532 706 q 674 606 647 660 q 681 461 700 553 l 582 0 l 503 0 l 600 460 q 599 568 615 529 q 542 624 582 607 q 446 640 501 640 q 347 632 399 640 q 251 611 294 624 l 122 0 m 271 -64 l 356 -64 l 193 -261 l 126 -261 l 271 -64 z "},"ŋ":{"ha":763,"x_min":43,"x_max":699,"o":"m 121 0 l 43 0 l 183 660 q 321 694 253 682 q 453 706 389 706 q 590 683 532 706 q 673 606 647 660 q 679 461 699 553 l 594 69 q 566 -32 582 13 q 524 -114 550 -76 q 453 -190 497 -151 q 340 -272 410 -228 l 308 -219 q 401 -149 365 -182 q 460 -82 438 -115 q 495 -11 482 -49 q 518 74 508 26 l 600 460 q 598 568 615 529 q 540 624 581 607 q 444 640 500 640 q 346 633 397 640 q 251 613 294 625 l 121 0 z "},"ó":{"ha":749,"x_min":65,"x_max":685,"o":"m 439 706 q 621 645 557 706 q 685 465 685 585 q 661 290 685 375 q 591 135 638 204 q 474 26 544 67 q 311 -15 404 -15 q 129 46 193 -15 q 65 226 65 107 q 89 402 65 317 q 159 556 113 488 q 276 665 206 625 q 439 706 346 706 m 313 51 q 438 85 383 51 q 531 176 493 118 q 588 308 568 233 q 607 467 607 383 q 565 597 607 553 q 438 640 522 640 q 312 607 367 640 q 219 516 257 574 q 161 383 181 458 q 142 225 142 308 q 185 95 142 139 q 313 51 228 51 m 588 1014 l 678 1014 l 490 790 l 419 790 l 588 1014 z "},"ô":{"ha":749,"x_min":65,"x_max":685,"o":"m 439 706 q 621 645 557 706 q 685 465 685 585 q 661 290 685 375 q 591 135 638 204 q 474 26 544 67 q 311 -15 404 -15 q 129 46 193 -15 q 65 226 65 107 q 89 402 65 317 q 159 556 113 488 q 276 665 206 625 q 439 706 346 706 m 313 51 q 438 85 383 51 q 531 176 493 118 q 588 308 568 233 q 607 467 607 383 q 565 597 607 553 q 438 640 522 640 q 312 607 367 640 q 219 516 257 574 q 161 383 181 458 q 142 225 142 308 q 185 95 142 139 q 313 51 228 51 m 476 1014 l 549 1014 l 633 790 l 564 790 l 504 964 l 374 790 l 296 790 l 476 1014 z "},"ö":{"ha":749,"x_min":65,"x_max":685,"o":"m 439 706 q 621 645 557 706 q 685 465 685 585 q 661 290 685 375 q 591 135 638 204 q 474 26 544 67 q 311 -15 404 -15 q 129 46 193 -15 q 65 226 65 107 q 89 402 65 317 q 159 556 113 488 q 276 665 206 625 q 439 706 346 706 m 313 51 q 438 85 383 51 q 531 176 493 118 q 588 308 568 233 q 607 467 607 383 q 565 597 607 553 q 438 640 522 640 q 312 607 367 640 q 219 516 257 574 q 161 383 181 458 q 142 225 142 308 q 185 95 142 139 q 313 51 228 51 m 396 960 q 426 950 415 960 q 436 921 436 940 q 419 878 436 894 q 375 863 403 863 q 345 872 356 863 q 335 900 335 882 q 352 944 335 928 q 396 960 369 960 m 603 960 q 633 950 622 960 q 644 921 644 940 q 627 878 644 894 q 582 863 610 863 q 553 872 564 863 q 542 900 542 882 q 559 944 542 928 q 603 960 576 960 z "},"ò":{"ha":749,"x_min":65,"x_max":685,"o":"m 439 706 q 621 645 557 706 q 685 465 685 585 q 661 290 685 375 q 591 135 638 204 q 474 26 544 67 q 311 -15 404 -15 q 129 46 193 -15 q 65 226 65 107 q 89 402 65 317 q 159 556 113 488 q 276 665 206 625 q 439 706 346 706 m 313 51 q 438 85 383 51 q 531 176 493 118 q 588 308 568 233 q 607 467 607 383 q 565 597 607 553 q 438 640 522 640 q 312 607 367 640 q 219 516 257 574 q 161 383 181 458 q 142 225 142 308 q 185 95 142 139 q 313 51 228 51 m 357 1014 l 442 1014 l 513 790 l 449 790 l 357 1014 z "},"õ":{"ha":749,"x_min":65,"x_max":685,"o":"m 439 706 q 621 645 557 706 q 685 465 685 585 q 661 290 685 375 q 591 135 638 204 q 474 26 544 67 q 311 -15 404 -15 q 129 46 193 -15 q 65 226 65 107 q 89 402 65 317 q 159 556 113 488 q 276 665 206 625 q 439 706 346 706 m 313 51 q 438 85 383 51 q 531 176 493 118 q 588 308 568 233 q 607 467 607 383 q 565 597 607 553 q 438 640 522 640 q 312 607 367 640 q 219 516 257 574 q 161 383 181 458 q 142 225 142 308 q 185 95 142 139 q 313 51 228 51 m 332 842 l 278 863 q 322 928 296 900 q 396 956 349 956 q 454 942 424 956 q 514 915 485 929 q 564 901 543 901 q 606 918 592 901 q 632 957 621 935 l 685 936 q 640 869 667 897 q 567 842 613 842 q 509 856 540 842 q 449 883 478 869 q 400 897 421 897 q 358 881 374 897 q 332 842 342 864 z "},"ŏ":{"ha":749,"x_min":65,"x_max":685,"o":"m 439 706 q 621 645 557 706 q 685 465 685 585 q 661 290 685 375 q 591 135 638 204 q 474 26 544 67 q 311 -15 404 -15 q 129 46 193 -15 q 65 226 65 107 q 89 402 65 317 q 159 556 113 488 q 276 665 206 625 q 439 706 346 706 m 313 51 q 438 85 383 51 q 531 176 493 118 q 588 308 568 233 q 607 467 607 383 q 565 597 607 553 q 438 640 522 640 q 312 607 367 640 q 219 516 257 574 q 161 383 181 458 q 142 225 142 308 q 185 95 142 139 q 313 51 228 51 m 317 986 l 383 986 q 396 899 372 925 q 476 874 419 874 q 569 899 533 874 q 618 986 604 925 l 685 986 q 614 858 667 900 q 475 817 561 817 q 378 835 418 817 q 322 892 339 854 q 317 986 306 929 z "},"ő":{"ha":749,"x_min":65,"x_max":719,"o":"m 439 706 q 621 645 557 706 q 685 465 685 585 q 661 290 685 375 q 591 135 638 204 q 474 26 544 67 q 311 -15 404 -15 q 129 46 193 -15 q 65 226 65 107 q 89 402 65 317 q 159 556 113 488 q 276 665 206 625 q 439 706 346 706 m 313 51 q 438 85 383 51 q 531 176 493 118 q 588 308 568 233 q 607 467 607 383 q 565 597 607 553 q 438 640 522 640 q 312 607 367 640 q 219 516 257 574 q 161 383 181 458 q 142 225 142 308 q 185 95 142 139 q 313 51 228 51 m 468 1014 l 543 1014 l 410 790 l 350 790 l 468 1014 m 642 1014 l 719 1014 l 567 790 l 506 790 l 642 1014 z "},"ō":{"ha":749,"x_min":65,"x_max":685,"o":"m 439 706 q 621 645 557 706 q 685 465 685 585 q 661 290 685 375 q 591 135 638 204 q 474 26 544 67 q 311 -15 404 -15 q 129 46 193 -15 q 65 226 65 107 q 89 402 65 317 q 159 556 113 488 q 276 665 206 625 q 439 706 346 706 m 313 51 q 438 85 383 51 q 531 176 493 118 q 588 308 568 233 q 607 467 607 383 q 565 597 607 553 q 438 640 522 640 q 312 607 367 640 q 219 516 257 574 q 161 383 181 458 q 142 225 142 308 q 185 95 142 139 q 313 51 228 51 m 331 926 l 646 926 l 633 868 l 318 868 l 331 926 z "},"ǿ":{"ha":751,"x_min":-6,"x_max":756,"o":"m 47 -106 l -6 -75 l 704 799 l 756 767 l 47 -106 m 440 706 q 622 645 558 706 q 685 465 685 585 q 662 290 685 375 q 592 135 639 204 q 475 26 544 67 q 311 -14 406 -14 q 131 46 194 -14 q 67 226 67 106 q 90 402 67 317 q 160 556 113 488 q 277 665 207 625 q 440 706 347 706 m 314 50 q 440 83 385 50 q 533 175 494 117 q 590 308 571 233 q 610 467 610 383 q 567 597 610 553 q 438 642 524 642 q 312 608 367 642 q 219 517 257 575 q 161 383 181 458 q 142 225 142 308 q 185 94 142 139 q 314 50 229 50 m 589 1014 l 679 1014 l 492 790 l 421 790 l 589 1014 z "},"ŕ":{"ha":460,"x_min":43,"x_max":556,"o":"m 508 706 l 494 640 q 360 632 421 640 q 250 610 299 624 l 121 0 l 43 0 l 182 660 q 344 694 264 683 q 508 706 424 706 m 465 1014 l 556 1014 l 368 790 l 297 790 l 465 1014 z "},"ř":{"ha":460,"x_min":43,"x_max":597,"o":"m 508 706 l 494 640 q 360 632 421 640 q 250 610 299 624 l 121 0 l 43 0 l 182 660 q 344 694 264 683 q 508 706 424 706 m 344 790 l 261 1014 l 331 1014 l 389 840 l 521 1014 l 597 1014 l 418 790 l 344 790 z "},"ŗ":{"ha":460,"x_min":-125,"x_max":508,"o":"m 508 706 l 494 640 q 360 632 421 640 q 250 610 299 624 l 121 0 l 43 0 l 182 660 q 344 694 264 683 q 508 706 424 706 m 19 -64 l 104 -64 l -58 -261 l -125 -261 l 19 -64 z "},"š":{"ha":574,"x_min":-4,"x_max":603,"o":"m 558 683 l 538 621 q 457 638 499 632 q 367 643 415 643 q 229 613 274 643 q 185 531 185 582 q 215 458 185 488 q 289 402 244 428 q 378 348 333 376 q 452 279 422 319 q 482 178 482 239 q 453 77 482 121 q 365 9 424 33 q 218 -15 307 -15 q 101 -3 163 -15 q -4 26 39 10 l 19 88 q 115 60 61 72 q 219 49 168 49 q 357 84 314 49 q 400 176 400 119 q 378 243 400 215 q 324 293 357 271 q 253 337 290 315 q 182 384 215 358 q 127 445 149 410 q 106 529 106 481 q 135 624 106 585 q 223 685 164 664 q 368 706 282 706 q 465 700 418 706 q 558 683 513 694 m 350 790 l 267 1014 l 336 1014 l 394 840 l 526 1014 l 603 1014 l 424 790 l 350 790 z "},"ś":{"ha":574,"x_min":-4,"x_max":561,"o":"m 558 683 l 538 621 q 457 638 499 632 q 367 643 415 643 q 229 613 274 643 q 185 531 185 582 q 215 458 185 488 q 289 402 244 428 q 378 348 333 376 q 452 279 422 319 q 482 178 482 239 q 453 77 482 121 q 365 9 424 33 q 218 -15 307 -15 q 101 -3 163 -15 q -4 26 39 10 l 19 88 q 115 60 61 72 q 219 49 168 49 q 357 84 314 49 q 400 176 400 119 q 378 243 400 215 q 324 293 357 271 q 253 337 290 315 q 182 384 215 358 q 127 445 149 410 q 106 529 106 481 q 135 624 106 585 q 223 685 164 664 q 368 706 282 706 q 465 700 418 706 q 558 683 513 694 m 471 1014 l 561 1014 l 374 790 l 303 790 l 471 1014 z "},"ş":{"ha":574,"x_min":-4,"x_max":558,"o":"m 558 683 l 538 621 q 457 638 499 632 q 367 643 415 643 q 229 613 274 643 q 185 531 185 582 q 215 458 185 488 q 289 402 244 428 q 378 348 333 376 q 452 279 422 319 q 482 178 482 239 q 453 77 482 121 q 365 9 424 33 q 218 -15 307 -15 q 101 -3 163 -15 q -4 26 39 10 l 19 88 q 115 60 61 72 q 219 49 168 49 q 357 84 314 49 q 400 176 400 119 q 378 243 400 215 q 324 293 357 271 q 253 337 290 315 q 182 384 215 358 q 127 445 149 410 q 106 529 106 481 q 135 624 106 585 q 223 685 164 664 q 368 706 282 706 q 465 700 418 706 q 558 683 513 694 m 178 -65 l 240 -65 q 255 -112 249 -85 q 261 -167 261 -140 q 228 -251 261 -225 q 138 -278 194 -278 q 93 -274 118 -278 q 50 -264 68 -271 l 69 -212 q 101 -221 82 -218 q 133 -224 119 -224 q 181 -208 165 -224 q 197 -156 197 -192 q 191 -110 197 -133 q 178 -65 185 -86 z "},"ŝ":{"ha":574,"x_min":-4,"x_max":558,"o":"m 558 683 l 538 621 q 457 638 499 632 q 367 643 415 643 q 229 613 274 643 q 185 531 185 582 q 215 458 185 488 q 289 402 244 428 q 378 348 333 376 q 452 279 422 319 q 482 178 482 239 q 453 77 482 121 q 365 9 424 33 q 218 -15 307 -15 q 101 -3 163 -15 q -4 26 39 10 l 19 88 q 115 60 61 72 q 219 49 168 49 q 357 84 314 49 q 400 176 400 119 q 378 243 400 215 q 324 293 357 271 q 253 337 290 315 q 182 384 215 358 q 127 445 149 410 q 106 529 106 481 q 135 624 106 585 q 223 685 164 664 q 368 706 282 706 q 465 700 418 706 q 558 683 513 694 m 399 1014 l 471 1014 l 556 790 l 486 790 l 426 964 l 296 790 l 218 790 l 399 1014 z "},"ș":{"ha":574,"x_min":-4,"x_max":558,"o":"m 558 683 l 538 621 q 457 638 499 632 q 367 643 415 643 q 229 613 274 643 q 185 531 185 582 q 215 458 185 488 q 289 402 244 428 q 378 348 333 376 q 452 279 422 319 q 482 178 482 239 q 453 77 482 121 q 365 9 424 33 q 218 -15 307 -15 q 101 -3 163 -15 q -4 26 39 10 l 19 88 q 115 60 61 72 q 219 49 168 49 q 357 84 314 49 q 400 176 400 119 q 378 243 400 215 q 324 293 357 271 q 253 337 290 315 q 182 384 215 358 q 127 445 149 410 q 106 529 106 481 q 135 624 106 585 q 223 685 164 664 q 368 706 282 706 q 465 700 418 706 q 558 683 513 694 m 157 -64 l 242 -64 l 79 -261 l 13 -261 l 157 -64 z "},"ţ":{"ha":479,"x_min":-6,"x_max":489,"o":"m 267 851 l 325 851 l 290 692 l 489 692 l 475 628 l 276 628 l 181 171 q 192 79 167 107 q 265 51 218 51 q 323 58 292 51 q 379 71 354 64 l 369 6 q 308 -10 340 -4 q 247 -15 276 -15 q 159 4 197 -15 q 104 65 121 24 q 101 171 88 106 l 199 628 l 92 628 l 106 692 l 213 692 l 267 851 m 139 -64 l 224 -64 l 61 -261 l -6 -261 l 139 -64 z "},"ț":{"ha":479,"x_min":-6,"x_max":489,"o":"m 267 851 l 325 851 l 290 692 l 489 692 l 475 628 l 276 628 l 181 171 q 192 79 167 107 q 265 51 218 51 q 323 58 292 51 q 379 71 354 64 l 369 6 q 308 -10 340 -4 q 247 -15 276 -15 q 159 4 197 -15 q 104 65 121 24 q 101 171 88 106 l 199 628 l 92 628 l 106 692 l 213 692 l 267 851 m 139 -64 l 224 -64 l 61 -261 l -6 -261 l 139 -64 z "},"ŧ":{"ha":479,"x_min":33,"x_max":489,"o":"m 33 354 l 46 413 l 401 413 l 389 354 l 33 354 m 265 851 l 324 851 l 290 692 l 489 692 l 475 628 l 276 628 l 179 171 q 191 79 165 107 q 264 51 217 51 q 322 57 290 51 q 379 71 354 63 l 369 7 q 308 -9 340 -4 q 247 -14 275 -14 q 159 5 197 -14 q 104 65 121 24 q 101 171 88 106 l 199 628 l 92 628 l 106 692 l 213 692 l 265 851 z "},"ť":{"ha":497,"x_min":88,"x_max":594,"o":"m 519 1014 l 594 1014 l 456 785 l 399 785 l 519 1014 m 267 851 l 325 851 l 290 692 l 489 692 l 475 628 l 278 628 l 179 171 q 192 79 167 107 q 265 51 217 51 q 322 57 290 51 q 381 71 354 63 l 369 7 q 308 -9 340 -4 q 247 -14 276 -14 q 159 5 197 -14 q 104 65 121 24 q 101 171 88 106 l 200 628 l 93 628 l 106 692 l 213 692 l 267 851 z "},"ú":{"ha":797,"x_min":68,"x_max":736,"o":"m 726 7 q 626 -15 678 -15 q 552 5 583 -15 q 511 68 521 25 q 418 10 472 36 q 292 -15 364 -15 q 170 13 224 -15 q 92 99 117 42 q 86 244 68 157 l 182 692 l 261 692 l 164 238 q 167 131 150 172 q 222 72 185 90 q 306 53 260 53 q 408 75 360 53 q 501 136 456 97 l 619 692 l 699 692 l 585 156 q 591 77 574 103 q 646 51 608 51 q 690 57 667 51 q 736 72 714 63 l 726 7 m 550 1014 l 640 1014 l 453 790 l 382 790 l 550 1014 z "},"û":{"ha":797,"x_min":68,"x_max":736,"o":"m 726 7 q 626 -15 678 -15 q 552 5 583 -15 q 511 68 521 25 q 418 10 472 36 q 292 -15 364 -15 q 170 13 224 -15 q 92 99 117 42 q 86 244 68 157 l 182 692 l 261 692 l 164 238 q 167 131 150 172 q 222 72 185 90 q 306 53 260 53 q 408 75 360 53 q 501 136 456 97 l 619 692 l 699 692 l 585 156 q 591 77 574 103 q 646 51 608 51 q 690 57 667 51 q 736 72 714 63 l 726 7 m 476 1014 l 549 1014 l 633 790 l 564 790 l 504 964 l 374 790 l 296 790 l 476 1014 z "},"ü":{"ha":797,"x_min":68,"x_max":736,"o":"m 726 7 q 626 -15 678 -15 q 552 5 583 -15 q 511 68 521 25 q 418 10 472 36 q 292 -15 364 -15 q 170 13 224 -15 q 92 99 117 42 q 86 244 68 157 l 182 692 l 261 692 l 164 238 q 167 131 150 172 q 222 72 185 90 q 306 53 260 53 q 408 75 360 53 q 501 136 456 97 l 619 692 l 699 692 l 585 156 q 591 77 574 103 q 646 51 608 51 q 690 57 667 51 q 736 72 714 63 l 726 7 m 399 960 q 428 950 418 960 q 439 921 439 940 q 422 878 439 894 q 378 863 406 863 q 348 872 358 863 q 338 900 338 882 q 355 944 338 928 q 399 960 372 960 m 606 960 q 636 950 625 960 q 647 921 647 940 q 630 878 647 894 q 585 863 613 863 q 556 872 567 863 q 544 900 544 882 q 562 944 544 928 q 606 960 579 960 z "},"ù":{"ha":797,"x_min":68,"x_max":736,"o":"m 726 7 q 626 -15 678 -15 q 552 5 583 -15 q 511 68 521 25 q 418 10 472 36 q 292 -15 364 -15 q 170 13 224 -15 q 92 99 117 42 q 86 244 68 157 l 182 692 l 261 692 l 164 238 q 167 131 150 172 q 222 72 185 90 q 306 53 260 53 q 408 75 360 53 q 501 136 456 97 l 619 692 l 699 692 l 585 156 q 591 77 574 103 q 646 51 608 51 q 690 57 667 51 q 736 72 714 63 l 726 7 m 342 1014 l 426 1014 l 497 790 l 433 790 l 342 1014 z "},"ŭ":{"ha":797,"x_min":68,"x_max":736,"o":"m 726 7 q 626 -15 678 -15 q 552 5 583 -15 q 511 68 521 25 q 418 10 472 36 q 292 -15 364 -15 q 170 13 224 -15 q 92 99 117 42 q 86 244 68 157 l 182 692 l 261 692 l 164 238 q 167 131 150 172 q 222 72 185 90 q 306 53 260 53 q 408 75 360 53 q 501 136 456 97 l 619 692 l 699 692 l 585 156 q 591 77 574 103 q 646 51 608 51 q 690 57 667 51 q 736 72 714 63 l 726 7 m 322 986 l 389 986 q 401 899 378 925 q 482 874 425 874 q 574 899 539 874 q 624 986 610 925 l 690 986 q 619 858 672 900 q 481 817 567 817 q 384 835 424 817 q 328 892 344 854 q 322 986 311 929 z "},"ű":{"ha":797,"x_min":68,"x_max":736,"o":"m 726 7 q 626 -15 678 -15 q 552 5 583 -15 q 511 68 521 25 q 418 10 472 36 q 292 -15 364 -15 q 170 13 224 -15 q 92 99 117 42 q 86 244 68 157 l 182 692 l 261 692 l 164 238 q 167 131 150 172 q 222 72 185 90 q 306 53 260 53 q 408 75 360 53 q 501 136 456 97 l 619 692 l 699 692 l 585 156 q 591 77 574 103 q 646 51 608 51 q 690 57 667 51 q 736 72 714 63 l 726 7 m 467 1014 l 542 1014 l 408 790 l 349 790 l 467 1014 m 640 1014 l 718 1014 l 565 790 l 504 790 l 640 1014 z "},"ū":{"ha":797,"x_min":68,"x_max":736,"o":"m 726 7 q 626 -15 678 -15 q 552 5 583 -15 q 511 68 521 25 q 418 10 472 36 q 292 -15 364 -15 q 170 13 224 -15 q 92 99 117 42 q 86 244 68 157 l 182 692 l 261 692 l 164 238 q 167 131 150 172 q 222 72 185 90 q 306 53 260 53 q 408 75 360 53 q 501 136 456 97 l 619 692 l 699 692 l 585 156 q 591 77 574 103 q 646 51 608 51 q 690 57 667 51 q 736 72 714 63 l 726 7 m 336 926 l 651 926 l 639 868 l 324 868 l 336 926 z "},"ų":{"ha":797,"x_min":69,"x_max":736,"o":"m 726 7 q 676 -9 701 -4 q 626 -14 651 -14 q 552 6 583 -14 q 511 68 521 25 q 418 11 472 36 q 292 -14 364 -14 q 170 14 224 -14 q 93 99 117 42 q 88 244 69 157 l 183 692 l 261 692 l 164 238 q 167 131 150 172 q 222 72 185 90 q 306 53 260 53 q 408 75 360 53 q 501 136 457 97 l 621 692 l 699 692 l 585 156 q 591 76 574 101 q 646 51 608 51 q 690 57 667 51 q 736 72 714 63 l 726 7 m 686 -174 l 683 -224 q 648 -233 668 -229 q 607 -236 628 -236 q 535 -215 563 -236 q 507 -156 507 -194 q 533 -86 507 -119 q 597 -26 560 -53 q 664 18 633 1 l 726 7 q 661 -33 697 -8 q 599 -85 625 -57 q 574 -144 574 -114 q 587 -175 574 -167 q 621 -183 600 -183 q 655 -181 639 -183 q 686 -174 671 -179 z "},"ů":{"ha":797,"x_min":68,"x_max":736,"o":"m 726 7 q 626 -15 678 -15 q 552 5 583 -15 q 511 68 521 25 q 418 10 472 36 q 292 -15 364 -15 q 170 13 224 -15 q 92 99 117 42 q 86 244 68 157 l 182 692 l 261 692 l 164 238 q 167 131 150 172 q 222 72 185 90 q 306 53 260 53 q 408 75 360 53 q 501 136 456 97 l 619 692 l 699 692 l 585 156 q 591 77 574 103 q 646 51 608 51 q 690 57 667 51 q 736 72 714 63 l 726 7 m 471 835 q 533 857 508 835 q 558 918 558 879 q 543 958 558 946 q 500 969 528 969 q 438 948 463 969 q 413 888 413 926 q 428 847 413 860 q 471 835 444 835 m 503 1017 q 583 991 553 1017 q 614 919 614 965 q 574 824 614 860 q 468 788 533 788 q 388 813 418 788 q 357 886 357 839 q 398 981 357 944 q 503 1017 439 1017 z "},"ũ":{"ha":797,"x_min":68,"x_max":736,"o":"m 726 7 q 626 -15 678 -15 q 552 5 583 -15 q 511 68 521 25 q 418 10 472 36 q 292 -15 364 -15 q 170 13 224 -15 q 92 99 117 42 q 86 244 68 157 l 182 692 l 261 692 l 164 238 q 167 131 150 172 q 222 72 185 90 q 306 53 260 53 q 408 75 360 53 q 501 136 456 97 l 619 692 l 699 692 l 585 156 q 591 77 574 103 q 646 51 608 51 q 690 57 667 51 q 736 72 714 63 l 726 7 m 336 842 l 282 863 q 326 928 300 900 q 400 956 353 956 q 458 942 428 956 q 518 915 489 929 q 568 901 547 901 q 610 918 596 901 q 636 957 625 935 l 689 936 q 644 869 671 897 q 571 842 617 842 q 513 856 544 842 q 453 883 482 869 q 404 897 425 897 q 362 881 378 897 q 336 842 346 864 z "},"ẃ":{"ha":1018,"x_min":122,"x_max":1035,"o":"m 621 692 l 701 88 q 840 375 774 221 q 957 692 907 529 l 1035 692 q 951 458 994 569 q 853 235 907 346 q 731 0 800 124 l 649 0 l 568 607 l 229 0 l 138 0 l 122 692 l 201 692 l 208 90 l 543 692 l 621 692 m 688 1014 l 778 1014 l 590 790 l 519 790 l 688 1014 z "},"ŵ":{"ha":1018,"x_min":122,"x_max":1035,"o":"m 621 692 l 701 88 q 840 375 774 221 q 957 692 907 529 l 1035 692 q 951 458 994 569 q 853 235 907 346 q 731 0 800 124 l 649 0 l 568 607 l 229 0 l 138 0 l 122 692 l 201 692 l 208 90 l 543 692 l 621 692 m 615 1014 l 688 1014 l 772 790 l 703 790 l 643 964 l 513 790 l 435 790 l 615 1014 z "},"ẅ":{"ha":1015,"x_min":122,"x_max":1035,"o":"m 621 692 l 701 88 q 840 375 774 221 q 957 692 907 529 l 1035 692 q 951 458 994 569 q 853 235 907 346 q 731 0 800 124 l 649 0 l 568 607 l 229 0 l 138 0 l 122 692 l 201 692 l 208 90 l 543 692 l 621 692 m 536 960 q 566 950 556 960 q 576 921 576 940 q 560 878 576 894 q 515 863 543 863 q 485 872 496 863 q 475 900 475 882 q 492 944 475 928 q 536 960 510 960 m 743 960 q 774 950 763 960 q 785 921 785 940 q 767 878 785 894 q 722 863 750 863 q 693 872 704 863 q 682 900 682 882 q 699 944 682 928 q 743 960 717 960 z "},"ẁ":{"ha":1015,"x_min":122,"x_max":1035,"o":"m 621 692 l 701 88 q 840 375 774 221 q 957 692 907 529 l 1035 692 q 951 458 994 569 q 853 235 907 346 q 731 0 800 124 l 649 0 l 568 607 l 229 0 l 138 0 l 122 692 l 201 692 l 208 90 l 543 692 l 621 692 m 482 1014 l 567 1014 l 638 790 l 574 790 l 482 1014 z "},"ý":{"ha":740,"x_min":8,"x_max":699,"o":"m 296 -10 q 171 18 225 -10 q 92 102 117 46 q 86 243 68 158 l 182 692 l 261 692 l 165 242 q 169 135 151 176 q 224 76 186 94 q 308 57 263 57 q 409 78 361 57 q 503 139 457 100 l 619 692 l 699 692 l 543 -36 q 488 -169 526 -117 q 385 -249 450 -222 q 221 -275 319 -275 q 111 -266 165 -275 q 8 -239 57 -257 l 31 -178 q 128 -205 78 -196 q 225 -214 178 -214 q 351 -192 303 -214 q 425 -130 399 -169 q 464 -39 451 -90 l 489 63 l 500 65 q 415 13 465 36 q 296 -10 364 -10 m 544 1014 l 635 1014 l 447 790 l 376 790 l 544 1014 z "},"ÿ":{"ha":740,"x_min":8,"x_max":699,"o":"m 296 -10 q 171 18 225 -10 q 92 102 117 46 q 86 243 68 158 l 182 692 l 261 692 l 165 242 q 169 135 151 176 q 224 76 186 94 q 308 57 263 57 q 409 78 361 57 q 503 139 457 100 l 619 692 l 699 692 l 543 -36 q 488 -169 526 -117 q 385 -249 450 -222 q 221 -275 319 -275 q 111 -266 165 -275 q 8 -239 57 -257 l 31 -178 q 128 -205 78 -196 q 225 -214 178 -214 q 351 -192 303 -214 q 425 -130 399 -169 q 464 -39 451 -90 l 489 63 l 500 65 q 415 13 465 36 q 296 -10 364 -10 m 392 960 q 422 950 411 960 q 432 921 432 940 q 415 878 432 894 q 371 863 399 863 q 341 872 351 863 q 331 900 331 882 q 348 944 331 928 q 392 960 365 960 m 599 960 q 629 950 618 960 q 640 921 640 940 q 623 878 640 894 q 578 863 606 863 q 549 872 560 863 q 538 900 538 882 q 555 944 538 928 q 599 960 572 960 z "},"ŷ":{"ha":740,"x_min":8,"x_max":699,"o":"m 296 -10 q 171 18 225 -10 q 92 102 117 46 q 86 243 68 158 l 182 692 l 261 692 l 165 242 q 169 135 151 176 q 224 76 186 94 q 308 57 263 57 q 409 78 361 57 q 503 139 457 100 l 619 692 l 699 692 l 543 -36 q 488 -169 526 -117 q 385 -249 450 -222 q 221 -275 319 -275 q 111 -266 165 -275 q 8 -239 57 -257 l 31 -178 q 128 -205 78 -196 q 225 -214 178 -214 q 351 -192 303 -214 q 425 -130 399 -169 q 464 -39 451 -90 l 489 63 l 500 65 q 415 13 465 36 q 296 -10 364 -10 m 471 1014 l 543 1014 l 628 790 l 558 790 l 499 964 l 368 790 l 290 790 l 471 1014 z "},"ỳ":{"ha":740,"x_min":8,"x_max":699,"o":"m 296 -10 q 171 18 225 -10 q 92 102 117 46 q 86 243 68 158 l 182 692 l 261 692 l 165 242 q 169 135 151 176 q 224 76 186 94 q 308 57 263 57 q 409 78 361 57 q 503 139 457 100 l 619 692 l 699 692 l 543 -36 q 488 -169 526 -117 q 385 -249 450 -222 q 221 -275 319 -275 q 111 -266 165 -275 q 8 -239 57 -257 l 31 -178 q 128 -205 78 -196 q 225 -214 178 -214 q 351 -192 303 -214 q 425 -130 399 -169 q 464 -39 451 -90 l 489 63 l 500 65 q 415 13 465 36 q 296 -10 364 -10 m 336 1014 l 421 1014 l 492 790 l 428 790 l 336 1014 z "},"ž":{"ha":624,"x_min":-26,"x_max":642,"o":"m 131 692 l 642 692 l 631 636 l 89 64 l 519 64 l 506 0 l -26 0 l -15 56 l 528 628 l 117 628 l 131 692 m 364 790 l 281 1014 l 350 1014 l 408 840 l 540 1014 l 617 1014 l 438 790 l 364 790 z "},"ź":{"ha":624,"x_min":-26,"x_max":642,"o":"m 131 692 l 642 692 l 631 636 l 89 64 l 519 64 l 506 0 l -26 0 l -15 56 l 528 628 l 117 628 l 131 692 m 485 1014 l 575 1014 l 388 790 l 317 790 l 485 1014 z "},"ż":{"ha":624,"x_min":-26,"x_max":642,"o":"m 131 692 l 642 692 l 631 636 l 89 64 l 519 64 l 506 0 l -26 0 l -15 56 l 528 628 l 117 628 l 131 692 m 436 960 q 470 949 458 960 q 482 919 482 939 q 464 876 482 892 q 417 861 446 861 q 384 872 396 861 q 372 901 372 883 q 390 944 372 929 q 436 960 407 960 z "},"´":{"ha":729,"x_min":375,"x_max":633,"o":"m 543 1014 l 633 1014 l 446 790 l 375 790 l 543 1014 z "},"`":{"ha":729,"x_min":338,"x_max":493,"o":"m 338 1014 l 422 1014 l 493 790 l 429 790 l 338 1014 z "},"ˆ":{"ha":729,"x_min":290,"x_max":628,"o":"m 471 1014 l 543 1014 l 628 790 l 558 790 l 499 964 l 368 790 l 290 790 l 471 1014 z "},"ˇ":{"ha":729,"x_min":339,"x_max":675,"o":"m 422 790 l 339 1014 l 408 1014 l 467 840 l 599 1014 l 675 1014 l 496 790 l 422 790 z "},"˜":{"ha":729,"x_min":278,"x_max":685,"o":"m 332 842 l 278 863 q 322 928 296 900 q 396 956 349 956 q 454 942 424 956 q 514 915 485 929 q 564 901 543 901 q 606 918 592 901 q 632 957 621 935 l 685 936 q 640 869 667 897 q 567 842 613 842 q 509 856 540 842 q 449 883 478 869 q 400 897 421 897 q 358 881 374 897 q 332 842 342 864 z "},"¨":{"ha":729,"x_min":331,"x_max":640,"o":"m 392 960 q 422 950 411 960 q 432 921 432 940 q 415 878 432 894 q 371 863 399 863 q 341 872 351 863 q 331 900 331 882 q 348 944 331 928 q 392 960 365 960 m 599 960 q 629 950 618 960 q 640 921 640 940 q 623 878 640 894 q 578 863 606 863 q 549 872 560 863 q 538 900 538 882 q 555 944 538 928 q 599 960 572 960 z "},"˚":{"ha":729,"x_min":353,"x_max":610,"o":"m 467 835 q 529 857 504 835 q 554 918 554 879 q 539 958 554 946 q 496 969 524 969 q 433 948 458 969 q 408 888 408 926 q 424 847 408 860 q 467 835 440 835 m 499 1017 q 579 991 549 1017 q 610 919 610 965 q 569 824 610 860 q 464 788 529 788 q 383 813 414 788 q 353 886 353 839 q 394 981 353 944 q 499 1017 435 1017 z "},"¸":{"ha":729,"x_min":140,"x_max":351,"o":"m 268 -60 l 331 -60 q 345 -107 339 -79 q 351 -161 351 -135 q 318 -246 351 -219 q 228 -272 285 -272 q 183 -269 208 -272 q 140 -258 158 -265 l 160 -207 q 191 -215 172 -212 q 224 -218 210 -218 q 272 -202 256 -218 q 288 -150 288 -186 q 281 -104 288 -128 q 268 -60 275 -81 z "},"˝":{"ha":729,"x_min":303,"x_max":672,"o":"m 421 1014 l 496 1014 l 363 790 l 303 790 l 421 1014 m 594 1014 l 672 1014 l 519 790 l 458 790 l 594 1014 z "},"˘":{"ha":729,"x_min":306,"x_max":685,"o":"m 317 986 l 383 986 q 396 899 372 925 q 476 874 419 874 q 569 899 533 874 q 618 986 604 925 l 685 986 q 614 858 667 900 q 475 817 561 817 q 378 835 418 817 q 322 892 339 854 q 317 986 306 929 z "},"¯":{"ha":729,"x_min":318,"x_max":646,"o":"m 331 926 l 646 926 l 633 868 l 318 868 l 331 926 z "},"˙":{"ha":729,"x_min":431,"x_max":540,"o":"m 494 960 q 528 949 517 960 q 540 919 540 939 q 522 876 540 892 q 475 861 504 861 q 442 872 454 861 q 431 901 431 883 q 448 944 431 929 q 494 960 465 960 z "},"·":{"ha":586,"x_min":243,"x_max":353,"o":"m 308 425 q 341 415 329 425 q 353 385 353 404 q 335 342 353 357 q 289 326 318 326 q 255 338 267 326 q 243 367 243 349 q 261 410 243 394 q 308 425 279 425 z "},"˛":{"ha":729,"x_min":113,"x_max":329,"o":"m 290 -174 l 288 -224 q 253 -233 272 -229 q 213 -236 233 -236 q 140 -215 167 -236 q 113 -156 113 -194 q 138 -89 113 -121 q 200 -31 164 -57 q 267 11 236 -6 l 329 0 q 265 -39 300 -15 q 203 -90 229 -62 q 178 -144 178 -117 q 191 -175 178 -167 q 226 -183 204 -183 q 259 -181 243 -183 q 290 -174 275 -179 z "},".":{"ha":364,"x_min":61,"x_max":172,"o":"m 128 85 q 160 74 149 85 q 172 46 172 64 q 153 2 172 18 q 106 -14 135 -14 q 73 -3 85 -14 q 61 26 61 8 q 80 69 61 54 q 128 85 99 85 z "},",":{"ha":400,"x_min":-19,"x_max":235,"o":"m 150 99 l 235 99 l 47 -217 l -19 -217 l 150 99 z "},":":{"ha":364,"x_min":61,"x_max":306,"o":"m 128 85 q 160 74 149 85 q 172 46 172 64 q 153 2 172 18 q 106 -14 135 -14 q 73 -3 85 -14 q 61 26 61 8 q 80 69 61 54 q 128 85 99 85 m 260 706 q 294 695 282 706 q 306 665 306 685 q 287 623 306 639 q 239 607 268 607 q 205 618 217 607 q 193 647 193 629 q 212 690 193 675 q 260 706 231 706 z "},";":{"ha":364,"x_min":-93,"x_max":306,"o":"m 78 99 l 163 99 l -25 -217 l -93 -217 l 78 99 m 260 706 q 294 695 282 706 q 306 665 306 685 q 287 623 306 639 q 239 607 268 607 q 205 618 217 607 q 193 647 193 629 q 212 690 193 675 q 260 706 231 706 z "},"…":{"ha":1129,"x_min":61,"x_max":938,"o":"m 128 85 q 160 74 149 85 q 172 44 172 64 q 153 2 172 18 q 106 -14 135 -14 q 73 -3 85 -14 q 61 26 61 8 q 80 69 61 54 q 128 85 99 85 m 510 85 q 543 74 532 85 q 554 44 554 64 q 536 2 554 18 q 488 -14 518 -14 q 455 -3 467 -14 q 443 26 443 8 q 462 69 443 54 q 510 85 481 85 m 893 85 q 926 74 914 85 q 938 44 938 64 q 919 2 938 18 q 871 -14 900 -14 q 838 -3 849 -14 q 826 26 826 8 q 844 69 826 54 q 893 85 863 85 z "},"?":{"ha":551,"x_min":125,"x_max":596,"o":"m 596 760 q 576 656 596 699 q 523 580 556 613 q 452 519 490 547 q 377 459 414 490 q 313 387 340 428 q 272 286 285 346 l 254 206 l 176 206 l 197 299 q 250 425 214 375 q 331 512 286 475 q 417 581 376 549 q 485 652 458 613 q 513 749 513 692 q 472 841 513 813 q 353 869 432 869 q 255 863 304 869 q 161 846 206 856 l 167 915 q 265 933 214 926 q 365 939 315 939 q 492 919 440 939 q 569 860 543 900 q 596 760 596 821 m 192 85 q 226 74 214 85 q 238 44 238 64 q 219 2 238 18 q 171 -14 200 -14 q 137 -3 149 -14 q 125 26 125 8 q 144 69 125 54 q 192 85 163 85 z "},"!":{"ha":394,"x_min":76,"x_max":364,"o":"m 276 924 l 364 924 l 200 206 l 136 206 l 276 924 m 143 85 q 176 74 164 85 q 188 44 188 64 q 169 2 188 18 q 121 -14 150 -14 q 88 -3 100 -14 q 76 26 76 8 q 95 69 76 54 q 143 85 114 85 z "},"¿":{"ha":539,"x_min":-47,"x_max":424,"o":"m -47 -69 q -27 35 -47 -8 q 26 110 -7 78 q 96 172 58 143 q 170 231 133 200 q 235 304 207 263 q 276 406 264 346 l 294 485 l 372 485 l 351 392 q 299 265 335 315 q 217 179 263 215 q 131 110 172 143 q 63 39 90 78 q 36 -58 36 0 q 76 -149 36 -121 q 196 -178 117 -178 q 294 -171 244 -178 q 388 -154 344 -164 l 382 -224 q 284 -241 335 -235 q 183 -247 233 -247 q 58 -228 110 -247 q -21 -169 6 -208 q -47 -69 -47 -129 m 357 607 q 323 618 335 607 q 311 647 311 629 q 330 690 311 675 q 378 706 349 706 q 412 695 400 706 q 424 665 424 685 q 405 623 424 639 q 357 607 386 607 z "},"¡":{"ha":394,"x_min":32,"x_max":319,"o":"m 119 -233 l 32 -233 l 194 486 l 260 486 l 119 -233 m 253 607 q 219 618 231 607 q 207 647 207 629 q 226 690 207 675 q 274 706 244 706 q 308 695 296 706 q 319 665 319 685 q 301 623 319 639 q 253 607 282 607 z "},"(":{"ha":417,"x_min":132,"x_max":543,"o":"m 196 -239 q 148 -72 164 -162 q 132 118 132 19 q 153 357 132 236 q 217 594 175 478 q 319 817 258 711 q 456 1014 379 924 l 543 1014 q 365 737 439 888 q 253 428 292 586 q 214 118 214 271 q 230 -69 214 21 q 276 -239 246 -158 l 196 -239 z "},")":{"ha":417,"x_min":-107,"x_max":303,"o":"m 239 1014 q 287 847 271 938 q 303 658 303 757 q 281 419 303 540 q 219 181 260 297 q 118 -42 178 64 q -19 -239 58 -149 l -107 -239 q 72 39 -1 -111 q 183 347 144 189 q 222 658 222 506 q 207 844 222 754 q 160 1014 192 935 l 239 1014 z "},"{":{"ha":476,"x_min":69,"x_max":599,"o":"m 78 354 l 93 428 q 189 452 161 431 q 228 525 217 474 q 242 630 238 571 q 253 749 247 689 q 269 856 260 808 q 337 985 288 940 q 488 1029 386 1029 q 550 1026 515 1029 q 599 1021 585 1024 l 578 954 q 536 959 563 957 q 490 961 510 961 q 391 930 422 961 q 347 842 360 899 q 331 735 338 796 q 319 615 325 674 q 306 514 314 556 q 264 424 292 450 q 188 386 236 397 q 238 356 221 376 q 256 300 256 336 q 240 212 256 265 q 203 99 224 158 q 166 -14 182 40 q 150 -104 150 -68 q 172 -160 150 -140 q 247 -179 194 -179 q 295 -176 267 -179 q 339 -171 324 -172 l 332 -239 q 287 -243 317 -240 q 229 -246 257 -246 q 108 -212 146 -246 q 69 -117 69 -178 q 85 -22 69 -76 q 122 92 101 33 q 159 204 143 151 q 175 294 175 257 q 153 340 175 326 q 78 354 132 353 z "},"}":{"ha":476,"x_min":-103,"x_max":426,"o":"m 418 428 l 403 354 q 308 331 335 353 q 269 258 281 310 q 254 153 260 213 q 243 34 249 93 q 226 -72 238 -25 q 160 -201 208 -157 q 8 -246 111 -246 q -53 -243 -19 -246 q -103 -239 -87 -240 l -82 -171 q -40 -176 -65 -174 q 7 -179 -14 -179 q 106 -147 75 -179 q 149 -58 136 -115 q 165 48 158 -12 q 177 168 171 108 q 192 269 183 228 q 233 359 204 333 q 308 397 261 385 q 259 427 276 407 q 242 482 242 447 q 258 572 242 518 q 294 684 274 625 q 330 797 314 743 q 346 886 346 850 q 324 942 346 922 q 250 961 303 961 q 201 959 229 961 q 157 954 172 957 l 164 1021 q 210 1026 179 1024 q 267 1029 240 1029 q 389 994 351 1029 q 426 899 426 960 q 410 803 426 858 q 374 690 394 749 q 337 579 353 632 q 321 489 321 526 q 342 444 321 458 q 418 428 364 431 z "},"[":{"ha":429,"x_min":40,"x_max":550,"o":"m 307 1014 l 550 1014 l 535 942 l 371 942 l 135 -167 l 299 -167 l 283 -239 l 40 -239 l 307 1014 z "},"]":{"ha":429,"x_min":-101,"x_max":408,"o":"m 408 1014 l 142 -239 l -101 -239 l -86 -167 l 76 -167 l 313 942 l 149 942 l 164 1014 l 408 1014 z "},"/":{"ha":635,"x_min":-50,"x_max":733,"o":"m 647 1014 l 733 1014 l 39 -74 l -50 -74 l 647 1014 z "},"\\":{"ha":635,"x_min":186,"x_max":506,"o":"m 186 1014 l 265 1014 l 506 -74 l 426 -74 l 186 1014 z "},"_":{"ha":913,"x_min":-31,"x_max":776,"o":"m -19 -21 l 776 -21 l 765 -75 l -31 -75 l -19 -21 z "},"-":{"ha":511,"x_min":88,"x_max":438,"o":"m 101 411 l 438 411 l 424 343 l 88 343 l 101 411 z "},"­":{"ha":0,"x_min":0,"x_max":0,"o":""},"–":{"ha":769,"x_min":88,"x_max":697,"o":"m 101 411 l 697 411 l 682 343 l 88 343 l 101 411 z "},"—":{"ha":1061,"x_min":88,"x_max":989,"o":"m 101 411 l 989 411 l 975 343 l 88 343 l 101 411 z "},"¦":{"ha":400,"x_min":28,"x_max":403,"o":"m 324 1111 l 403 1111 l 283 554 l 206 554 l 324 1111 m 147 279 l 225 279 l 107 -278 l 28 -278 l 147 279 z "},"|":{"ha":400,"x_min":28,"x_max":403,"o":"m 324 1111 l 403 1111 l 107 -278 l 28 -278 l 324 1111 z "},"«":{"ha":740,"x_min":94,"x_max":725,"o":"m 353 656 l 447 656 l 182 369 l 319 97 l 235 97 l 94 376 l 353 656 m 631 656 l 725 656 l 460 369 l 597 97 l 513 97 l 372 376 l 631 656 z "},"»":{"ha":740,"x_min":29,"x_max":660,"o":"m 401 97 l 307 97 l 572 383 l 435 656 l 519 656 l 660 376 l 401 97 m 122 97 l 29 97 l 294 383 l 157 656 l 240 656 l 382 376 l 122 97 z "},"‹":{"ha":461,"x_min":93,"x_max":447,"o":"m 353 656 l 447 656 l 182 369 l 319 97 l 235 97 l 93 376 l 353 656 z "},"›":{"ha":461,"x_min":29,"x_max":382,"o":"m 122 97 l 29 97 l 294 383 l 157 656 l 240 656 l 382 376 l 122 97 z "},"‚":{"ha":229,"x_min":-122,"x_max":132,"o":"m 47 99 l 132 99 l -56 -217 l -122 -217 l 47 99 z "},"„":{"ha":415,"x_min":-147,"x_max":319,"o":"m 22 99 l 108 99 l -81 -217 l -147 -217 l 22 99 m 235 99 l 319 99 l 131 -217 l 65 -217 l 235 99 z "},"‘":{"ha":272,"x_min":104,"x_max":358,"o":"m 190 608 l 104 608 l 293 924 l 358 924 l 190 608 z "},"“":{"ha":482,"x_min":104,"x_max":569,"o":"m 400 608 l 314 608 l 503 924 l 569 924 l 400 608 m 189 608 l 104 608 l 292 924 l 358 924 l 189 608 z "},"’":{"ha":272,"x_min":94,"x_max":350,"o":"m 264 924 l 350 924 l 161 608 l 94 608 l 264 924 z "},"”":{"ha":482,"x_min":94,"x_max":561,"o":"m 263 924 l 350 924 l 160 608 l 94 608 l 263 924 m 475 924 l 561 924 l 372 608 l 306 608 l 475 924 z "},"'":{"ha":275,"x_min":163,"x_max":301,"o":"m 219 924 l 301 924 l 224 607 l 163 607 l 219 924 z "},"\"":{"ha":415,"x_min":133,"x_max":472,"o":"m 189 924 l 271 924 l 193 607 l 133 607 l 189 924 m 390 924 l 472 924 l 394 607 l 333 607 l 390 924 z "},"•":{"ha":510,"x_min":147,"x_max":376,"o":"m 283 481 q 351 460 326 481 q 376 399 376 439 q 336 305 376 336 q 240 274 296 274 q 172 295 197 274 q 147 356 147 317 q 188 449 147 417 q 283 481 228 481 z "},"№":{"ha":1415,"x_min":57,"x_max":1424,"o":"m 994 375 l 1319 375 l 1306 311 l 982 311 l 994 375 m 253 924 l 326 924 l 757 321 l 885 924 l 965 924 l 769 0 l 689 0 l 733 210 l 308 806 l 138 0 l 57 0 l 253 924 m 1263 915 q 1383 874 1342 915 q 1424 757 1424 833 q 1411 656 1424 710 q 1370 553 1399 601 q 1295 475 1342 506 q 1181 444 1249 444 q 1060 485 1101 444 q 1019 603 1019 526 q 1032 704 1019 650 q 1073 806 1044 758 q 1148 885 1101 854 q 1263 915 1194 915 m 1185 508 q 1266 533 1233 508 q 1318 595 1299 557 q 1346 675 1338 633 q 1354 751 1354 717 q 1258 851 1354 851 q 1176 827 1210 851 q 1124 765 1143 803 q 1096 684 1104 726 q 1088 607 1088 642 q 1185 508 1088 508 z "},"&":{"ha":829,"x_min":33,"x_max":768,"o":"m 375 543 l 711 0 l 615 0 l 304 511 q 248 613 272 564 q 224 717 224 663 q 255 836 224 786 q 340 913 286 886 q 460 939 393 939 q 598 894 549 939 q 647 778 647 850 q 618 667 647 714 q 542 582 589 619 q 438 513 494 544 q 324 450 381 482 q 219 381 267 418 q 143 297 172 344 q 114 186 114 250 q 159 85 114 121 q 285 50 204 50 q 397 71 342 50 q 506 131 453 92 q 610 226 560 171 q 707 349 661 281 l 768 326 q 657 178 715 242 q 535 72 599 115 q 406 8 472 29 q 272 -14 339 -14 q 95 40 157 -14 q 33 185 33 93 q 63 314 33 260 q 140 408 92 368 q 245 481 188 449 q 360 542 303 513 q 465 605 417 572 q 542 679 513 638 q 571 778 571 721 q 538 852 571 826 q 457 878 506 878 q 383 860 418 878 q 324 808 347 843 q 301 721 301 774 q 323 634 301 675 q 375 543 344 593 z "},"¶":{"ha":835,"x_min":118,"x_max":836,"o":"m 771 924 l 836 924 l 593 -219 l 528 -219 l 771 924 m 379 328 q 182 390 246 328 q 118 557 118 451 q 217 828 118 732 q 504 924 317 924 l 638 924 l 394 -219 l 329 -219 l 446 328 q 415 328 432 328 q 379 328 399 328 z "},"†":{"ha":576,"x_min":96,"x_max":601,"o":"m 369 924 l 450 924 l 394 663 l 601 663 l 588 596 l 381 596 l 297 206 l 217 206 l 300 596 l 96 596 l 110 663 l 314 663 l 369 924 z "},"‡":{"ha":603,"x_min":74,"x_max":625,"o":"m 133 711 l 338 711 l 383 924 l 464 924 l 418 711 l 625 711 l 611 643 l 404 643 l 374 500 l 581 500 l 567 432 l 358 432 l 311 206 l 231 206 l 278 432 l 74 432 l 88 500 l 292 500 l 322 643 l 118 643 l 133 711 z "},"§":{"ha":658,"x_min":-85,"x_max":697,"o":"m 82 374 q 131 501 82 451 q 247 572 179 551 q 188 640 213 603 q 164 724 164 676 q 203 846 164 799 q 315 915 243 893 q 482 938 386 938 q 603 931 543 938 q 697 917 663 924 l 674 849 q 617 859 651 854 q 545 867 583 864 q 472 869 507 869 q 305 835 364 869 q 246 731 246 801 q 270 660 246 692 q 333 600 294 628 q 414 544 371 572 q 495 483 457 515 q 558 409 533 450 q 582 315 582 368 q 538 183 582 239 q 433 101 494 128 q 472 40 457 74 q 488 -36 488 6 q 449 -165 488 -112 q 342 -245 410 -218 q 188 -272 275 -272 q 36 -258 108 -272 q -85 -226 -36 -243 l -60 -161 q 52 -192 -15 -178 q 192 -206 119 -206 q 347 -165 286 -206 q 407 -42 407 -124 q 383 40 407 4 q 323 104 360 75 q 244 162 286 133 q 166 221 203 190 q 106 288 129 251 q 82 374 82 325 m 161 382 q 184 314 161 344 q 242 257 207 283 q 317 204 278 231 q 390 147 357 178 q 474 209 442 165 q 506 307 506 253 q 474 398 506 361 q 397 465 443 435 q 306 528 350 496 q 235 503 268 522 q 182 453 203 483 q 161 382 161 422 z "},"*":{"ha":521,"x_min":128,"x_max":571,"o":"m 158 814 l 325 758 l 350 924 l 418 924 l 372 758 l 563 814 l 571 758 l 381 715 l 476 582 l 422 542 l 339 686 l 193 542 l 147 582 l 301 715 l 128 758 l 158 814 z "},"™":{"ha":939,"x_min":150,"x_max":989,"o":"m 161 924 l 488 924 l 476 871 l 346 871 l 268 508 l 206 508 l 282 871 l 150 871 l 161 924 m 739 596 l 689 596 l 619 833 l 550 508 l 493 508 l 581 924 l 647 924 l 725 656 l 919 924 l 989 924 l 900 508 l 842 508 l 911 833 l 739 596 z "},"®":{"ha":858,"x_min":107,"x_max":854,"o":"m 446 744 l 414 593 q 441 590 425 592 q 474 588 457 588 q 529 597 503 588 q 573 628 556 607 q 590 685 590 650 q 572 732 593 719 q 514 744 550 744 l 446 744 m 403 788 l 525 788 q 613 762 581 788 q 643 685 646 736 q 609 602 642 631 q 538 563 576 574 q 569 535 561 554 q 581 489 578 517 l 596 394 l 544 394 l 532 483 q 512 529 526 514 q 463 544 497 544 q 428 547 446 544 q 404 550 411 549 l 372 394 l 319 394 l 403 788 m 421 275 q 628 324 542 275 q 760 457 714 374 q 806 643 806 540 q 737 826 806 764 q 540 889 668 889 q 334 840 421 889 q 201 708 247 792 q 156 521 156 625 q 225 338 156 401 q 421 275 294 275 m 540 932 q 770 857 686 932 q 854 643 854 782 q 801 438 854 532 q 651 288 749 344 q 419 232 553 232 q 191 307 275 232 q 107 521 107 382 q 160 726 107 632 q 310 876 213 819 q 540 932 408 932 z "},"©":{"ha":1029,"x_min":86,"x_max":993,"o":"m 744 708 l 726 654 q 678 663 707 658 q 613 668 650 668 q 506 641 549 668 q 437 571 463 614 q 399 478 411 528 q 388 382 388 428 q 422 287 388 317 q 525 257 457 257 q 594 262 564 257 q 649 272 625 267 l 643 219 q 584 207 619 213 q 508 201 549 201 q 408 219 450 201 q 342 276 365 238 q 319 376 319 315 q 335 499 319 438 q 387 610 351 560 q 480 692 422 661 q 621 722 538 722 q 694 718 661 722 q 744 708 726 714 m 607 939 q 813 899 726 939 q 947 778 900 858 q 993 576 993 697 q 976 419 993 501 q 921 261 958 338 q 822 123 883 185 q 674 24 761 61 q 472 -12 588 -12 q 265 28 351 -12 q 133 149 179 68 q 86 350 86 229 q 103 507 86 425 q 158 665 121 589 q 257 803 196 742 q 405 902 318 865 q 607 939 492 939 m 474 36 q 654 69 576 36 q 787 160 732 103 q 876 287 842 217 q 926 432 910 357 q 942 575 942 507 q 902 753 942 683 q 788 857 863 824 q 606 890 713 890 q 425 857 503 890 q 292 767 347 824 q 203 640 238 710 q 153 494 169 569 q 138 351 138 419 q 177 174 138 244 q 292 70 217 104 q 474 36 367 36 z "},"@":{"ha":1167,"x_min":58,"x_max":1110,"o":"m 725 485 q 676 495 703 492 q 622 499 649 499 q 538 476 575 499 q 474 413 500 453 q 433 322 447 374 q 419 211 419 269 q 449 121 419 143 q 521 99 479 99 q 599 108 564 99 q 661 132 635 118 q 660 144 660 138 q 660 157 660 150 q 662 184 660 169 q 667 214 664 199 l 725 485 m 517 -185 q 680 -174 600 -185 q 824 -146 760 -162 l 818 -201 q 685 -230 763 -217 q 513 -243 607 -243 q 308 -209 394 -243 q 167 -117 222 -175 q 85 17 111 -58 q 58 176 58 93 q 85 393 58 290 q 163 581 111 496 q 292 728 215 665 q 467 826 368 792 q 686 860 565 860 q 932 808 839 860 q 1067 672 1025 757 q 1110 481 1110 586 q 1095 333 1110 401 q 1053 208 1081 264 q 990 111 1026 151 q 908 49 953 71 q 811 28 863 28 q 721 46 751 28 q 681 85 690 64 q 601 51 649 65 q 501 38 554 38 q 394 76 440 38 q 349 211 349 114 q 367 348 349 285 q 422 458 386 411 q 509 532 457 506 q 628 558 561 558 q 719 550 675 558 q 804 529 764 542 l 738 215 q 733 187 735 201 q 731 161 731 172 q 751 104 731 124 q 822 85 772 85 q 933 135 882 85 q 1017 274 985 185 q 1050 481 1050 363 q 1013 648 1050 575 q 896 763 976 721 q 682 804 815 804 q 510 781 588 804 q 369 715 432 757 q 260 614 307 672 q 181 485 213 556 q 135 338 150 415 q 119 176 119 260 q 142 35 119 101 q 214 -80 165 -31 q 338 -157 263 -129 q 517 -185 413 -185 z "},"ª":{"ha":426,"x_min":110,"x_max":471,"o":"m 349 571 l 378 706 q 337 712 358 708 q 292 715 315 715 q 201 691 236 715 q 167 614 167 667 q 189 570 167 583 q 246 557 211 557 q 297 560 268 557 q 349 571 325 564 m 199 874 l 203 924 q 260 935 229 931 q 324 939 290 939 q 433 906 396 939 q 456 800 471 874 l 397 535 q 328 517 369 525 q 239 508 286 508 q 149 531 188 508 q 110 610 110 554 q 156 719 110 678 q 290 760 203 760 q 342 756 315 760 q 386 750 368 753 l 399 803 q 395 856 406 838 q 363 881 385 874 q 315 888 342 888 q 251 884 279 888 q 199 874 224 881 z "},"º":{"ha":483,"x_min":132,"x_max":514,"o":"m 365 939 q 474 903 433 939 q 514 790 514 868 q 501 694 514 743 q 461 602 489 644 q 389 534 433 560 q 282 508 344 508 q 173 544 214 508 q 132 656 132 579 q 144 752 132 703 q 185 844 157 801 q 257 913 213 886 q 365 939 301 939 m 288 563 q 365 584 333 563 q 417 640 397 606 q 445 713 436 674 q 454 789 454 753 q 427 864 454 843 q 358 885 400 885 q 281 863 313 885 q 230 808 249 842 q 202 734 211 774 q 193 658 193 694 q 220 583 193 604 q 288 563 247 563 z "},"#":{"ha":906,"x_min":31,"x_max":926,"o":"m 460 924 l 543 924 l 436 644 l 661 644 l 768 924 l 851 924 l 744 644 l 926 644 l 900 576 l 718 576 l 632 350 l 813 350 l 785 282 l 604 282 l 496 0 l 413 0 l 519 282 l 294 282 l 189 0 l 106 0 l 213 282 l 31 282 l 58 350 l 239 350 l 326 576 l 146 576 l 172 644 l 353 644 l 460 924 m 410 576 l 322 350 l 547 350 l 635 576 l 410 576 z "},"€":{"ha":769,"x_min":54,"x_max":842,"o":"m 94 528 l 663 528 l 700 589 l 107 589 l 94 528 m 54 335 l 613 335 l 649 397 l 67 397 l 54 335 m 842 917 q 749 933 794 926 q 650 939 704 939 q 439 885 529 939 q 288 739 349 831 q 198 531 228 647 q 168 292 168 415 q 240 63 168 140 q 447 -14 313 -14 q 555 -7 504 -14 q 654 13 606 0 l 661 86 q 561 67 610 75 q 458 60 513 60 q 305 117 356 60 q 254 293 254 175 q 279 503 254 401 q 353 686 304 604 q 475 816 401 768 q 646 864 549 864 q 735 858 693 864 q 819 842 776 851 l 842 917 z "},"$":{"ha":676,"x_min":7,"x_max":693,"o":"m 510 926 l 443 926 l 468 1044 l 536 1044 l 510 926 m 247 -6 l 315 -3 l 286 -139 l 218 -139 l 247 -6 m 693 913 l 669 843 q 577 860 625 854 q 475 867 529 867 q 296 820 356 867 q 236 706 236 774 q 261 623 236 660 q 326 555 286 586 q 410 492 365 524 q 495 424 456 460 q 560 342 535 388 q 585 236 585 296 q 548 99 585 154 q 442 15 511 43 q 274 -14 372 -14 q 135 -1 201 -14 q 7 32 68 11 l 29 103 q 148 69 89 82 q 275 57 207 57 q 446 103 392 57 q 500 229 500 149 q 475 316 500 278 q 410 388 450 354 q 326 453 371 421 q 241 521 281 485 q 176 601 201 557 q 151 703 151 646 q 189 825 151 772 q 299 908 226 878 q 475 939 371 939 q 588 932 533 939 q 693 913 642 925 z "},"¥":{"ha":822,"x_min":78,"x_max":882,"o":"m 315 569 l 335 507 l 118 507 l 131 569 l 315 569 m 882 924 l 476 376 l 760 376 l 746 315 l 453 315 l 386 0 l 303 0 l 369 315 l 78 315 l 90 376 l 371 376 l 171 924 l 260 924 l 431 425 l 793 924 l 882 924 m 560 507 l 603 569 l 797 569 l 785 507 l 560 507 z "},"£":{"ha":729,"x_min":-25,"x_max":807,"o":"m 157 292 l 206 440 l 88 440 l 103 514 l 226 514 l 279 685 q 359 844 311 789 q 470 919 407 899 q 611 939 533 939 q 710 933 661 939 q 807 918 760 928 l 783 849 q 699 863 743 857 q 608 868 654 868 q 494 851 540 868 q 417 794 447 835 q 363 681 386 753 l 311 514 l 642 514 l 626 440 l 289 440 l 242 286 q 201 187 222 226 q 156 122 181 147 q 99 76 131 96 l 596 76 l 583 0 l -25 0 l -12 67 q 64 118 35 92 q 114 185 93 144 q 157 292 135 225 z "},"¢":{"ha":611,"x_min":90,"x_max":650,"o":"m 506 807 l 440 807 l 479 985 l 544 985 l 506 807 m 296 117 l 361 113 l 324 -62 l 257 -62 l 296 117 m 650 800 l 628 739 q 555 754 590 750 q 482 758 519 758 q 344 725 403 758 q 245 635 285 692 q 186 504 206 578 q 167 349 167 431 q 213 210 167 256 q 358 165 260 165 q 432 171 392 165 q 515 186 472 176 l 510 124 q 425 107 464 113 q 350 101 386 101 q 155 163 219 101 q 90 349 90 225 q 115 531 90 446 q 190 682 140 617 q 313 785 240 747 q 482 822 386 822 q 569 817 526 822 q 650 800 611 813 z "},"₡":{"ha":733,"x_min":78,"x_max":797,"o":"m 517 1063 l 583 1063 l 522 894 l 456 894 l 517 1063 m 706 1063 l 772 1063 l 710 893 l 643 893 l 706 1063 m 383 21 l 333 -108 l 267 -108 l 317 21 l 383 21 m 219 89 l 144 -108 l 78 -108 l 158 103 l 219 89 m 797 917 l 774 844 q 683 860 728 854 q 588 865 639 865 q 408 817 486 865 q 279 688 331 769 q 201 503 228 606 q 175 293 175 401 q 231 116 175 175 q 401 57 288 57 q 510 65 458 57 q 617 83 563 72 l 608 13 q 504 -7 557 0 q 389 -14 451 -14 q 168 63 246 -14 q 90 292 90 140 q 122 531 90 415 q 215 739 153 647 q 372 885 278 831 q 592 939 467 939 q 697 933 649 939 q 797 917 746 926 z "},"₮":{"ha":814,"x_min":114,"x_max":893,"o":"m 168 538 l 757 660 l 744 592 l 156 471 l 168 538 m 125 333 l 714 456 l 703 388 l 114 267 l 125 333 m 167 924 l 893 924 l 879 854 l 557 854 l 375 0 l 293 0 l 475 854 l 153 854 l 167 924 z "},"₴":{"ha":744,"x_min":65,"x_max":729,"o":"m 103 528 l 115 589 l 714 589 l 703 528 l 103 528 m 65 336 l 76 396 l 676 396 l 664 336 l 65 336 m 261 917 q 367 933 314 928 q 476 938 421 938 q 664 896 599 938 q 729 771 729 854 q 697 653 729 704 q 613 563 665 603 q 499 488 561 522 q 375 420 436 454 q 264 346 314 386 q 188 267 217 311 q 158 174 158 222 q 199 92 158 119 q 319 64 239 64 q 458 76 390 64 q 597 110 526 88 l 592 32 q 451 -2 522 10 q 307 -14 381 -14 q 131 31 190 -14 q 72 160 72 75 q 112 300 72 242 q 215 401 151 358 q 350 482 278 444 q 486 558 422 519 q 598 647 551 599 q 644 756 644 696 q 600 834 644 808 q 465 860 556 860 q 359 853 414 860 q 256 839 304 847 l 261 917 z "},"₺":{"ha":740,"x_min":39,"x_max":668,"o":"m 94 542 l 600 663 l 588 597 l 82 475 l 94 542 m 51 339 l 558 461 l 546 394 l 39 274 l 51 339 m 421 0 l 92 0 l 288 924 l 371 924 l 192 81 l 424 81 q 541 117 507 81 q 590 225 575 154 l 594 246 l 668 246 l 663 221 q 588 56 640 111 q 421 0 536 0 z "},"₹":{"ha":714,"x_min":75,"x_max":786,"o":"m 724 622 l 125 622 l 138 683 l 736 683 l 724 622 m 774 863 l 175 863 l 188 924 l 786 924 l 774 863 m 447 0 l 371 147 q 305 267 333 221 q 247 340 276 314 q 179 376 218 365 q 82 386 140 386 l 192 408 q 276 391 242 406 q 335 347 310 376 q 386 274 361 318 q 444 167 411 229 l 535 0 l 447 0 m 629 711 q 598 565 629 626 q 513 466 567 504 q 391 410 458 428 q 250 392 324 392 l 218 386 l 75 386 l 90 461 l 253 461 q 469 526 394 461 q 544 710 544 590 q 494 811 544 778 q 342 844 443 844 l 172 844 l 185 904 l 343 904 q 558 858 486 904 q 629 711 629 811 z "},"₫":{"ha":800,"x_min":-12,"x_max":875,"o":"m 0 -108 l 547 -108 l 535 -167 l -12 -167 l 0 -108 m 447 846 l 458 900 l 875 900 l 863 846 l 447 846 m 301 -15 q 181 12 233 -15 q 99 95 128 39 q 69 236 69 151 q 116 474 69 368 q 249 643 163 581 q 458 706 336 706 q 541 699 499 706 q 624 679 583 693 l 696 1014 l 775 1014 l 594 164 q 589 118 589 140 q 606 67 589 83 q 654 51 624 51 q 699 57 675 51 q 744 72 722 63 l 735 7 q 685 -9 710 -3 q 635 -15 660 -15 q 560 5 592 -15 q 519 69 529 25 q 426 11 481 38 q 301 -15 371 -15 m 611 613 q 534 633 574 626 q 454 639 494 639 q 291 584 360 639 q 185 438 222 529 q 149 238 149 347 q 192 97 149 143 q 313 51 236 51 q 414 73 365 51 q 510 133 463 94 l 611 613 z "},"₩":{"ha":1342,"x_min":67,"x_max":1331,"o":"m 106 535 l 118 596 l 275 596 l 267 535 l 106 535 m 67 343 l 79 404 l 279 404 l 274 343 l 67 343 m 1150 535 l 1165 596 l 1331 596 l 1318 535 l 1150 535 m 1068 343 l 1088 404 l 1290 404 l 1278 343 l 1068 343 m 333 0 l 249 0 l 231 924 l 311 924 l 319 100 l 699 731 l 776 731 l 890 96 q 1084 493 997 289 q 1243 924 1171 697 l 1322 924 q 1236 676 1279 792 q 1145 451 1193 560 q 1041 231 1097 342 q 915 0 985 121 l 833 0 l 724 646 l 333 0 z "},"₪":{"ha":921,"x_min":28,"x_max":900,"o":"m 101 0 l 28 0 l 167 660 q 290 692 228 679 q 419 706 351 706 q 546 684 492 706 q 624 610 600 663 q 628 463 649 557 l 588 272 l 524 272 l 565 465 q 564 567 581 531 q 507 619 547 604 q 411 633 467 633 q 320 624 369 633 q 231 603 271 615 l 101 0 m 406 419 l 335 89 q 417 67 369 76 q 504 58 464 58 q 603 73 558 58 q 681 124 649 88 q 726 225 713 161 l 826 690 l 900 690 l 797 201 q 739 74 781 121 q 637 6 697 26 q 501 -14 576 -14 q 415 -8 458 -14 q 333 9 372 -1 q 260 33 294 19 l 342 419 l 406 419 z "},"₭":{"ha":867,"x_min":69,"x_max":910,"o":"m 69 465 l 82 528 l 224 528 l 210 465 l 69 465 m 397 467 l 435 526 l 814 526 l 800 467 l 397 467 m 283 924 l 367 924 l 257 407 l 810 924 l 910 924 l 478 519 q 570 477 535 504 q 628 401 606 450 q 665 272 650 353 l 718 0 l 633 0 l 585 247 q 552 365 571 322 q 501 431 533 408 q 413 463 468 453 l 235 301 l 171 0 l 88 0 l 283 924 z "},"₱":{"ha":913,"x_min":90,"x_max":949,"o":"m 131 704 l 143 765 l 297 765 l 285 704 l 131 704 m 90 511 l 103 574 l 257 574 l 244 511 l 90 511 m 782 704 l 794 765 l 949 765 l 938 704 l 782 704 m 744 511 l 757 574 l 908 574 l 896 511 l 744 511 m 356 854 l 267 438 q 359 424 313 428 q 451 419 406 419 q 592 441 535 419 q 682 499 649 463 q 731 583 715 536 q 747 682 746 631 q 724 787 749 750 q 653 839 700 824 q 538 854 606 854 l 356 854 m 288 924 l 547 924 q 699 902 635 924 q 798 828 763 881 q 832 683 833 775 q 791 515 831 590 q 667 394 751 439 q 449 349 583 349 q 354 353 403 349 q 251 367 306 357 l 174 0 l 90 0 l 288 924 z "},"₵":{"ha":746,"x_min":94,"x_max":801,"o":"m 625 908 l 560 908 l 588 1044 l 654 1044 l 625 908 m 367 19 l 433 19 l 400 -139 l 333 -139 l 367 19 m 801 917 l 778 844 q 688 860 732 854 q 592 865 643 865 q 413 817 490 865 q 283 688 335 769 q 206 503 232 606 q 179 293 179 401 q 235 116 179 175 q 406 57 292 57 q 515 65 463 57 q 621 83 567 72 l 614 13 q 509 -7 563 0 q 393 -14 456 -14 q 172 63 250 -14 q 94 292 94 140 q 126 531 94 415 q 219 739 157 647 q 376 885 282 831 q 596 939 471 939 q 701 933 653 939 q 801 917 750 926 z "},"₸":{"ha":799,"x_min":108,"x_max":869,"o":"m 125 686 l 819 686 l 803 606 l 497 606 l 368 0 l 286 0 l 415 606 l 108 606 l 125 686 m 854 843 l 160 843 l 175 924 l 869 924 l 854 843 z "},"₼":{"ha":843,"x_min":10,"x_max":782,"o":"m 489 706 q 680 660 614 706 q 764 535 746 614 q 761 360 782 457 l 681 -14 l 597 -14 l 678 363 q 684 498 694 438 q 626 594 674 558 q 483 629 579 629 q 326 594 389 629 q 226 498 263 558 q 172 363 189 438 l 92 -14 l 10 -14 l 92 368 q 158 540 113 464 q 283 661 203 617 q 489 706 364 706 m 511 924 l 578 924 l 526 685 l 522 667 l 411 139 l 344 139 l 457 665 l 460 682 l 511 924 z "},"₽":{"ha":785,"x_min":17,"x_max":794,"o":"m 219 435 l 203 360 l 57 360 l 74 435 l 219 435 m 400 231 l 388 169 l 17 169 l 29 231 l 400 231 m 353 843 l 267 433 l 415 433 q 635 508 560 433 q 711 707 711 582 q 661 810 711 776 q 510 843 611 843 l 353 843 m 288 924 l 521 924 q 726 872 657 924 q 794 711 794 819 q 750 524 794 603 q 621 403 706 446 q 415 360 536 360 l 251 360 l 175 0 l 92 0 l 288 924 z "},"¤":{"ha":619,"x_min":24,"x_max":640,"o":"m 563 729 l 640 729 l 501 582 l 447 606 l 563 729 m 211 729 l 275 606 l 222 582 l 143 729 l 211 729 m 453 168 l 389 290 l 444 311 l 522 168 l 453 168 m 101 168 l 24 168 l 165 318 l 217 290 l 101 168 m 372 669 q 496 632 450 669 q 542 513 542 594 q 524 397 542 449 q 472 307 506 344 q 393 249 439 269 q 290 228 347 228 q 167 266 213 228 q 121 386 121 304 q 139 501 121 449 q 190 591 157 553 q 270 649 224 629 q 372 669 317 669 m 297 288 q 385 314 344 288 q 449 390 425 340 q 474 507 474 439 q 444 588 474 565 q 365 610 414 610 q 278 584 318 610 q 213 510 238 558 q 189 392 189 461 q 219 310 189 332 q 297 288 250 288 z "},"°":{"ha":510,"x_min":143,"x_max":532,"o":"m 306 582 q 392 610 357 582 q 447 683 428 638 q 465 782 465 729 q 442 853 465 828 q 369 878 418 878 q 284 850 319 878 q 230 777 249 822 q 211 678 211 732 q 235 608 211 633 q 306 582 258 582 m 374 938 q 492 897 451 938 q 532 785 532 856 q 517 688 532 735 q 474 603 503 640 q 403 544 446 565 q 301 522 360 522 q 184 564 225 522 q 143 675 143 606 q 158 772 143 725 q 201 857 172 819 q 274 916 231 894 q 374 938 317 938 z "},"%":{"ha":1139,"x_min":146,"x_max":1047,"o":"m 938 924 l 1015 924 l 256 0 l 179 0 l 938 924 m 308 457 q 192 495 238 457 q 146 621 146 533 q 163 739 146 682 q 212 840 179 796 q 290 911 244 885 q 394 938 336 938 q 511 899 465 938 q 557 775 557 861 q 540 657 557 714 q 491 555 524 600 q 413 483 458 510 q 308 457 367 457 m 313 513 q 386 534 353 513 q 443 593 419 556 q 480 678 467 631 q 493 776 493 725 q 465 860 493 838 q 390 883 438 883 q 317 862 350 883 q 260 803 283 840 q 223 717 236 765 q 210 618 210 669 q 238 535 210 558 q 313 513 265 513 m 799 -14 q 682 25 728 -14 q 636 150 636 64 q 653 268 636 211 q 702 370 669 325 q 781 442 735 415 q 885 468 826 468 q 1001 429 956 468 q 1047 304 1047 390 q 1031 186 1047 243 q 981 84 1014 129 q 903 13 949 39 q 799 -14 857 -14 m 803 42 q 876 63 843 42 q 933 122 910 85 q 970 208 957 160 q 983 307 983 256 q 956 390 983 368 q 881 413 928 413 q 807 391 840 413 q 750 332 774 369 q 713 247 726 294 q 700 147 700 199 q 728 65 700 88 q 803 42 756 42 z "},"‰":{"ha":1643,"x_min":146,"x_max":1551,"o":"m 1389 468 q 1506 429 1460 468 q 1551 304 1551 390 q 1535 186 1551 243 q 1485 84 1518 129 q 1407 13 1453 39 q 1303 -14 1361 -14 q 1186 25 1232 -14 q 1140 150 1140 64 q 1157 268 1140 211 q 1206 370 1174 325 q 1285 442 1239 415 q 1389 468 1331 468 m 938 924 l 1015 924 l 256 0 l 179 0 l 938 924 m 308 457 q 192 495 238 457 q 146 621 146 533 q 163 739 146 682 q 212 840 179 796 q 290 911 244 885 q 394 938 336 938 q 511 899 465 938 q 557 775 557 861 q 540 657 557 714 q 491 555 524 600 q 413 483 458 510 q 308 457 367 457 m 313 513 q 386 534 353 513 q 443 593 419 556 q 480 678 467 631 q 493 776 493 725 q 465 860 493 838 q 390 883 438 883 q 317 862 350 883 q 260 803 283 840 q 223 717 236 765 q 210 618 210 669 q 238 535 210 558 q 313 513 265 513 m 799 -14 q 682 25 728 -14 q 636 150 636 64 q 653 268 636 211 q 702 370 669 325 q 781 442 735 415 q 885 468 826 468 q 1001 429 956 468 q 1047 304 1047 390 q 1031 186 1047 243 q 981 84 1014 129 q 903 13 949 39 q 799 -14 857 -14 m 803 42 q 876 63 843 42 q 933 122 910 85 q 970 208 957 160 q 983 307 983 256 q 956 390 983 368 q 881 413 928 413 q 807 391 840 413 q 750 332 774 369 q 713 247 726 294 q 700 147 700 199 q 728 65 700 88 q 803 42 756 42 m 1307 42 q 1381 63 1347 42 q 1438 122 1414 85 q 1474 208 1461 160 q 1488 307 1488 256 q 1460 390 1488 368 q 1385 413 1432 413 q 1311 391 1344 413 q 1254 332 1278 369 q 1217 247 1231 294 q 1204 147 1204 199 q 1232 65 1204 88 q 1307 42 1260 42 z "},"⁄":{"ha":282,"x_min":-251,"x_max":585,"o":"m 506 924 l 585 924 l -175 0 l -251 0 l 506 924 z "},"½":{"ha":913,"x_min":7,"x_max":888,"o":"m 142 890 l 283 925 l 328 925 l 228 457 l 168 457 l 254 863 l 129 831 l 142 890 m 764 924 l 843 924 l 83 0 l 7 0 l 764 924 m 621 414 l 628 469 q 681 478 651 474 q 743 482 711 482 q 846 459 804 482 q 888 381 888 436 q 872 312 888 344 q 824 244 857 279 q 736 163 792 210 l 613 56 l 829 56 l 818 1 l 514 1 l 524 50 l 690 196 q 775 273 746 243 q 815 326 804 303 q 825 372 825 349 q 799 416 825 404 q 732 428 772 428 q 672 424 703 428 q 621 414 640 419 z "},"¼":{"ha":868,"x_min":7,"x_max":843,"o":"m 142 890 l 283 925 l 328 925 l 228 457 l 168 457 l 254 863 l 129 831 l 142 890 m 764 924 l 843 924 l 83 0 l 7 0 l 764 924 m 747 469 l 817 469 l 750 160 l 815 160 l 804 108 l 740 108 l 717 1 l 658 1 l 682 108 l 433 108 l 442 147 l 747 469 m 507 143 l 471 160 l 693 160 l 751 440 l 781 433 l 507 143 z "},"¾":{"ha":979,"x_min":56,"x_max":956,"o":"m 158 925 l 443 925 l 432 874 l 260 724 l 269 722 q 353 697 318 721 q 389 619 389 672 q 368 533 389 574 q 303 467 347 492 q 193 442 260 442 q 121 448 158 442 q 56 461 83 454 l 72 511 q 131 500 97 506 q 192 494 165 494 q 292 526 256 494 q 328 614 328 558 q 297 666 328 653 q 221 679 267 679 l 172 679 l 181 718 l 357 872 l 147 872 l 158 925 m 876 924 l 956 924 l 196 0 l 119 0 l 876 924 m 858 469 l 928 469 l 861 160 l 926 160 l 915 108 l 851 108 l 828 1 l 769 1 l 793 108 l 544 108 l 553 147 l 858 469 m 618 143 l 582 160 l 804 160 l 863 440 l 892 433 l 618 143 z "},"+":{"ha":690,"x_min":57,"x_max":676,"o":"m 71 478 l 335 478 l 388 726 l 463 726 l 410 478 l 676 478 l 663 411 l 396 411 l 343 163 l 268 163 l 321 411 l 57 411 l 71 478 z "},"−":{"ha":690,"x_min":56,"x_max":676,"o":"m 71 476 l 676 476 l 661 408 l 56 408 l 71 476 z "},"×":{"ha":615,"x_min":22,"x_max":636,"o":"m 113 660 l 494 183 l 546 229 l 165 707 l 113 660 m 22 229 l 65 182 l 636 660 l 594 707 l 22 229 z "},"÷":{"ha":690,"x_min":56,"x_max":676,"o":"m 71 478 l 676 478 l 661 410 l 56 410 l 71 478 m 328 258 q 361 247 350 258 q 372 217 372 236 q 354 174 372 190 q 306 158 336 158 q 273 169 285 158 q 261 200 261 181 q 280 242 261 226 q 328 258 299 258 m 428 725 q 460 714 449 725 q 472 683 472 703 q 453 641 472 657 q 406 625 435 625 q 372 637 383 625 q 361 667 361 649 q 379 710 361 694 q 428 725 397 725 z "},"=":{"ha":717,"x_min":39,"x_max":719,"o":"m 113 614 l 719 614 l 704 547 l 99 547 l 113 614 m 54 336 l 661 336 l 646 268 l 39 268 l 54 336 z "},"¬":{"ha":718,"x_min":86,"x_max":706,"o":"m 100 617 l 706 617 l 633 275 l 560 275 l 618 550 l 86 550 l 100 617 z "},"~":{"ha":725,"x_min":53,"x_max":718,"o":"m 664 521 l 718 494 q 671 421 696 453 q 614 370 646 389 q 538 351 582 351 q 458 370 499 351 q 378 413 418 389 q 301 456 339 438 q 231 475 264 475 q 160 446 185 475 q 108 372 135 417 l 53 399 q 99 472 75 440 q 156 523 124 504 q 232 542 188 542 q 310 523 269 542 q 392 479 351 504 q 472 435 433 454 q 543 417 510 417 q 614 447 589 417 q 664 521 639 476 z "},"<":{"ha":704,"x_min":56,"x_max":731,"o":"m 56 410 l 71 476 l 731 731 l 713 653 l 118 426 l 129 450 l 622 225 l 608 156 l 56 410 z "},">":{"ha":704,"x_min":17,"x_max":690,"o":"m 690 476 l 675 410 l 17 156 l 33 233 l 629 460 l 618 436 l 124 661 l 139 731 l 690 476 z "},"±":{"ha":710,"x_min":-21,"x_max":688,"o":"m -7 68 l 600 68 l 586 0 l -21 0 l -7 68 m 81 482 l 346 482 l 397 726 l 474 726 l 421 482 l 688 482 l 674 414 l 407 414 l 357 174 l 281 174 l 332 414 l 67 414 l 81 482 z "},"^":{"ha":597,"x_min":69,"x_max":594,"o":"m 386 924 l 458 924 l 594 501 l 522 501 l 404 876 l 432 881 l 151 501 l 69 501 l 386 924 z "},"≠":{"ha":717,"x_min":39,"x_max":719,"o":"m 54 336 l 661 336 l 646 268 l 39 268 l 54 336 m 113 614 l 719 614 l 704 547 l 99 547 l 113 614 m 579 800 l 656 800 l 179 83 l 103 83 l 579 800 z "},"≈":{"ha":750,"x_min":38,"x_max":756,"o":"m 650 392 l 704 365 q 657 291 682 324 q 600 240 632 258 q 522 222 568 222 q 444 241 485 222 q 365 284 404 260 q 288 327 325 308 q 217 346 250 346 q 144 317 169 346 q 94 243 119 288 l 38 269 q 84 343 60 311 q 140 394 108 375 q 217 413 172 413 q 295 394 254 413 q 377 350 336 375 q 456 306 418 325 q 528 288 494 288 q 599 317 574 288 q 650 392 624 347 m 703 638 l 756 611 q 710 538 735 569 q 652 487 685 506 q 575 468 619 468 q 496 487 536 468 q 416 530 456 506 q 339 573 376 554 q 268 592 301 592 q 197 563 222 592 q 146 489 172 533 l 90 515 q 137 589 113 557 q 193 640 161 621 q 269 658 225 658 q 348 640 307 658 q 430 596 389 621 q 509 552 471 571 q 581 533 547 533 q 651 563 626 533 q 703 638 676 593 z "},"≤":{"ha":725,"x_min":-21,"x_max":739,"o":"m 600 68 l 586 0 l -21 0 l -7 68 l 600 68 m 67 410 l 81 476 l 739 731 l 722 653 l 126 426 l 139 450 l 632 225 l 617 156 l 67 410 z "},"≥":{"ha":725,"x_min":-7,"x_max":699,"o":"m 7 68 l 613 68 l 599 0 l -7 0 l 7 68 m 699 476 l 685 410 l 25 156 l 43 233 l 638 460 l 626 436 l 133 661 l 149 731 l 699 476 z "},"∞":{"ha":893,"x_min":71,"x_max":865,"o":"m 433 444 q 356 539 388 506 q 276 572 325 572 q 179 527 221 572 q 138 408 138 482 q 160 335 138 358 q 222 313 183 313 q 316 348 271 313 q 433 444 361 383 m 476 490 q 570 567 529 535 q 649 616 611 599 q 728 633 686 633 q 828 594 792 633 q 865 481 865 554 q 838 364 865 415 q 765 283 811 313 q 660 253 718 253 q 583 270 615 253 q 523 319 551 288 q 460 394 494 351 q 367 318 408 350 q 289 269 326 286 q 208 251 251 251 q 108 292 146 251 q 71 404 71 332 q 99 522 71 469 q 174 603 126 574 q 278 633 221 633 q 354 616 322 633 q 415 567 386 599 q 476 490 443 535 m 504 440 q 581 347 550 381 q 660 314 613 314 q 758 359 717 314 q 800 476 800 404 q 777 549 800 526 q 715 572 754 572 q 622 537 668 572 q 504 440 576 501 z "},"◊":{"ha":699,"x_min":63,"x_max":686,"o":"m 242 0 l 63 463 l 439 924 l 507 924 l 686 463 l 311 0 l 242 0 m 288 75 l 606 469 l 461 850 l 144 457 l 288 75 z "},"√":{"ha":786,"x_min":90,"x_max":961,"o":"m 104 690 l 290 690 l 386 74 l 879 924 l 961 924 l 419 0 l 328 0 l 221 631 l 90 631 l 104 690 z "},"∫":{"ha":307,"x_min":-206,"x_max":528,"o":"m -206 -265 l -193 -200 l -181 -200 q -87 -185 -131 -200 q -11 -134 -43 -171 q 35 -32 21 -97 l 208 785 q 269 924 228 874 q 370 997 310 975 q 506 1018 431 1018 l 528 1018 l 515 954 l 503 954 q 408 940 453 954 q 332 888 364 925 q 286 785 300 851 l 113 -32 q 53 -171 94 -119 q -49 -244 11 -222 q -183 -265 -108 -265 l -206 -265 z "},"∂":{"ha":775,"x_min":35,"x_max":786,"o":"m 232 -14 q 86 38 138 -14 q 35 175 35 90 q 62 321 35 253 q 139 440 89 389 q 261 522 189 492 q 422 551 333 551 q 568 533 504 551 q 669 493 632 514 l 643 432 q 545 472 604 457 q 415 488 486 488 q 296 465 351 488 q 199 400 240 442 q 133 301 157 358 q 110 175 110 244 q 142 85 110 118 q 242 51 175 51 q 373 89 311 51 q 488 189 435 126 q 582 328 540 251 q 653 483 624 404 q 699 631 683 561 q 714 749 714 700 q 676 844 714 817 q 567 871 639 871 q 449 861 500 871 q 353 838 397 851 l 360 904 q 456 928 404 917 q 581 939 508 939 q 694 919 649 939 q 763 858 739 899 q 786 756 786 818 q 769 622 786 700 q 720 456 753 543 q 640 286 688 369 q 531 135 592 203 q 394 26 469 67 q 232 -14 319 -14 z "},"∏":{"ha":925,"x_min":85,"x_max":1010,"o":"m 163 924 l 1010 924 l 994 851 l 875 851 l 694 0 l 613 0 l 793 851 l 349 851 l 168 0 l 85 0 l 265 851 l 147 851 l 163 924 z "},"∑":{"ha":710,"x_min":-19,"x_max":769,"o":"m 264 854 l 503 476 l 107 71 l 606 71 l 590 0 l -19 0 l -6 65 l 403 482 l 163 860 l 176 924 l 769 924 l 754 854 l 264 854 z "},"π":{"ha":792,"x_min":90,"x_max":835,"o":"m 104 690 l 835 690 l 821 625 l 676 625 l 544 0 l 467 0 l 599 625 l 313 625 l 179 0 l 101 0 l 233 625 l 90 625 l 104 690 z "},"Δ":{"ha":789,"x_min":-29,"x_max":671,"o":"m -29 0 l 471 924 l 564 924 l 671 0 l -29 0 m 590 49 l 497 883 l 522 869 l 81 47 l 50 71 l 636 71 l 590 49 z "},"Ω":{"ha":917,"x_min":-1,"x_max":868,"o":"m 576 939 q 794 868 721 939 q 868 649 868 797 q 833 398 868 513 q 735 199 799 283 q 585 71 671 115 l 786 71 l 771 0 l 443 0 l 457 68 q 637 188 564 106 q 747 390 710 271 q 785 653 785 510 q 731 818 785 769 q 569 867 676 867 q 426 834 489 867 q 317 744 363 801 q 244 615 272 688 q 201 465 215 543 q 188 308 188 386 q 206 199 188 243 q 258 124 224 154 q 342 68 293 93 l 328 0 l -1 0 l 14 71 l 232 71 q 142 167 178 108 q 107 328 107 226 q 124 494 107 408 q 176 660 140 581 q 267 802 211 739 q 399 902 322 865 q 576 939 476 939 z "},"ℓ":{"ha":543,"x_min":58,"x_max":589,"o":"m 176 290 l 147 157 q 147 91 138 114 q 180 60 157 68 q 232 51 203 51 q 295 58 261 51 q 357 72 329 64 l 347 7 q 282 -8 314 -3 q 214 -14 250 -14 q 129 3 167 -14 q 75 60 92 21 q 71 164 58 100 l 182 688 q 230 820 199 764 q 310 908 261 876 q 425 939 358 939 q 547 894 506 939 q 589 765 589 849 q 560 627 589 693 q 478 501 532 561 q 349 389 425 442 q 176 290 272 336 m 190 357 q 364 476 292 411 q 476 613 436 540 q 515 760 515 685 q 492 844 515 818 q 421 871 468 871 q 319 819 358 871 q 260 679 279 767 l 190 357 z "},"µ":{"ha":740,"x_min":-14,"x_max":701,"o":"m 624 690 l 701 690 l 561 31 q 476 8 521 18 q 386 -8 432 -3 q 294 -14 340 -14 q 163 13 218 -14 q 94 108 107 40 q 85 158 89 132 q 88 214 82 183 l 189 690 l 267 690 l 165 215 q 167 114 151 150 q 222 63 183 78 q 313 49 260 49 q 405 57 354 49 q 494 78 456 65 l 624 690 m 61 -261 l -14 -261 l 88 217 l 163 217 l 61 -261 z "},"ſ":{"ha":332,"x_min":65,"x_max":625,"o":"m 311 790 l 144 0 l 65 0 l 197 628 l 90 628 l 104 690 l 211 690 l 232 790 q 333 969 260 919 q 508 1018 406 1018 q 568 1015 533 1018 q 625 1008 603 1013 l 604 946 q 558 952 583 950 q 508 954 532 954 q 384 920 436 954 q 311 790 332 886 z "},"ƒ":{"ha":649,"x_min":61,"x_max":756,"o":"m 75 526 l 250 526 l 289 711 q 392 890 317 840 q 574 939 467 939 q 669 933 621 939 q 756 918 717 926 l 733 856 q 660 869 699 864 q 575 875 621 875 q 444 841 499 875 q 368 711 389 807 l 329 526 l 653 526 l 640 464 l 315 464 l 218 0 l 139 0 l 236 464 l 61 464 l 75 526 z "},"ﬁ":{"ha":713,"x_min":65,"x_max":726,"o":"m 104 690 l 211 690 l 231 785 q 342 967 260 917 q 543 1018 425 1018 q 601 1015 568 1018 q 669 1008 635 1013 q 726 1000 703 1004 l 706 936 q 625 949 669 944 q 544 954 581 954 q 393 919 456 954 q 310 785 331 883 l 290 690 l 672 690 l 525 0 l 449 0 l 581 628 l 276 628 l 144 0 l 65 0 l 197 628 l 90 628 l 104 690 z "},"ﬂ":{"ha":714,"x_min":65,"x_max":739,"o":"m 104 690 l 211 690 l 231 785 q 342 967 260 917 q 543 1018 425 1018 q 606 1015 571 1018 q 677 1007 642 1011 q 739 997 713 1003 l 717 935 q 631 949 678 943 q 544 954 585 954 q 393 919 456 954 q 310 785 331 883 l 290 690 l 478 690 l 464 628 l 276 628 l 144 0 l 65 0 l 197 628 l 90 628 l 104 690 m 661 997 l 739 997 l 528 0 l 450 0 l 661 997 z "},"⁰":{"ha":451,"x_min":151,"x_max":542,"o":"m 390 1085 q 542 926 542 1085 q 530 822 542 879 q 491 713 518 765 q 417 628 464 661 q 301 594 371 594 q 151 753 151 594 q 163 857 151 800 q 201 966 174 914 q 274 1051 228 1018 q 390 1085 321 1085 m 306 649 q 390 678 356 649 q 443 751 424 707 q 471 842 463 796 q 479 924 479 889 q 386 1031 479 1031 q 302 1001 336 1031 q 249 928 268 972 q 221 837 229 883 q 213 756 213 790 q 306 649 213 649 z "},"¹":{"ha":260,"x_min":175,"x_max":374,"o":"m 188 1038 l 329 1072 l 374 1072 l 274 604 l 214 604 l 300 1010 l 175 978 l 188 1038 z "},"²":{"ha":372,"x_min":101,"x_max":475,"o":"m 208 1017 l 215 1072 q 269 1081 239 1076 q 331 1085 299 1085 q 433 1062 392 1085 q 475 983 475 1039 q 460 915 475 947 q 412 847 444 882 q 324 765 379 813 l 200 658 l 417 658 l 406 604 l 101 604 l 111 653 l 278 799 q 363 876 333 846 q 402 928 392 906 q 413 975 413 951 q 386 1019 413 1007 q 319 1031 360 1031 q 259 1026 290 1031 q 208 1017 228 1022 z "},"³":{"ha":369,"x_min":101,"x_max":489,"o":"m 204 1072 l 489 1072 l 478 1021 l 306 871 l 315 869 q 399 844 364 868 q 435 767 435 819 q 414 680 435 721 q 349 614 393 639 q 239 589 306 589 q 167 595 204 589 q 101 608 129 601 l 118 658 q 177 647 143 653 q 238 642 211 642 q 338 674 301 642 q 374 761 374 706 q 343 813 374 800 q 267 826 313 826 l 218 826 l 226 865 l 403 1019 l 193 1019 l 204 1072 z "},"⁴":{"ha":426,"x_min":119,"x_max":503,"o":"m 433 1072 l 503 1072 l 436 763 l 501 763 l 490 711 l 426 711 l 403 604 l 344 604 l 368 711 l 119 711 l 128 750 l 433 1072 m 193 746 l 157 763 l 379 763 l 438 1043 l 467 1036 l 193 746 z "},"⁵":{"ha":378,"x_min":113,"x_max":481,"o":"m 444 769 q 394 641 444 693 q 247 589 343 589 q 177 594 214 589 q 113 607 140 600 l 129 658 q 188 646 156 651 q 249 640 219 640 q 349 674 314 640 q 385 765 385 708 q 358 821 385 807 q 286 835 332 835 q 236 831 267 835 q 181 822 206 826 l 168 843 l 235 1072 l 481 1072 l 469 1019 l 272 1019 l 231 876 q 260 882 239 879 q 300 885 281 885 q 406 858 367 885 q 444 769 444 831 z "},"⁶":{"ha":407,"x_min":149,"x_max":511,"o":"m 204 807 l 214 858 q 278 883 246 874 q 343 892 310 892 q 443 860 408 892 q 478 769 478 829 q 456 679 478 721 q 394 613 435 638 q 297 589 354 589 q 185 633 221 589 q 149 758 149 678 q 163 872 149 814 q 208 977 178 929 q 288 1055 239 1025 q 407 1085 338 1085 q 461 1082 433 1085 q 511 1074 489 1079 l 494 1022 q 450 1031 474 1028 q 403 1033 426 1033 q 311 1008 349 1033 q 251 941 274 982 q 217 853 228 900 q 207 761 207 806 q 226 672 207 704 q 301 640 246 640 q 388 675 356 640 q 419 767 419 710 q 333 843 419 843 q 272 835 306 843 q 204 807 238 826 z "},"⁷":{"ha":365,"x_min":144,"x_max":508,"o":"m 194 1072 l 508 1072 l 500 1033 l 213 604 l 144 604 l 425 1018 l 182 1018 l 194 1072 z "},"⁸":{"ha":426,"x_min":133,"x_max":518,"o":"m 332 828 q 229 794 264 828 q 194 707 194 760 q 292 638 194 638 q 392 672 356 638 q 428 760 428 707 q 332 828 428 828 m 419 846 q 468 817 451 839 q 485 758 485 796 q 462 672 485 710 q 394 611 439 633 q 286 589 350 589 q 173 618 213 589 q 133 703 133 647 q 165 801 133 760 q 253 853 197 842 q 215 882 231 860 q 199 933 199 904 q 219 1009 199 975 q 281 1064 240 1043 q 382 1085 322 1085 q 483 1060 447 1085 q 518 986 518 1035 q 491 896 518 935 q 419 846 464 857 m 376 1039 q 289 1010 318 1039 q 260 932 260 982 q 340 871 260 871 q 426 901 394 871 q 458 981 458 932 q 376 1039 458 1039 z "},"⁹":{"ha":408,"x_min":138,"x_max":500,"o":"m 444 867 l 435 817 q 372 792 404 801 q 306 783 339 783 q 206 815 242 783 q 171 906 171 846 q 192 996 171 956 q 255 1060 214 1036 q 351 1085 296 1085 q 465 1041 429 1085 q 500 915 500 997 q 485 802 500 860 q 440 697 471 744 q 360 619 410 649 q 242 589 311 589 q 188 592 215 589 q 138 600 161 594 l 154 653 q 199 644 175 647 q 246 642 224 642 q 338 667 300 642 q 398 734 375 693 q 431 822 421 775 q 442 914 442 869 q 422 1002 442 971 q 347 1033 403 1033 q 261 999 293 1033 q 229 907 229 965 q 315 832 229 832 q 377 840 343 832 q 444 867 411 849 z "},"←":{"ha":897,"x_min":42,"x_max":853,"o":"m 329 649 l 51 368 q 42 345 42 358 q 51 322 42 332 l 328 46 l 379 101 l 111 356 l 111 338 l 381 592 l 329 649 m 106 311 l 853 311 l 853 383 l 106 383 l 106 311 z "},"↑":{"ha":676,"x_min":40,"x_max":638,"o":"m 40 524 l 93 469 l 349 739 l 331 739 l 585 471 l 638 525 l 363 803 q 341 814 353 814 q 319 803 329 814 l 40 524 m 374 744 l 304 744 l 304 0 l 374 0 l 374 744 z "},"→":{"ha":897,"x_min":44,"x_max":856,"o":"m 568 649 l 517 592 l 788 338 l 788 356 l 518 101 l 569 46 l 847 322 q 856 345 856 332 q 847 368 856 358 l 568 649 m 792 311 l 792 383 l 44 383 l 44 311 l 792 311 z "},"↓":{"ha":674,"x_min":38,"x_max":635,"o":"m 38 274 l 317 -6 q 338 -15 326 -15 q 360 -6 350 -15 l 635 272 l 582 328 l 328 60 l 346 60 l 90 329 l 38 274 m 371 54 l 371 797 l 301 797 l 301 54 l 371 54 z "},"↔":{"ha":1157,"x_min":42,"x_max":1115,"o":"m 329 649 l 51 368 q 42 345 42 358 q 51 322 42 332 l 328 46 l 379 101 l 111 356 l 111 338 l 381 592 l 329 649 m 106 311 l 814 311 l 814 383 l 106 383 l 106 311 m 828 649 l 776 592 l 1047 338 l 1047 356 l 778 101 l 829 46 l 1107 322 q 1115 345 1115 332 q 1107 368 1115 358 l 828 649 m 1051 311 l 1051 383 l 343 383 l 343 311 l 1051 311 z "},"↕":{"ha":696,"x_min":49,"x_max":646,"o":"m 49 293 l 328 14 q 349 4 338 4 q 371 14 361 4 l 646 292 l 594 347 l 339 78 l 357 78 l 101 349 l 49 293 m 382 74 l 382 751 l 313 751 l 313 74 l 382 74 m 49 672 l 101 617 l 357 888 l 339 888 l 594 618 l 646 674 l 371 951 q 349 961 361 961 q 328 951 338 961 l 49 672 m 382 892 l 313 892 l 313 213 l 382 213 l 382 892 z "},"↖":{"ha":722,"x_min":81,"x_max":688,"o":"m 81 240 l 156 240 l 146 613 l 132 600 l 503 588 l 503 667 l 113 668 q 91 659 100 668 q 82 636 82 650 l 81 240 m 110 582 l 639 56 l 688 107 l 160 633 l 110 582 z "},"↗":{"ha":722,"x_min":36,"x_max":642,"o":"m 642 240 l 642 636 q 633 659 642 650 q 610 668 624 668 l 219 667 l 221 588 l 590 600 l 578 613 l 567 240 l 642 240 m 613 582 l 564 633 l 36 107 l 83 56 l 613 582 z "},"↘":{"ha":724,"x_min":38,"x_max":644,"o":"m 644 500 l 569 500 l 579 128 l 593 140 l 222 153 l 222 74 l 613 72 q 635 81 626 72 q 643 104 643 90 l 644 500 m 615 158 l 86 685 l 38 633 l 565 107 l 615 158 z "},"↙":{"ha":724,"x_min":81,"x_max":686,"o":"m 81 500 l 81 104 q 90 81 81 90 q 113 72 99 72 l 503 74 l 501 153 l 132 140 l 144 128 l 156 500 l 81 500 m 110 158 l 158 107 l 686 633 l 638 685 l 110 158 z "},"℮":{"ha":1003,"x_min":83,"x_max":933,"o":"m 933 357 l 244 357 q 239 353 239 357 l 239 144 q 249 119 239 132 q 365 38 297 68 q 510 8 433 8 q 663 42 593 8 q 783 133 733 76 l 844 133 q 699 26 788 67 q 508 -15 611 -15 q 344 15 421 -15 q 208 97 267 44 q 117 218 150 149 q 83 367 83 288 q 117 516 83 446 q 208 639 150 586 q 344 722 267 692 q 508 751 421 751 q 673 722 596 751 q 808 639 750 692 q 900 516 867 586 q 933 367 933 446 l 933 357 m 778 383 l 778 593 q 767 619 778 608 q 652 699 718 669 q 510 728 586 728 q 366 698 433 728 q 250 615 299 668 q 239 589 239 607 l 239 383 q 244 378 239 378 l 774 378 q 778 383 778 378 z "}}}
